<?xml version="1.0" standalone="no"?>
<!DOCTYPE svg PUBLIC "-//W3C//DTD SVG 1.1//EN" "http://www.w3.org/Graphics/SVG/1.1/DTD/svg11.dtd" >
<svg>
<metadata>
Created by FontForge 20090914 at Sat Feb 18 13:48:43 2017
 By www-data
Copyright (c) by ParaGraph Intl. 1994
</metadata>
<defs>
<font id="TagirCTT" horiz-adv-x="425" >
  <font-face 
    font-family="TagirCTT"
    font-weight="400"
    font-stretch="normal"
    units-per-em="1000"
    panose-1="0 0 0 0 0 0 0 0 0 0"
    ascent="800"
    descent="-200"
    x-height="497.996"
    cap-height="660"
    bbox="-185 -449.001 1065 937.997"
    underline-thickness="20"
    underline-position="-123"
    unicode-range="U+0020-U+2122"
  />
<missing-glyph horiz-adv-x="800" 
d="M50 0v800h700v-800h-700zM700 50v700h-600v-700h600z" />
    <glyph glyph-name=".notdef" horiz-adv-x="800" 
d="M50 0v800h700v-800h-700zM700 50v700h-600v-700h600z" />
    <glyph glyph-name="space" unicode=" " horiz-adv-x="419" 
 />
    <glyph glyph-name="exclam" unicode="!" horiz-adv-x="413" 
d="M381 760c0 -12.667 -7.16797 -46.001 -21.501 -100.001l-42.5 -162c-17.333 -68 -27.5 -114 -30.5 -138s-11.333 -44.833 -25 -62.5s-29.167 -26.5 -46.5 -26.5c-22 0 -37.333 10.333 -46 31c-6 14 -9 34.333 -9 61c0 21.333 9.33301 69.333 28 144
c22 88.667 45.333 161.334 70 218.001c32.667 75.333 63.334 113 92.001 113c10 0 17.667 -4.16699 23 -12.5s8 -23.833 8 -46.5v-19zM268.999 103.999c-2.66699 -26 -15.165 -47.834 -37.498 -65.501s-46.833 -26.5 -73.5 -26.5c-10.667 0 -20.334 4 -29.001 12
s-13 18 -13 30c0 20.667 6.5 42.334 19.5 65.001s27.833 34 44.5 34c5.33301 0.666992 9.66602 1 12.999 1c21.333 0 39.833 -4.16699 55.5 -12.5s22.5 -20.833 20.5 -37.5z" />
    <glyph glyph-name="quotedbl" unicode="&#x22;" horiz-adv-x="431" 
d="M330 796c0 -10.667 -5 -27.335 -15 -50.002l-41 -91c-1.33301 -5.33301 -2 -9.66602 -2 -12.999c0 -9.33301 1.66699 -20.333 5 -33c8.66699 -33.333 13 -57 13 -71c0 -11.333 -8 -27.666 -24 -48.999c-18 -24 -34 -36 -48 -36c-18 0 -32 5 -42 15
c-14.667 15.333 -22 42 -22 80c0 63.333 18.333 129 55 197c34 63.333 63 95 87 95c14 0 23.167 -3.66699 27.5 -11s6.5 -18.333 6.5 -33zM498 795.999c0 -10.667 -5 -27.333 -15 -50l-41 -91c-1.33301 -5.33301 -2 -9.33301 -2 -12c0 -2 4.33301 -21.333 13 -58
c4 -16.667 6 -32.334 6 -47.001c0 -11.333 -8 -27.666 -24 -48.999c-18 -24 -34.333 -36 -49 -36c-18 0 -31.667 5 -41 15c-14.667 15.333 -22 42 -22 80c0 64 18 129.667 54 197c34 63.333 63 95 87 95c14 0 23.167 -3.66699 27.5 -11s6.5 -18.333 6.5 -33z" />
    <glyph glyph-name="numbersign" unicode="#" horiz-adv-x="1013" 
d="M627 468l-185 -25.999l-22 -109c26.667 3.33301 57 8 91 14l103 18c4.66699 22.667 8 41.667 10 57s3 30.666 3 45.999zM993 312.001c0 -26.667 -7.83691 -47.833 -23.5039 -63.5s-34.5 -23.5 -56.5 -23.5c-17.333 0 -36.666 6.33301 -57.999 19
c-11.333 6.66699 -21 10 -29 10l-103 -13c-1.33301 -4.66699 -9.66602 -43 -24.999 -115c-9.33301 -39.333 -16.333 -70.333 -21 -93c-11.333 -50 -17.666 -76.667 -18.999 -80c-10.667 -26.667 -28.334 -40 -53.001 -40c-12 0 -24.167 5 -36.5 15s-18.5 22 -18.5 36
c0 18 7 68 21 150l21 118l-91.5 -14.5c-26.333 -4.33301 -66.833 -12.5 -121.5 -24.5c1.33301 -1.33301 2 -5 2 -11c0 -16 -5.5 -40.667 -16.5 -74s-21.5 -60 -31.5 -80l-20 -70c-10 -22 -34.333 -33 -73 -33c-11.333 0 -24 6 -38 18c-9.33301 8 -14 15.333 -14 22
c0 10 8.33301 46 25 108c8.66699 32.667 15 51.667 19 57c-6.66699 -2.66699 -14.334 -4.66699 -23.001 -6s-15.334 -2 -20.001 -2c-11.333 0.666992 -20.666 1 -27.999 1c-11.333 0 -19.333 6.83301 -24 20.5s-7 29.167 -7 46.5c0 30 24.667 55.333 74 76
c16 6.66699 40.333 15 73 25c0 16.667 2.16699 34.167 6.5 52.5l14.5 60.5c-19.333 -6 -41.333 -11.333 -66 -16s-47.667 -7 -69 -7c-11.333 1.33301 -20.333 4.33301 -27 9c-8.66699 6.66699 -13 14.667 -13 24c0 36 26.667 65.333 80 88l130 46c18 52 35.667 99 53 141
c34.667 82 66.334 123 95.001 123c12.667 0 23.334 -7 32.001 -21c6.66699 -10.667 10 -19 10 -25c0 -31.333 -2.66699 -60.333 -8 -87s-13.333 -56.334 -24 -89.001c26.667 0 58.334 3.33301 95.001 10s64 11.334 82 14.001l40 111c9.33301 16 24.333 24 45 24
c36 0 54 -12 54 -36c0.666992 -3.33301 1 -8.33301 1 -15c0 -20 -4 -39.667 -12 -59c65.333 -9.33301 101.666 -15 108.999 -17c48.667 -14 73 -38 73 -72c0 -26 -34.667 -45 -104 -57c-22.667 -4 -57.667 -7.33301 -105 -10c-3.33301 -6.66699 -6.5 -21.667 -9.5 -45
s-5.83301 -40.666 -8.5 -51.999c18 4 31.333 6.83301 40 8.5s22.334 2.5 41.001 2.5c44 0 80 -5.66699 108 -17c35.333 -14.667 53 -37.334 53 -68.001z" />
    <glyph glyph-name="dollar" unicode="$" horiz-adv-x="621" 
d="M600 723c0 -18 -6.16895 -31.8369 -18.502 -41.5039s-27.166 -14.5 -44.499 -14.5c-41.333 0 -95 -14.333 -161 -43c-71.333 -31.333 -107 -59.666 -107 -84.999c0 -21.333 18.667 -40.666 56 -57.999c4.66699 -2 47.334 -17.333 128.001 -46
c42 -15.333 75.167 -39.333 99.5 -72s36.5 -70.334 36.5 -113.001c0 -47.333 -25.167 -101 -75.5 -161s-97.5 -92 -141.5 -96c-4 -42 -8.66699 -69.667 -14 -83c-12 -28.667 -34.333 -43 -67 -43c-20.667 0 -36.167 8.83301 -46.5 26.5s-15.5 38.167 -15.5 61.5
c0 8.66699 1 16.667 3 24c-21.333 0 -39 2.66699 -53 8c-14 6.66699 -27 12.334 -39 17.001c-32 10.667 -61.333 26.334 -88 47.001c-34 26.667 -49.333 51.334 -46 74.001c0.666992 6.66699 4.33398 15.5 11.001 26.5s12.667 16.5 18 16.5c12 0 59 -15.667 141 -47
c40 -15.333 72.667 -23 98 -23c56.667 0 101.834 13.833 135.501 41.5s50.5 60.834 50.5 99.501c0 36.667 -19.333 63 -58 79c-3.33301 1.33301 -31 11 -83 29c-60.667 20.667 -103.334 39.334 -128.001 56.001c-43.333 28.667 -65 64.667 -65 108c0 10 1 20 3 30
c10 56 61 112 153 168c5.33301 3.33301 39.333 21.666 102 54.999c2 16 3 30.667 3 44c0 8.66699 -0.166992 16.834 -0.5 24.501s-0.5 15.167 -0.5 22.5v12c0.666992 9.33301 8.66699 18.666 24 27.999s29.666 14 42.999 14c16 1.33301 27 -3.83398 33 -15.501
s9 -28.167 9 -49.5c0 -8 -0.5 -16.667 -1.5 -26s-1.83301 -16.333 -2.5 -21c42.667 0 71.5 -5.5 86.5 -16.5s22.5 -30.167 22.5 -57.5z" />
    <glyph glyph-name="percent" unicode="%" horiz-adv-x="935" 
d="M913 302c0 -51.333 -28.332 -113.667 -84.999 -187c-65.333 -84 -134 -126 -206 -126c-38.667 0 -69 13.667 -91 41c-19.333 24 -29 53.667 -29 89c0 16 15 52.333 45 109c36 68 74 123.667 114 167c52.667 57.333 102.667 86 150 86c29.333 0 53.666 -16.5 72.999 -49.5
s29 -76.167 29 -129.5zM749.001 810.999c0 -20 -17.333 -67.6689 -52 -143.002c-26 -56.667 -65.333 -137.667 -118 -243c-64 -128 -107 -216.167 -129 -264.5s-42.833 -102.166 -62.5 -161.499s-31.834 -100.166 -36.501 -122.499s-8 -35.166 -10 -38.499
c-9.33301 -16 -26 -24 -50 -24c-15.333 0 -28.5 7.16699 -39.5 21.5s-16.5 30.5 -16.5 48.5c0 8 26 74.333 78 199l154 360c56.667 130 92.334 209.667 107.001 239c-4 -2.66699 -16.5 -7.33398 -37.5 -14.001s-34.833 -11.667 -41.5 -15c2 -7.33301 4 -17.666 6 -30.999
s3 -24 3 -32c0 -6.66699 -0.333008 -11 -1 -13c-6.66699 -35.333 -46.667 -80.333 -120 -135c-76.667 -57.333 -140 -86 -190 -86c-34.667 0 -65.167 13.167 -91.5 39.5s-39.5 57.166 -39.5 92.499c0 19.333 15 54.333 45 105c34 57.333 71 105.666 111 144.999
c50 48.667 95.667 73 137 73c20.667 0 36 -5.66699 46 -17s22.333 -17 37 -17c13.333 0 45 8 95 24l173 55c12 0 22.167 -4.16699 30.5 -12.5s12.5 -19.166 12.5 -32.499zM790.001 277.997c0 19.333 -3.33301 33 -10 41s-20.667 12 -42 12c-17.333 0 -42.833 -24 -76.5 -72
s-50.5 -80.667 -50.5 -98c0 -16 1.5 -29 4.5 -39s10.833 -14.333 23.5 -13c42 3.33301 77.667 21 107 53s44 70.667 44 116zM363.001 605.997c0 14.667 -5.66699 27.332 -17 37.999c-3.33301 3.33301 -13.333 12 -30 26l-61 -39c-38.667 -33.333 -58 -70.666 -58 -111.999
c0 -4 7.66699 -9 23 -15c2.66699 -0.666992 6.66699 -2 12 -4c39.333 0 72 12.667 98 38c22 22 33 44.667 33 68z" />
    <glyph glyph-name="ampersand" unicode="&#x26;" horiz-adv-x="612" 
d="M597 104c-6.66699 -12.667 -11.999 -22.0039 -15.999 -28.0039c-13.333 -18.667 -26.666 -28 -39.999 -28c-15.333 0 -40.333 10.333 -75 31c-37.333 24 -61.333 39 -72 45c-27.333 -53.333 -62.333 -95.666 -105 -126.999c-34.667 -25.333 -64 -38 -88 -38
c-42.667 0 -80.334 16.667 -113.001 50s-49 73.666 -49 120.999c0 43.333 6.66699 80 20 110c7.33301 16.667 33.333 49 78 97c-16.667 24 -28.334 42.333 -35.001 55c-14.667 28.667 -22 56.667 -22 84c0 47.333 20 96 60 146c30 36.667 68.667 71.334 116 104.001
c39.333 26.667 64.333 40 75 40c31.333 0 56.333 -5.66699 75 -17c29.333 -18 44 -50.667 44 -98c0 -28.667 -10.5 -66 -31.5 -112s-52.167 -98.667 -93.5 -158l62 -62c13.333 38 31.166 69.5 53.499 94.5s43.833 36.167 64.5 33.5c10 -1.33301 17.667 -4.66602 23 -9.99902
s8 -15.333 8 -30c2 0.666992 4.33301 1.33398 7 2.00098c-5.33301 -5.33301 -30.666 -52.666 -75.999 -141.999l93 -82c24.667 -26 37 -53 37 -81zM335.001 599.996c0 9.33301 -2.5 19.832 -7.5 31.499s-11.833 18.167 -20.5 19.5c-18.667 2 -38.667 -13.333 -60 -46
s-32 -64.667 -32 -96c0 -12.667 2.5 -24.167 7.5 -34.5s12.833 -21.166 23.5 -32.499c20.667 28.667 40 59 58 91c20.667 36 31 58.333 31 67zM317.001 189.995c-13.333 11.333 -26.334 21.333 -39.001 30c-38 25.333 -59 39.666 -63 42.999
c-24 -23.333 -36 -49.666 -36 -78.999c0 -18.667 4.83301 -36.5 14.5 -53.5s20.834 -25.5 33.501 -25.5c17.333 0 32 5.33301 44 16c2 1.33301 17.333 24.333 46 69z" />
    <glyph glyph-name="quotesingle" unicode="'" horiz-adv-x="329" 
d="M330 796c0 -10.667 -5 -27.335 -15 -50.002l-41 -91c-1.33301 -5.33301 -2 -9.66602 -2 -12.999c0 -9.33301 1.66699 -20.333 5 -33c8.66699 -33.333 13 -57 13 -71c0 -11.333 -8 -27.666 -24 -48.999c-18 -24 -34 -36 -48 -36c-18 0 -32 5 -42 15
c-14.667 15.333 -22 42 -22 80c0 63.333 18.333 129 55 197c34 63.333 63 95 87 95c14 0 23.167 -3.66699 27.5 -11s6.5 -18.333 6.5 -33z" />
    <glyph glyph-name="parenleft" unicode="(" horiz-adv-x="521" 
d="M439 18c-3.33301 -24 -22.332 -41.3359 -56.999 -52.0029c-25.333 -8 -56 -12 -92 -12c-20 0 -43.333 8.66699 -70 26c-37.333 24 -67 58.333 -89 103c-29.333 58.667 -44 130.334 -44 215.001c0 52 20 116.667 60 194c33.333 64 79 135.333 137 214
c29.333 38.667 58 70.667 86 96c32.667 30 59 45 79 45c9.33301 0 16.166 -2.16699 20.499 -6.5s6.5 -15.166 6.5 -32.499c1.33301 -14.667 -17 -43.667 -55 -87c-29.333 -34 -48.333 -56.667 -57 -68c-40 -54 -68.333 -97.667 -85 -131
c-30 -59.333 -45 -117.666 -45 -174.999c0 -82 13.833 -145.167 41.5 -189.5s67.5 -66.5 119.5 -66.5c12.667 0 23.5 -8.83301 32.5 -26.5s12.833 -33.167 11.5 -46.5z" />
    <glyph glyph-name="parenright" unicode=")" horiz-adv-x="454" 
d="M397 446c0 -80 -32.334 -179.002 -97.001 -297.002c-67.333 -123.333 -127.666 -185 -180.999 -185c-21.333 0 -32 12.333 -32 37c44 70 83.333 142.333 118 217c38.667 82.667 58 163.334 58 242.001c0 32 -4.33301 63.5 -13 94.5s-21 58.833 -37 83.5
c-7.33301 10.667 -26 27.334 -56 50.001c-23.333 17.333 -35 33 -35 47c0 16 11.333 36 34 60s42.667 36 60 36c40.667 0 78.667 -28.667 114 -86c44.667 -73.333 67 -173 67 -299z" />
    <glyph glyph-name="asterisk" unicode="*" horiz-adv-x="691" 
d="M718 535c0.666992 -3.33301 1 -8.33008 1 -14.9971c0 -14.667 -3.33301 -26.667 -10 -36s-17.334 -14 -32.001 -14c-10.667 0 -21.834 1.66699 -33.501 5s-26.167 10 -43.5 20l8 -47c2.66699 -16 4 -31 4 -45c0 -16.667 -2.5 -29.834 -7.5 -39.501
s-13.5 -14.5 -25.5 -14.5c-10 0 -24 7.66699 -42 23c-21.333 18 -34.333 36.667 -39 56c-6.66699 -32 -17 -59 -31 -81c-17.333 -26.667 -36.666 -40 -57.999 -40c-11.333 0 -19.166 3.66699 -23.499 11s-6.5 18 -6.5 32c0 9.33301 1.33301 23 4 41s4 29.667 4 35
c-17.333 -22.667 -36.333 -44.667 -57 -66c-55.333 -58 -97.333 -87 -126 -87c-12 0 -24 4.5 -36 13.5s-18 18.833 -18 29.5c0 6.66699 14.333 25.667 43 57c21.333 23.333 55.666 58.666 102.999 105.999c-25.333 2.66699 -50.666 5.66699 -75.999 9
c-28 6.66699 -42 22.334 -42 47.001c0 31.333 24.333 56.333 73 75c16 6 40.333 12.333 73 19c-8 13.333 -25.333 32.666 -52 57.999c-21.333 20 -32 35.667 -32 47c0 12 13.667 33 41 63c16 17.333 28.667 26 38 26c18 0 41.667 -14.667 71 -44
c18 -18 37.667 -40.667 59 -68l26 51c12.667 20.667 26.667 31 42 31c16 0 27.333 -7 34 -21l16 -44c14 16 22 24.667 24 26c5.33301 3.33301 11.666 5 18.999 5c14 0 24 -3.66699 30 -11s9 -15.666 9 -24.999c0 -10.667 -5.66699 -24.334 -17 -41.001
s-25.666 -32.667 -42.999 -48c35.333 0 64.833 -8.83301 88.5 -26.5s37.167 -41.834 40.5 -72.501z" />
    <glyph glyph-name="plus" unicode="+" horiz-adv-x="883" 
d="M881 411c0 -28 -7.16895 -49.8311 -21.502 -65.498s-35.166 -23.5 -62.499 -23.5c-4 0 -18.333 -0.666992 -43 -2s-45.667 -2 -63 -2c-19.333 0 -42.833 -1.5 -70.5 -4.5l-76.5 -8.5c-8 -50.667 -13.167 -88.5 -15.5 -113.5s-3.5 -48.5 -3.5 -70.5
c0 -46.667 -4.66699 -77 -14 -91c-15.333 -23.333 -51 -35 -107 -35c-16 0 -27.333 7 -34 21s-10 31 -10 51s6.33301 62.333 19 127c4 21.333 10.333 51.666 19 90.999c-41.333 -9.33301 -73.666 -16 -96.999 -20c-72.667 -14 -122.334 -21 -149.001 -21
c-7.33301 0 -15.666 0.666992 -24.999 2s-20.166 5.66602 -32.499 12.999s-18.5 17.333 -18.5 30c0 48 66.667 87 200 117c48.667 10.667 100.667 19.334 156 26.001c5.33301 56.667 15.333 102.667 30 138c22.667 54.667 55.334 82 98.001 82
c12 0 20.5 -3.83301 25.5 -11.5s7.5 -18.834 7.5 -33.501c0 -9.33301 -3.33301 -37.666 -10 -84.999c-3.33301 -24 -5 -42.333 -5 -55c79.333 0 130.666 0.666992 153.999 2s42.666 2.66602 57.999 3.99902c23.333 0 44.333 -5.16699 63 -15.5s28 -25.833 28 -46.5z" />
    <glyph glyph-name="comma" unicode="," horiz-adv-x="431" 
d="M260 130c0 -66.667 -16.668 -140.667 -50.001 -222c-42.667 -104.667 -95.667 -157 -159 -157c-3.33301 0 -7.16602 4.33301 -11.499 13s-6.5 14.667 -6.5 18l59 141c17.333 43.333 26 86 26 128c4 36.667 12.667 68 26 94c17.333 33.333 40 50 68 50
c15.333 -1.33301 26 -5.33301 32 -12c10.667 -12 16 -29.667 16 -53z" />
    <glyph glyph-name="hyphen" unicode="-" horiz-adv-x="764" 
d="M682 288c0 -20.667 -8.49902 -39.166 -25.499 -55.499s-36.833 -24.5 -59.5 -24.5c-4 1.33301 -7.33301 2.66602 -10 3.99902c-22.667 10 -51.667 18 -87 24l-347 -44c-18.667 0 -34.167 3.5 -46.5 10.5s-18.5 17.5 -18.5 31.5c0 28 37.667 53.667 113 77
c58 18 129.667 32.5 215 43.5s145.666 16.5 180.999 16.5c36 0 59.167 -5.5 69.5 -16.5s15.5 -33.167 15.5 -66.5z" />
    <glyph glyph-name="period" unicode="." horiz-adv-x="397" 
d="M260 68c0 -13.333 -9.49902 -27.167 -28.499 -41.5s-38.833 -21.5 -59.5 -21.5c-20 0 -42.333 15 -67 45s-37 56 -37 78c0 16 12.667 35 38 57s46.666 33 63.999 33c16 0 34.333 -15.333 55 -46c23.333 -34 35 -68.667 35 -104z" />
    <glyph glyph-name="slash" unicode="/" horiz-adv-x="469" 
d="M531 834c0 -1.33301 -9.33398 -18.668 -28.001 -52.001c-23.333 -41.333 -48.666 -92.333 -75.999 -153c-40 -88.667 -77.833 -183.5 -113.5 -284.5l-104.5 -297.5c-36 -94 -78.667 -141 -128 -141c-12 0 -21.667 5.5 -29 16.5s-11 24.5 -11 40.5
c6 19.333 12.333 38.333 19 57c22.667 64.667 42.334 118.334 59.001 161.001c24 61.333 58.333 142.666 103 243.999c90 204.667 151.333 334.334 184 389.001c29.333 48.667 57.666 73 84.999 73c13.333 0 23.333 -5.16699 30 -15.5s10 -22.833 10 -37.5z" />
    <glyph glyph-name="zero" unicode="0" horiz-adv-x="552" 
d="M604 483c0 -103.333 -45.333 -210.834 -136 -322.501s-180.334 -167.5 -269.001 -167.5c-52 0 -93.333 26.667 -124 80c-26.667 46 -40 99 -40 159c0 42 20 97.667 60 167c32.667 56.667 58.334 93.334 77.001 110.001c42 42 79.667 78 113 108
c65.333 58 112.333 87 141 87c56.667 0 101 -21.667 133 -65c30 -40.667 45 -92.667 45 -156zM470 456.999c0 25.333 -7.50098 47.999 -22.501 67.999s-33.5 30 -55.5 30c-10.667 0 -32 -12 -64 -36c-42 -31.333 -76.333 -67.666 -103 -108.999
c-36 -56 -54 -115.333 -54 -178c0 -21.333 3 -41 9 -59c9.33301 -27.333 23.333 -41 42 -41c52.667 0 105.334 29.333 158.001 88c60 67.333 90 146.333 90 237z" />
    <glyph glyph-name="one" unicode="1" horiz-adv-x="357" 
d="M399 640c0 -16.667 -15.833 -60.002 -47.5 -130.002l-94.5 -208c-35.333 -82.667 -55.166 -140.334 -59.499 -173.001s-18 -60 -41 -82s-49.5 -33 -79.5 -33c-20.667 0 -34 4.16699 -40 12.5s-9 22.833 -9 43.5c0 6.66699 17 40.334 51 101.001
c26 46.667 52.333 110.334 79 191.001c31.333 82.667 67 158.667 107 228c37.333 65.333 66.666 98 87.999 98c12 0 22.667 -5.66699 32 -17s14 -21.666 14 -30.999z" />
    <glyph glyph-name="two" unicode="2" horiz-adv-x="516" 
d="M532 73c0 -14.667 -10.3301 -31.334 -30.9971 -50.001s-37 -28 -49 -28c-28 10 -50.667 17.333 -68 22c-52 14.667 -95.667 22 -131 22c-18.667 0 -41.334 -2.66699 -68.001 -8c-66.667 -13.333 -106 -20 -118 -20c-17.333 0 -31.833 5.16699 -43.5 15.5
s-17.5 23.5 -17.5 39.5c0 2.66699 14.667 23.334 44 62.001l98 130c51.333 68 84 112.333 98 133c20.667 28.667 37 54 49 76c22.667 40.667 33 71 31 91c0 14 -0.333008 21.667 -1 23c-2.66699 6 -10 9 -22 9c-6 0 -25.833 -12.5 -59.5 -37.5s-58.167 -37.5 -73.5 -37.5
c-2.66699 0 -8.83398 4.16699 -18.501 12.5s-14.5 13.5 -14.5 15.5c0 32 29.667 68.333 89 109s110.666 61 153.999 61c26.667 0 47.667 -10.333 63 -31c13.333 -18 20 -38.333 20 -61c0 -36.667 -16 -86 -48 -148c-24.667 -47.333 -58.667 -103.333 -102 -168l-95 -140
c11.333 2.66699 25.5 4.66699 42.5 6s32.167 2 45.5 2h33c50.667 0 95.5 -9.5 134.5 -28.5s58.5 -42.833 58.5 -71.5z" />
    <glyph glyph-name="three" unicode="3" horiz-adv-x="589" 
d="M571 333c0 -73.333 -36.3359 -152.998 -109.003 -238.998s-138.667 -129 -198 -129c-45.333 0 -97.333 26 -156 78s-88 97 -88 135c0 12.667 10 30.667 30 54c22.667 26 43 39 61 39c14.667 0 35.334 -29.333 62.001 -88s66.334 -88 119.001 -88c34 0 67 20.833 99 62.5
s48 80.5 48 116.5c0 42.667 -11 70.667 -33 84c-16 10 -46.667 15 -92 15c-10.667 0 -20 3.66699 -28 11s-12 17 -12 29c0 8.66699 5 19.667 15 33s22 24.666 36 33.999l69 49c23.333 18.667 35 36.667 35 54c0 10 -4 17.167 -12 21.5s-19.333 6.5 -34 6.5
c-12 0 -31.333 -2.33301 -58 -7s-45 -7 -55 -7c-16 0 -30.167 4.33301 -42.5 13s-18.5 21 -18.5 37c0 20 13.333 39 40 57c38.667 26.667 96.334 40 173.001 40c31.333 0 61.333 -8.33301 90 -25c33.333 -19.333 50 -43.333 50 -72c0 -50.667 -9.66699 -90 -29 -118
c-6.66699 -10 -24.667 -26.333 -54 -49c24.667 -12 44.667 -27.333 60 -46c21.333 -26.667 32 -60.334 32 -101.001z" />
    <glyph glyph-name="four" unicode="4" horiz-adv-x="578" 
d="M600 302c0 -26.667 -6.50098 -46.166 -19.501 -58.499s-29.833 -18.5 -50.5 -18.5c-14 0 -25.833 0.333008 -35.5 1s-25.5 2.66699 -47.5 6c-5.33301 -11.333 -10.333 -22.666 -15 -33.999c-14 -32.667 -23 -60 -27 -82c-1.33301 -4.66699 -2 -9.66699 -2 -15v-12v-24
c0 -10.667 -1 -18.334 -3 -23.001c-5.33301 -13.333 -14.166 -24 -26.499 -32s-28.166 -12 -47.499 -12c-8.66699 0 -19 6.5 -31 19.5s-18 27.167 -18 42.5c0 35.333 14 92.666 42 171.999c-31.333 -8 -71 -15.167 -119 -21.5s-85.667 -9.5 -113 -9.5
c-11.333 0 -22.5 5.16699 -33.5 15.5s-16.5 21.5 -16.5 33.5c0 24 32.333 81.667 97 173c36 48.667 57 77.334 63 86.001c41.333 59.333 79.333 108.833 114 148.5s57.667 59.5 69 59.5c14 0 25.5 -3.16699 34.5 -9.5s13.5 -14.833 13.5 -25.5
c0 -4.66699 -10.333 -23 -31 -55l-77 -117c-33.333 -52.667 -64 -103.334 -92 -152.001c14.667 0 38.667 2.33301 72 7s57.333 7 72 7c15.333 46 31.666 89.667 48.999 131c26 62.667 48.333 109.667 67 141c26 43.333 48.333 65 67 65c12.667 0 22.167 -5.33301 28.5 -16
s9.5 -24 9.5 -40c0 -10 -19.667 -62 -59 -156c-22.667 -54 -38 -94.333 -46 -121c40 -4.66699 66.333 -10 79 -16c22 -10.667 33 -30 33 -58z" />
    <glyph glyph-name="five" unicode="5" horiz-adv-x="523" 
d="M563 670c0 -31.333 -14.002 -53.333 -42.002 -66c-20.667 -9.33301 -51 -14 -91 -14c-16.667 0 -32 0.333008 -46 1s-27.333 1.33398 -40 2.00098l-35 -48.5c-11.333 -16.333 -20.333 -32.5 -27 -48.5c18 4.66699 36.333 8.16699 55 10.5s41 3.5 67 3.5
c36.667 0 65.667 -10.667 87 -32c26 -26 39 -67 39 -123c0 -70.667 -23.667 -135.667 -71 -195c-38.667 -48.667 -87.667 -88.334 -147 -119.001c-50 -26 -92 -39 -126 -39c-44 0 -84.333 17.333 -121 52c-33.333 31.333 -50 59.666 -50 84.999
c0 11.333 10.833 28.833 32.5 52.5s37.834 35.5 48.501 35.5c10 0 25.333 -14.167 46 -42.5s50 -42.5 88 -42.5c32 0 66.667 16.333 104 49c42.667 37.333 64 77.333 64 120c0 18.667 -3.66699 35 -11 49c-9.33301 18 -23.666 27 -42.999 27c-26 0 -56.333 -5 -91 -15
l-101 -35c-10 0 -20.333 5.66699 -31 17s-16 22.333 -16 33c0 12.667 10 37 30 73c8 14.667 19 33.334 33 56.001l48 74l46 66c15.333 22.667 40.333 37.667 75 45c21.333 4.66699 55 7 101 7c34.667 0 64.167 -2.5 88.5 -7.5s36.5 -15.167 36.5 -30.5z" />
    <glyph glyph-name="six" unicode="6" horiz-adv-x="498" 
d="M495 326c0 -70.667 -41.999 -142.002 -125.999 -214.002c-76 -65.333 -139.333 -98 -190 -98c-22 0 -49.333 11 -82 33c-42 28 -63 60.333 -63 97c0 61.333 21.833 137 65.5 227s94.834 167.333 153.501 232c64 70.667 120 106 168 106c8.66699 0 20 -9.5 34 -28.5
s21 -38.5 21 -58.5c0 -24 -26 -45.333 -78 -64c-35.333 -12.667 -64.333 -28.667 -87 -48c-38 -33.333 -71.833 -79.666 -101.5 -138.999s-44.5 -107.333 -44.5 -144c0 -26.667 6.33301 -45 19 -55c9.33301 -7.33301 23.666 -11 42.999 -11c34.667 0 66 12.667 94 38
s42 51.333 42 78c0 12.667 -4.5 21.334 -13.5 26.001s-21.5 7 -37.5 7c-6 0 -11.833 -0.166992 -17.5 -0.5s-11.5 -0.5 -17.5 -0.5c-16.667 0 -29.167 1.66699 -37.5 5s-12.5 11.666 -12.5 24.999c0 16.667 15 40.334 45 71.001s55 46 75 46
c27.333 0 57.666 -12.333 90.999 -37c38 -28 57 -59 57 -93z" />
    <glyph glyph-name="seven" unicode="7" horiz-adv-x="538" 
d="M614 456c0 -27.333 -6.33398 -46 -19.001 -56c-9.33301 -7.33301 -24.333 -11 -45 -11c-14 0.666992 -24.333 1 -31 1c-23.333 0 -44 -0.333008 -62 -1s-35.333 -2 -52 -4c-9.33301 -30 -23 -69.5 -41 -118.5l-52 -143.5l-28 -79c-16.667 -39.333 -41.667 -59 -75 -59
c-15.333 0 -28.666 4.66699 -39.999 14s-17 20.666 -17 33.999c0 14.667 8.33301 42 25 82c58.667 142 93.334 229 104.001 261c-39.333 -10 -74.333 -17.667 -105 -23s-57 -8 -79 -8c-6.66699 0 -13.334 5.83301 -20.001 17.5s-10 23.167 -10 34.5
c0 50.667 34.667 82.334 104 95.001c49.333 4 98.666 8.33301 147.999 13c5.33301 16 10 35.667 14 59s6.33301 39 7 47c-20 -4.66699 -36.333 -8 -49 -10c-40 -6.66699 -77 -10 -111 -10c-29.333 0 -52 2.66699 -68 8c-24 8 -36 22.333 -36 43c0 34 18 56.667 54 68
c21.333 6.66699 56.333 10 105 10c16.667 0 48.334 2.33301 95.001 7s80.667 7 102 7c19.333 0 32.833 -4.5 40.5 -13.5s11.5 -22.167 11.5 -39.5c0 -18 -3.33301 -41.5 -10 -70.5l-19 -84.5l88 -3c28.667 0 47.667 -5.66699 57 -17s14 -28 14 -50z" />
    <glyph glyph-name="eight" unicode="8" horiz-adv-x="584" 
d="M660 604c0 -57.333 -29.6689 -114.998 -89.002 -172.998c-40 -39.333 -85.333 -72 -136 -98c12.667 -10 24.334 -21.667 35.001 -35c13.333 -16.667 20 -31 20 -43c0 -60 -26.333 -114.333 -79 -163c-46.667 -42.667 -90 -64 -130 -64c-50 0 -99 13 -147 39
c-53.333 28.667 -80 62 -80 100c0 46 31.667 93 95 141c24.667 18.667 53.334 37 86.001 55c-5.33301 9.33301 -13.333 22.166 -24 38.499s-16 28.833 -16 37.5c0 25.333 13.333 57.666 40 96.999c31.333 46 69.333 83.667 114 113c55.333 36 114.333 54 177 54
c26 0 53.333 -8.33301 82 -25c34.667 -20 52 -44.667 52 -74zM525.998 548.002c2 12.667 -2.16797 20.8301 -12.501 24.4971s-27.5 5.5 -51.5 5.5c-35.333 0 -68.666 -10.333 -99.999 -31c-26 -17.333 -39 -30.666 -39 -39.999c0 -7.33301 8.66699 -23.666 26 -48.999
l24 -33c34 16.667 64.333 34.334 91 53.001c38 26.667 58.667 50 62 70zM358.997 186.998c0 16 -6.66602 33.166 -19.999 51.499s-23.333 32.5 -30 42.5c-21.333 -6 -45.333 -18.667 -72 -38s-40.667 -34.333 -42 -45c0 -23.333 7.16699 -38.166 21.5 -44.499
s38.166 -9.5 71.499 -9.5c16 0 31.833 4.33301 47.5 13s23.5 18.667 23.5 30z" />
    <glyph glyph-name="nine" unicode="9" horiz-adv-x="482" 
d="M551 604c0 -26.667 -3.83398 -50.333 -11.501 -71s-26.167 -60.334 -55.5 -119.001c-21.333 -43.333 -47.666 -106 -78.999 -188c-23.333 -61.333 -43.666 -118 -60.999 -170c-6.66699 -19.333 -18 -36.333 -34 -51s-30 -21 -42 -19c-13.333 2 -26.333 7.66699 -39 17
c-14.667 11.333 -22 23.666 -22 36.999c0 30.667 9.33301 61.667 28 93c4 6.66699 14.333 26.334 31 59.001c14.667 28.667 27 51.334 37 68.001c-26.667 -19.333 -50 -33.666 -70 -42.999c-28.667 -13.333 -58.334 -20 -89.001 -20c-28 0 -53 6.66699 -75 20
c-28.667 17.333 -43 41.333 -43 72c0 75.333 43.833 158.166 131.5 248.499s166.5 135.5 236.5 135.5c10.667 0 19.834 -5 27.501 -15s15.5 -19.667 23.5 -29c7.33301 10 17.333 18.167 30 24.5s24 9.5 34 9.5c15.333 0 26.166 -5 32.499 -15s9.5 -24.667 9.5 -44z
M379.999 522.001c-10.667 8 -21.001 13.834 -31.001 17.501s-19.333 5.5 -28 5.5c-31.333 0 -66.666 -23.333 -105.999 -70s-59 -86.334 -59 -119.001c0 -8 2.66699 -14.333 8 -19s14 -7 26 -7c26.667 0 51.667 12.333 75 37l38 41c16 15.333 33.667 39 53 71
c6 10 14 24.333 24 43z" />
    <glyph glyph-name="colon" unicode=":" 
d="M337 409c0 -24 -6.83301 -43.5 -20.5 -58.5s-31.834 -23.5 -54.501 -25.5c-25.333 0 -46.166 9.83301 -62.499 29.5s-24.5 43.167 -24.5 70.5c2 24 11 44 27 60s36 24 60 24c22 0 40 -10.333 54 -31s21 -43.667 21 -69zM274 112c0 -24 -11.168 -44.001 -33.501 -60.001
s-45.166 -24 -68.499 -24c-25.333 0 -45 8.33301 -59 25s-21 37.334 -21 62.001s9.5 45.167 28.5 61.5s41.5 24.5 67.5 24.5c24 0 44.333 -8.66699 61 -26s25 -38.333 25 -63z" />
    <glyph glyph-name="semicolon" unicode=";" horiz-adv-x="357" 
d="M271 370c0 -20 -6.83105 -38.167 -20.498 -54.5s-29.167 -24.5 -46.5 -24.5c-26 0 -48.833 5 -68.5 15s-30.834 25.667 -33.501 47c-3.33301 23.333 4.16699 43.833 22.5 61.5s40.166 26.5 65.499 26.5c22 0 41 -6.66699 57 -20s24 -30.333 24 -51zM221.002 60
c0 -30.667 -3.66699 -60.002 -11 -88.002c-10 -38 -26.333 -70.667 -49 -98c-19.333 -24 -37.333 -43.333 -54 -58c-21.333 -18 -39.333 -27 -54 -27c-10 0 -17.833 4.66699 -23.5 14s-8.5 20 -8.5 32c0 14 7 33.333 21 58c17.333 30 28 55 32 75
c5.33301 38.667 11 77.334 17 116.001c10.667 40 34 60 70 60c16 0 30 -10.667 42 -32s18 -38.666 18 -51.999z" />
    <glyph glyph-name="less" unicode="&#x3c;" horiz-adv-x="524" 
d="M456 35c-20.667 0 -54.168 14.667 -100.501 44l-137.5 89l-134 80c-44 29.333 -66 56 -66 80c-0.666992 8 18.666 24 57.999 48l121 73c68.667 50.667 115.834 84.5 141.501 101.5s45.167 25.5 58.5 25.5c18 0 29.333 -1.66699 34 -5c9.33301 -6 14 -20 14 -42
c0 -28 -32.333 -64.333 -97 -109l-148 -94l106 -71c59.333 -40 103 -71 131 -93c42.667 -33.333 64 -56 64 -68c0 -19.333 -2.66699 -33.333 -8 -42c-7.33301 -11.333 -19.666 -17 -36.999 -17z" />
    <glyph glyph-name="equal" unicode="=" horiz-adv-x="634" 
d="M536 349c0 -19.333 -12.167 -39.667 -36.5 -61s-50.5 -32 -78.5 -32c-14 0 -25 4.33301 -33 13s-16.667 13.667 -26 15c-8 1.33301 -25 -0.666992 -51 -6c-66.667 -13.333 -109.667 -20 -129 -20c-20 0 -35.5 3 -46.5 9s-16.5 16.333 -16.5 31c0 24 37 45.667 111 65
c50.667 12 89 21.333 115 28s50.833 12 74.5 16s44.167 6 61.5 6c19.333 0 33.333 -6.16699 42 -18.5s13 -27.5 13 -45.5zM548 174.999c0 -20 -10.666 -43.333 -31.999 -70c-24 -30 -49.667 -45 -77 -45c-6 0 -16 5.66699 -30 17s-26.667 17 -38 17
c-40 -8 -70.333 -13.667 -91 -17c-62 -11.333 -97 -17 -105 -17c-23.333 0 -39.5 3 -48.5 9s-13.5 17.667 -13.5 35c0 10 7.66699 21.333 23 34s31.333 21.667 48 27l167 28l93 17c15.333 2.66699 28.666 4 39.999 4c18 0 33.167 -3 45.5 -9s18.5 -16 18.5 -30z" />
    <glyph glyph-name="greater" unicode="&#x3e;" horiz-adv-x="469" 
d="M488 312c0 -32 -20.999 -57.6689 -62.999 -77.002c-68 -31.333 -111.333 -54.666 -130 -69.999c-16 -13.333 -43 -37.666 -81 -72.999c-60.667 -56.667 -99.334 -85 -116.001 -85c-14 0 -28.333 6 -43 18c-18 14.667 -27 32 -27 52c0 15.333 35.167 53 105.5 113
s129.833 102 178.5 126c-49.333 40 -95 79.667 -137 119c-56.667 53.333 -85 88.666 -85 105.999c0 40 15.667 60 47 60c24 2 54 -13 90 -45l106 -96c4.66699 -4 29.667 -21 75 -51c53.333 -35.333 80 -67.666 80 -96.999z" />
    <glyph glyph-name="question" unicode="?" horiz-adv-x="464" 
d="M555 706c0 -53.333 -24 -101.334 -72 -144.001c-58.667 -41.333 -98.167 -69.833 -118.5 -85.5s-35.833 -36.167 -46.5 -61.5s-16 -57.333 -16 -96c0 -30.667 -5.16699 -52.834 -15.5 -66.501s-29.833 -20.5 -58.5 -20.5c-22 0 -37 10.333 -45 31
c-5.33301 14 -8 34 -8 60c0 40 13.333 80 40 120c19.333 29.333 49.333 63 90 101l93 68c13.333 14.667 20 36.334 20 65.001c0 20.667 -7.5 37 -22.5 49s-31.167 18 -48.5 18c-28 0 -53 -14.667 -75 -44s-40 -44 -54 -44c-15.333 0 -26.333 7.16699 -33 21.5
s-10 31.833 -10 52.5c0 40 21 70.5 63 91.5s93.667 31.5 155 31.5c50 0 90 -14.667 120 -44c28 -27.333 42 -61.666 42 -102.999zM242 80.999c0 -25.333 -5.66699 -42.832 -17 -52.499s-30.333 -14.5 -57 -14.5c-21.333 2 -34.833 8.16699 -40.5 18.5s-8.5 27.833 -8.5 52.5
c0 21.333 7.16699 41.166 21.5 59.499s31.833 27.5 52.5 27.5c16 0 28.167 -9.83301 36.5 -29.5s12.5 -40.167 12.5 -61.5z" />
    <glyph glyph-name="A" unicode="A" horiz-adv-x="601" 
d="M659 424c0 -33.333 -16.0029 -56.999 -48.0029 -70.999c-39.333 -10 -65.666 -17.333 -78.999 -22l-3 -101c10.667 -10 20.334 -20.833 29.001 -32.5s13 -24.167 13 -37.5c0 -26 -11.333 -59.333 -34 -100c-30 -54 -66.333 -81 -109 -81c-25.333 0 -42 10 -50 30
c-4.66699 11.333 -7 29.333 -7 54c0 1.33301 5.66699 43 17 125c6 43.333 9 83.333 9 120c-44 -17.333 -70.667 -28 -80 -32c-16 -6.66699 -32 -14.667 -48 -24l-39 -53c-29.333 -39.333 -49.333 -69 -60 -89c-25.333 -46.667 -40.666 -73.334 -45.999 -80.001
c-17.333 -22.667 -37.333 -34 -60 -34l-24 18c-16 14 -24 25.667 -24 35l40 83c35.333 68 86 157.333 152 268c85.333 141.333 145.333 233 180 275c25.333 30.667 49 46 71 46c28.667 0 47.667 -11 57 -33c6.66699 -15.333 10 -40.333 10 -75v-36c0 -12 1.33301 -27 4 -45
s4 -32 4 -42c0 -14 -1 -25 -3 -33c18 4 36.667 6 56 6c22.667 0 40.667 -3 54 -9s19.333 -16 18 -30zM329.997 407.001c6.66699 2.66699 16.5 5.16797 29.5 7.50098s26.167 4.83301 39.5 7.5c-1.33301 7.33301 -2.33301 21.5 -3 42.5s-2.66699 37.5 -6 49.5
c-6 -9.33301 -16 -26.333 -30 -51s-24 -43.334 -30 -56.001z" />
    <glyph glyph-name="B" unicode="B" horiz-adv-x="606" 
d="M594 603c0 -47.333 -11.999 -90.0029 -35.999 -128.003c-30 -37.333 -50 -62.666 -60 -75.999c25.333 -11.333 43 -22.666 53 -33.999c18 -20.667 27 -51 27 -91c0 -90 -36 -165 -108 -225c-68.667 -57.333 -151.334 -86 -248.001 -86c-54.667 0 -104 11.5 -148 34.5
s-66 50.5 -66 82.5c0 9.33301 5.5 18.833 16.5 28.5s21.833 14.5 32.5 14.5c-3.33301 6 -5 14 -5 24c0 20 8 48 24 84l42 90c17.333 40 34 80.333 50 121l39 99l-56 21c-13.333 6.66699 -20 15.667 -20 27c0 24.667 16 48.334 48 71.001c40 28.667 93 43 159 43
c67.333 0 116 -3 146 -9c73.333 -14.667 110 -45 110 -91zM449.001 542.997c1.33301 7.33301 -2.66699 13 -12 17s-21.333 6 -36 6c-11.333 0 -20.833 -0.666992 -28.5 -2s-19.834 -3.66602 -36.501 -6.99902l-54 -129c66.667 17.333 101.667 26.666 105 27.999
c34.667 16 55.334 45 62.001 87zM452.001 196.997c0.666992 4 0.998047 8.33398 0.998047 13.001v10c0 29.333 -9.33301 51.666 -28 66.999c-15.333 12.667 -40 21.667 -74 27c-23.333 2.66699 -53.666 4 -90.999 4h-15c-10 -62 -24.667 -113.333 -44 -154
c-7.33301 -16.667 -11.666 -26 -12.999 -28c-6 -8 -16.667 -16 -32 -24c17.333 -9.33301 33.833 -15.5 49.5 -18.5s39.5 -4.5 71.5 -4.5c54 0 97.333 12.667 130 38c26 20.667 41 44 45 70z" />
    <glyph glyph-name="C" unicode="C" horiz-adv-x="507" 
d="M528 634c0 -18.667 -7.00098 -38.332 -21.001 -58.999c-16.667 -24.667 -36 -37 -58 -37c-3.33301 0 -11.333 4 -24 12s-25.667 12 -39 12c-56 0 -104.667 -31.667 -146 -95c-53.333 -82 -80 -155.667 -80 -221c2 -13.333 3.66699 -23 5 -29c6 -20 13.667 -30 23 -30
c18 0 65 16 141 48s118 48 126 48c18 0 29.167 -2.83301 33.5 -8.5s6.5 -16.167 6.5 -31.5c0 -40 -30.667 -79.333 -92 -118c-46.667 -29.333 -106 -56 -178 -80c-58.667 -19.333 -97 -29 -115 -29c-27.333 0 -50 16.167 -68 48.5s-27 72.166 -27 119.499
s15.333 109.333 46 186c35.333 89.333 79.333 162 132 218c66 70.667 136.667 106 212 106c16.667 0 41.334 -7 74.001 -21s49 -27 49 -39z" />
    <glyph glyph-name="D" unicode="D" horiz-adv-x="571" 
d="M222 16c-46.667 0 -82.668 11.001 -108.001 33.001s-38 53 -38 93c0 18.667 15.333 67 46 145l114 273c-7.33301 -3.33301 -22.666 -9 -45.999 -17c-18 -6 -34.167 -13 -48.5 -21s-37.833 -26 -70.5 -54c-14 -12 -22 -18 -24 -18c-16.667 0 -30 5.66699 -40 17
s-15 24 -15 38c0 30.667 33.333 67.667 100 111c72.667 46.667 142 70 208 70c12 0 24 -1 36 -3c72.667 -10 136 -38.833 190 -86.5s81 -100.5 81 -158.5c0 -42.667 -18.667 -97.334 -56 -164.001c-40 -71.333 -87 -130 -141 -176c-64 -54.667 -126.667 -82 -188 -82z
M492.999 408.001c0 51.333 -20.667 91.334 -62 120.001c-13.333 9.33301 -34 18.666 -62 27.999c-7.33301 -22 -37 -99 -89 -231c-21.333 -54.667 -35 -93.334 -41 -116.001c-2 -8.66699 -3.66699 -16.167 -5 -22.5s-2 -11.833 -2 -16.5c0 -11.333 4.66699 -17 14 -17
c50.667 0 104.5 30.833 161.5 92.5s85.5 115.834 85.5 162.501z" />
    <glyph glyph-name="E" unicode="E" horiz-adv-x="542" 
d="M629 625c0 -48.667 -35.3301 -81.001 -105.997 -97.001l-249 -20c0 -22 -4.66699 -45.667 -14 -71c-2.66699 -7.33301 -9 -22.666 -19 -45.999c6 0 30.333 2.66699 73 8s75 8 97 8c22.667 0 38.667 -2 48 -6s14 -13 14 -27c0 -50 -29.667 -82.667 -89 -98
c-33.333 -8.66699 -90 -13 -170 -13c-5.33301 -13.333 -10.333 -27.666 -15 -42.999l-13 -43c18.667 4.66699 41.667 9.16699 69 13.5s55.333 6.5 84 6.5c51.333 0 83.666 -1.33301 96.999 -4c34 -6.66699 51 -22.667 51 -48c0 -33.333 -9.66699 -57.333 -29 -72
c-13.333 -10 -31 -15 -53 -15c-7.33301 0 -13 0.333008 -17 1s-7.33301 1.33398 -10 2.00098c-38.667 0 -85.334 -5.66699 -140.001 -17l-150 -38c-15.333 0 -29 5.66699 -41 17s-18 22.666 -18 33.999c0 8.66699 10.667 54.334 32 137.001l55 210c10 40 23 73 39 99
c20 32 42 48 66 48c13.333 31.333 26.666 51.666 39.999 60.999c36 24.667 101.333 37 196 37h60c39.333 0 67.833 -1.33301 85.5 -4s26.5 -9.33398 26.5 -20.001z" />
    <glyph glyph-name="F" unicode="F" horiz-adv-x="567" 
d="M691 590c0 -30 -6.66797 -52.667 -20.001 -68c-16 -18 -40.667 -27 -74 -27c-18.667 0 -41 7.16699 -67 21.5s-51 21.5 -75 21.5c-29.333 0 -58.333 -6 -87 -18c-36.667 -15.333 -63.334 -37.666 -80.001 -66.999c-4 -7.33301 -8.66699 -20.666 -14 -39.999
c-2.66699 -9.33301 -5 -16 -7 -20c8.66699 0.666992 36 4 82 10c26 3.33301 56.667 5 92 5h28c34.667 0 58.334 -2.33301 71.001 -7c20.667 -8 31 -23.333 31 -46c0 -34 -8.33301 -57 -25 -69c-12.667 -9.33301 -33.667 -14 -63 -14c-5.33301 0 -14.666 0.333008 -27.999 1
s-23.666 1 -30.999 1h-199l-46 -197c0 -26 -7 -44.667 -21 -56s-34 -17 -60 -17c-23.333 0 -40.833 8 -52.5 24s-17.5 34.667 -17.5 56s7 50.333 21 87c41.333 110 65.333 178.333 72 205c22.667 97.333 47.667 165.666 75 204.999c23.333 34 50.666 51 81.999 51
c4 0 10.333 -3 19 -9c14 -10 22 -15.333 24 -16c17.333 18 36.666 31.333 57.999 40c34.667 14 82.667 21 144 21c44.667 0 83.834 -6.83301 117.501 -20.5s50.5 -32.834 50.5 -57.501z" />
    <glyph glyph-name="G" unicode="G" horiz-adv-x="507" 
d="M463 292c0 -11.333 -7.16895 -43.333 -21.502 -96l-43 -156.5c-14.333 -51.667 -21.5 -81.167 -21.5 -88.5c0 -6 6.16699 -12.5 18.5 -19.5s18.5 -16.833 18.5 -29.5c0 -23.333 -13 -41.666 -39 -54.999c-20 -10 -40.333 -15 -61 -15
c-15.333 0 -28.666 6.83301 -39.999 20.5s-17 26.167 -17 37.5c0 38.667 4.5 74.334 13.5 107.001l26.5 94c-39.333 -26 -60.333 -39.667 -63 -41c-26.667 -14.667 -51 -22 -73 -22c-46.667 0 -81.334 11 -104.001 33c-19.333 19.333 -29 45.333 -29 78
c0 39.333 15.333 98.666 46 177.999c35.333 91.333 77.333 166.666 126 225.999c60.667 74 123 111 187 111c27.333 0 51.333 -5.16699 72 -15.5s31 -23.166 31 -38.499c0 -22.667 -8.33301 -41 -25 -55s-35.667 -21 -57 -21c-39.333 0 -71.666 -7 -96.999 -21
c-21.333 -11.333 -37 -27.333 -47 -48c-37.333 -71.333 -63.333 -124 -78 -158c-20 -46.667 -28.333 -79.667 -25 -99c4.66699 -15.333 9.33398 -23 14.001 -23c32 0 65.333 11.667 100 35s55.334 47.666 62.001 72.999c4.66699 18.667 8.66699 31 12 37
c9.33301 17.333 25.666 26 48.999 26c43.333 0 65 -18 65 -54z" />
    <glyph glyph-name="H" unicode="H" horiz-adv-x="577" 
d="M640 603c0 -29.333 -12.665 -78.333 -37.998 -147c-7.33301 -20 -31.333 -80.667 -72 -182c-26.667 -66.667 -40 -106.667 -40 -120c0 -5.33301 3.33301 -13.666 10 -24.999s10 -21.333 10 -30c0 -25.333 -8.66699 -46 -26 -62c-22 -20 -55 -30 -99 -30
c-17.333 0 -32 5.33301 -44 16s-18 23.667 -18 39c0 18 18 67 54 147c22.667 50 38.667 88.667 48 116c-38.667 -8 -78 -18.333 -118 -31c-24 -7.33301 -52.667 -17.333 -86 -30c-10.667 -26.667 -18.334 -45.334 -23.001 -56.001c-8 -18.667 -14.667 -31 -20 -37
c11.333 -17.333 17.666 -28 18.999 -32c4.66699 -10.667 7 -23 7 -37c0 -19.333 -9.66699 -41 -29 -65c-24.667 -30.667 -55 -46 -91 -46c-18 0 -34.167 6.16699 -48.5 18.5s-21.5 26.833 -21.5 43.5c0 12.667 13.667 50 41 112c20.667 46.667 35.334 81.334 44.001 104.001
c0.666992 6.66699 -2.33301 15.5 -9 26.5s-10 19.833 -10 26.5c0 14 6.66699 28 20 42c11.333 11.333 21.333 24.666 30 39.999c15.333 70.667 35 131.667 59 183c27.333 58.667 52.333 88 75 88c9.33301 0 19.5 -5.83301 30.5 -17.5s16.5 -22.5 16.5 -32.5l-13 -48
c-24 -84.667 -38.333 -136.667 -43 -156l127.5 28c42.333 9.33301 75.166 18 98.499 26c10 51.333 19.333 92 28 122c17.333 56.667 50.333 85 99 85c13.333 0 22.333 -4.16699 27 -12.5s7 -19.5 7 -33.5c0 -4.66699 -0.333008 -11 -1 -19s-1 -12.667 -1 -14z" />
    <glyph glyph-name="I" unicode="I" horiz-adv-x="335" 
d="M307 592c0 -35.333 -6.66797 -78 -20.001 -128c-25.333 -96 -38.333 -145 -39 -147c-14 -66.667 -21 -133 -21 -199c0 -26 -9.33301 -46 -28 -60l-41.5 -26.5c-10.333 -6.33301 -21.833 -9.5 -34.5 -9.5c-15.333 0 -28.666 4.16699 -39.999 12.5s-17 20.5 -17 36.5
l19 102c15.333 78 30.5 146.167 45.5 204.5l44.5 173.5c24 72.667 52.333 109 85 109c16.667 0 28.667 -7 36 -21s11 -29.667 11 -47z" />
    <glyph glyph-name="J" unicode="J" horiz-adv-x="581" 
d="M701 589c0 -26 -7.66797 -47.999 -23.001 -65.999s-34 -27 -56 -27c-14 0 -26 1.33301 -36 4c-25.333 6.66699 -41.333 10 -48 10c-12.667 -20.667 -23.334 -41.334 -32.001 -62.001c-10.667 -26 -20.334 -58.667 -29.001 -98c-14 -67.333 -27.333 -122.333 -40 -165
c-17.333 -58.667 -34.666 -103.334 -51.999 -134.001c-20.667 -36.667 -42.667 -55 -66 -55c-10 0 -41.333 7.66699 -94 23c-71.333 20.667 -128.666 44 -171.999 70c-62 36.667 -93 76.334 -93 119.001c0 11.333 9 26.333 27 45c22.667 23.333 49.334 35 80.001 35
c19.333 0 33 -2.83301 41 -8.5s12 -12.5 12 -20.5c0 -6.66699 -1.66699 -13.667 -5 -21c-0.666992 -2 -2.66699 -5 -6 -9c0 -11.333 20.333 -25.333 61 -42c34 -14 74.667 -25.667 122 -35c15.333 30 29.166 69.833 41.499 119.5s25 96.667 38 141s22.833 72.833 29.5 85.5
c-17.333 -3.33301 -33.5 -6 -48.5 -8s-29.833 -3 -44.5 -3c-29.333 0 -51.333 3 -66 9c-20 8 -30 22 -30 42c0 32 18.833 55.5 56.5 70.5s87.5 22.5 149.5 22.5c16.667 0 56.334 3.33301 119.001 10c20.667 2 50.334 5.33301 89.001 10c15.333 0 31.666 -6.5 48.999 -19.5
s26 -27.167 26 -42.5z" />
    <glyph glyph-name="K" unicode="K" horiz-adv-x="648" 
d="M720 543c0 -28 -14.333 -48.0049 -43 -60.0049l-59.5 -21.5c-15.667 -5.66699 -46.5 -19.5 -92.5 -41.5l-100 -49l71 -107c36.667 -53.333 65 -84.666 85 -93.999c15.333 -6.66699 25.333 -15.5 30 -26.5s7 -26.167 7 -45.5c0 -22.667 -9.5 -41.5 -28.5 -56.5
s-41.5 -22.5 -67.5 -22.5c-4.66699 0.666992 -8.33398 1 -11.001 1c-27.333 2.66699 -68.333 46 -123 130c-4.66699 7.33301 -37.667 62.666 -99 165.999c-11.333 -7.33301 -20 -12.666 -26 -15.999s-17.333 -8.33301 -34 -15l-27 -50c-10 -19.333 -19 -38 -27 -56
c-4 -10 -6 -20.667 -6 -32c0 -6.66699 0.333008 -14.5 1 -23.5s1.66699 -18.833 3 -29.5c0 -6 -0.333008 -10.333 -1 -13c-4 -21.333 -16 -38.166 -36 -50.499s-41.667 -18.5 -65 -18.5c-18 -2 -33.5 4.16699 -46.5 18.5s-19.5 31.5 -19.5 51.5c0 10 7.33301 34 22 72
c48 124.667 76.333 200.334 85 227.001c32.667 106 64.334 181.333 95.001 226c22.667 32.667 43.334 47.667 62.001 45c11.333 -2 21.333 -7.66699 30 -17s13.667 -19.666 15 -30.999c0 -18 -5.66699 -45 -17 -81l-33 -103c73.333 44.667 154.666 88.334 243.999 131.001
c76.667 36.667 126 55 148 55c42.667 0 64 -21 64 -63z" />
    <glyph glyph-name="L" unicode="L" horiz-adv-x="532" 
d="M544 124c0 -37.333 -11.667 -62.665 -35 -75.998c-17.333 -10 -45.333 -15 -84 -15c-28 0 -89.333 -7 -184 -21s-146.667 -21 -156 -21c-12.667 -2 -28.834 1.16699 -48.501 9.5s-29.5 19.166 -29.5 32.499c0 12 11 48.667 33 110
c47.333 131.333 71.666 199.333 72.999 204c26.667 78.667 50 138 70 178c36.667 74 70.667 111 102 111c18.667 0 30.834 -1.83301 36.501 -5.5s8.5 -9.83398 8.5 -18.501c-0.666992 -6.66699 -1 -11.667 -1 -15c0 -12 -11.667 -50.333 -35 -115l-70.5 -188
c-33.667 -88 -51.167 -134 -52.5 -138c38.667 0 81.334 3 128.001 9l142 19c21.333 0 42 -4.33301 62 -13c27.333 -12 41 -27.667 41 -47z" />
    <glyph glyph-name="M" unicode="M" horiz-adv-x="861" 
d="M846 84c0 -24 -10.833 -43.835 -32.5 -59.502s-48.834 -23.5 -81.501 -23.5c-19.333 0 -35 8.16699 -47 24.5s-18 38.166 -18 65.499c-0.666992 6.66699 -1 13.834 -1 21.501v17.5c0 24 1.5 56.333 4.5 97s4.5 65 4.5 73v20v14c0 6 -0.333008 12.833 -1 20.5
s-2 15.5 -4 23.5l-78 -113c-47.333 -66.667 -87 -117.334 -119 -152.001c-46.667 -50.667 -83 -76 -109 -76c-25.333 0 -43 12 -53 36c-7.33301 17.333 -11 44.333 -11 81c0 19.333 1.66699 45 5 77s5 51.667 5 59l-93 -140l-93 -136l-36 -55
c-14.667 -19.333 -31 -28 -49 -26c-14.667 2 -27.334 7.5 -38.001 16.5s-16 19.5 -16 31.5c0 22.667 3.33301 40.667 10 54l24 35c42 54.667 73.333 98 94 130c26.667 40 60.667 97.333 102 172c62.667 110 108.667 183.333 138 220c26 32.667 49.667 49 71 49
c18.667 0 31.834 -9.5 39.501 -28.5s11.5 -46.5 11.5 -82.5c0 -21.333 -4.33301 -73.333 -13 -156c-4 -38 -6 -61.333 -6 -70c0 -8 4 -12 12 -12c4 0 28 30.667 72 92c52 72.667 94.667 129.334 128 170.001c50.667 62 85 93 103 93c26.667 0 45.334 -11 56.001 -33
c8 -16.667 12 -39.667 12 -69c0 -36 -4 -77 -12 -123c-18.667 -107.333 -28 -174.666 -28 -201.999c0 -41.333 7.83301 -68.166 23.5 -80.499s23.5 -30.833 23.5 -55.5z" />
    <glyph glyph-name="N" unicode="N" horiz-adv-x="718" 
d="M887 628c0 -26.667 -16.502 -53.833 -49.502 -81.5s-54.833 -46.834 -65.5 -57.501c-20 -20.667 -38 -42.667 -54 -66c-18 -26.667 -35.333 -57.667 -52 -93c-32.667 -70.667 -77.667 -139 -135 -205c-60 -69.333 -106.667 -104 -140 -104
c-28.667 0 -48.667 10.667 -60 32s-17 56.666 -17 105.999c0 23.333 2.66699 67.333 8 132s8 104.667 8 120c-16.667 -23.333 -35.667 -53.666 -57 -90.999c-27.333 -48 -48 -89 -62 -123l-16 -37c-5.33301 -12.667 -8 -33.334 -8 -62.001c0 -18 -10.667 -34 -32 -48
c-17.333 -11.333 -32.666 -17 -45.999 -17c-16.667 0 -33.167 5.83301 -49.5 17.5s-24.5 24.5 -24.5 38.5c0 13.333 11.5 45.833 34.5 97.5l45.5 101.5c25.333 58.667 54.666 117.334 87.999 176.001c30 52.667 60.667 101.667 92 147c10 14 23.667 24.5 41 31.5
s36.333 10.5 57 10.5c33.333 0 56.333 -20 69 -60c8.66699 -27.333 13 -66.666 13 -117.999c0 -7.33301 -1.16699 -26.166 -3.5 -56.499s-3.5 -52.833 -3.5 -67.5c0 -10.667 -0.666992 -26 -2 -46s-2 -34 -2 -42v-12c1.33301 -4.66699 2 -8 2 -10l68 98
c20 30 34 52.667 42 68c22 43.333 41.667 79.333 59 108c21.333 35.333 41.333 62.666 60 81.999c28 31.333 52.833 53 74.5 65s42.834 18 63.501 18c16.667 0 29.834 -4.83301 39.501 -14.5s14.5 -22.167 14.5 -37.5z" />
    <glyph glyph-name="O" unicode="O" horiz-adv-x="545" 
d="M624 555c0 -114 -26.334 -217.666 -79.001 -310.999c-45.333 -80.667 -104.666 -145.334 -177.999 -194.001c-66 -44 -128 -66 -186 -66c-32.667 0 -60.334 14 -83.001 42s-34 61 -34 99c0 76 3 131.667 9 167c10 60.667 32.667 122 68 184
c45.333 79.333 93.333 135.333 144 168c35.333 22.667 74 34 116 34c11.333 0 21.5 -0.5 30.5 -1.5l30.5 -3.5c4.66699 18 8.33398 28.333 11.001 31c6 6 15.333 9 28 9c20 0 45.5 -20.167 76.5 -60.5s46.5 -72.833 46.5 -97.5zM490.999 473.001c0 22 -9.5 39.5 -28.5 52.5
s-46.167 19.5 -81.5 19.5c-64.667 0 -117 -52 -157 -156c-29.333 -76 -44 -140 -44 -192c0 -22.667 6 -41.667 18 -57s27 -23 45 -23c70 0 130.333 42 181 126c44.667 74 67 150.667 67 230z" />
    <glyph glyph-name="P" unicode="P" horiz-adv-x="461" 
d="M556 548c0 -50 -22.333 -100.001 -67 -150.001c-48.667 -54 -115 -97.667 -199 -131l-109 -49l-22 -144c-4 -20 -12.833 -35.333 -26.5 -46s-34.167 -16 -61.5 -16c-14 -1.33301 -26.833 4.5 -38.5 17.5s-17.5 28.5 -17.5 46.5l25 83c12 42 21.333 77 28 105
c11.333 46.667 28 102.5 50 167.5l68 195.5c4 10.667 28.333 26.334 73 47.001c51.333 24 95.333 36 132 36c32 0 66 -15 102 -45c42 -34.667 63 -73.667 63 -117zM415 514.999c0 22 -5.33203 37.667 -15.999 47s-29.334 14 -56.001 14c-29.333 0 -52.333 -11.667 -69 -35
c-9.33301 -13.333 -21.333 -40 -36 -80c-12 -31.333 -20.5 -55.333 -25.5 -72s-9.16699 -33.334 -12.5 -50.001c18 6.66699 35.5 13.834 52.5 21.501s33.167 16.5 48.5 26.5c31.333 21.333 56.333 41.333 75 60c26 26 39 48.667 39 68z" />
    <glyph glyph-name="Q" unicode="Q" horiz-adv-x="555" 
d="M593 509c0 -48.667 -2.16699 -88.6641 -6.5 -119.997s-13 -67.333 -26 -108s-36.5 -82.334 -70.5 -125.001c-29.333 -36.667 -53.666 -59.334 -72.999 -68.001c11.333 -42 19.666 -73.667 24.999 -95c16.667 -64.667 25 -101.334 25 -110.001
c0 -18 -9.33301 -39.167 -28 -63.5s-34.667 -35.166 -48 -32.499c-14.667 2.66699 -33.667 35 -57 97l-45 127c-14 -6.66699 -31.833 -12.5 -53.5 -17.5s-42.5 -7.5 -62.5 -7.5c-58 0 -97.333 16.667 -118 50c-15.333 24.667 -23 66 -23 124c0 100.667 30 197.667 90 291
c46.667 72 106.667 136.333 180 193c62 47.333 105.667 71 131 71c68 0 113.667 -22 137 -66c15.333 -28.667 23 -75.334 23 -140.001zM461 435.003l-0.000976562 37.999c0 30 -2.66699 51.333 -8 64c-8 19.333 -23.333 29 -46 29c-20 0 -42.667 -13 -68 -39l-64 -86
c-12 -10 -23 -15 -33 -15c-9.33301 1.33301 -16.666 2.33301 -21.999 3c-21.333 -55.333 -38.333 -103.666 -51 -144.999c-14.667 -48.667 -22 -86.667 -22 -114c0 -8 3.16699 -17.333 9.5 -28s12.5 -16.667 18.5 -18s13 -2 21 -2c22.667 0 43 5.33301 61 16v42
c0 51.333 3 87.333 9 108c9.33301 32 28 48 56 48c32 0 50.667 -9.66699 56 -29c2.66699 -34 7 -65.667 13 -95c20 18 36.667 47.667 50 89s20 86 20 134z" />
    <glyph glyph-name="R" unicode="R" horiz-adv-x="587" 
d="M632 58c0 -20.667 -11.9971 -39.668 -35.9971 -57.001c-20.667 -14.667 -39 -22 -55 -22c-14.667 0 -31 4.33301 -49 13c-25.333 12 -51.333 31 -78 57c-18.667 16.667 -39.667 40.334 -63 71.001l-60 81.5l-43 58.5c-16.667 22.667 -30 43.334 -40 62.001l-29 -170
c-6.66699 -62.667 -18 -103.334 -34 -122.001s-39.333 -28 -70 -28c-12 0 -24.167 3.66699 -36.5 11s-18.5 17 -18.5 29s11.667 70.333 35 175c19.333 88 30.666 139 33.999 153l49 215c6.66699 29.333 17.834 52.833 33.501 70.5s31.167 26.5 46.5 26.5
c12.667 0 23 -1.5 31 -4.5s16.333 -10.5 25 -22.5c14 16.667 31.667 31.667 53 45c25.333 16 47.666 24 66.999 24c47.333 0 82.666 -15 105.999 -45c19.333 -25.333 29 -59.333 29 -102c0 -69.333 -15 -125 -45 -167c-14.667 -20.667 -45.667 -49 -93 -85l66 -92
c19.333 -26 47.333 -56.333 84 -91c9.33301 -8.66699 22.166 -14 38.499 -16s27.833 -7 34.5 -15c12 -14 18 -31.667 18 -53zM397.003 544.999c0 12 -3.66699 21.667 -11 29s-15 11 -23 11c-52.667 0 -90.667 -29.333 -114 -88c-0.666992 -0.666992 -12 -47.667 -34 -141
c49.333 21.333 92 50.333 128 87s54 70.667 54 102z" />
    <glyph glyph-name="S" unicode="S" horiz-adv-x="500" 
d="M535 569c0 -19.333 -4.16895 -36.3359 -12.502 -51.0029s-18.833 -22 -31.5 -22c-7.33301 0 -27.666 11.667 -60.999 35c-16 11.333 -31.333 17 -46 17c-24.667 0 -45.667 -4.83301 -63 -14.5s-26 -25.167 -26 -46.5c0 -14 16.333 -44.333 49 -91
c60 -86 91 -130.333 93 -133c33.333 -52.667 50 -92 50 -118c0 -41.333 -10.833 -74.666 -32.5 -99.999s-46.167 -38 -73.5 -38c-24 0 -49.333 2.66699 -76 8c-35.333 7.33301 -71.333 19.333 -108 36c-45.333 20.667 -84 46.334 -116 77.001s-48 57.334 -48 80.001
c0 20.667 4.83301 40.334 14.5 59.001s20.5 28 32.5 28c22.667 0 37.334 -1 44.001 -3c14.667 -4.66699 22 -15.334 22 -32.001c2 -25.333 25.333 -54 70 -86c41.333 -30 72.333 -45 93 -45c32.667 0 49 12.333 49 37c0 9.33301 -15.333 35.333 -46 78
c-45.333 63.333 -74.333 105.333 -87 126c-31.333 52.667 -47 94 -47 124c0 44 20.333 84.667 61 122s87 56 139 56c26 0 57.333 -10 94 -30c42 -22.667 63 -47 63 -73z" />
    <glyph glyph-name="T" unicode="T" horiz-adv-x="441" 
d="M608 632c0 -22.667 -10.335 -43.999 -31.002 -63.999s-40.667 -30 -60 -30c-8 0 -18 6.66699 -30 20s-24.667 20 -38 20h-75l-56 -201.5c-15.333 -56.333 -27.666 -103.833 -36.999 -142.5c-3.33301 -14.667 -5.5 -29 -6.5 -43s-1.5 -24.667 -1.5 -32v-23.5
c0 -7.66699 0.333008 -15.167 1 -22.5c0 -11.333 -1.33301 -26 -4 -44s-11 -33.667 -25 -47s-29.333 -20 -46 -20c-19.333 0 -37.5 8.5 -54.5 25.5s-25.5 35.833 -25.5 56.5c0 18.667 12 65 36 139c40 123.333 64 198.666 72 225.999l37 117
c-18.667 -6 -51 -12.833 -97 -20.5s-79.667 -11.5 -101 -11.5c-15.333 0 -29.166 4 -41.499 12s-18.5 19.333 -18.5 34c0 40 18.333 64.333 55 73c15.333 4 27 6.66699 35 8c20 4 45 8.33301 75 13c97.333 16 164 26.667 200 32c76.667 12 120 18 130 18
c33.333 0 59.5 -7.5 78.5 -22.5s28.5 -38.167 28.5 -69.5z" />
    <glyph glyph-name="U" unicode="U" horiz-adv-x="670" 
d="M640 92c-2 -20 -12.3359 -38.001 -31.0029 -54.001s-35 -24 -49 -24c-31.333 0 -56.666 18.167 -75.999 54.5s-31.666 85.166 -36.999 146.499c0 9.33301 0.5 22 1.5 38s1.5 26 1.5 30l-111 -107c-56.667 -53.333 -103.667 -94.333 -141 -123
c-52.667 -40 -91.667 -60 -117 -60s-42 11.333 -50 34c-4 11.333 -6 30.333 -6 57c0 12.667 20 82 60 208c23.333 72.667 39 124.334 47 155.001c16 56 33 98.333 51 127c25.333 40 55.666 60 90.999 60c10.667 0 18.834 -2.66699 24.501 -8s7.83398 -12 6.50098 -20
c-1.33301 -10 -10 -42.5 -26 -97.5l-48 -166.5c-16 -56 -24 -87.333 -24 -94v-12c0 -16 4 -24 12 -24c14 1.33301 34.667 16 62 44s63.666 70.333 108.999 127l46 61l45 61c20.667 55.333 34.334 89.666 41.001 102.999c20 38.667 41.667 58 65 58
c20.667 0 36 -6.16699 46 -18.5s15 -26.5 15 -42.5c0 -4.66699 -8 -39 -24 -103c-8 -32 -12 -56.667 -12 -74c0 -23.333 -1 -45.666 -3 -66.999c-5.33301 -57.333 -8 -88.666 -8 -93.999c0 -14.667 1.83301 -32.667 5.5 -54s8.5 -42 14.5 -62s12.333 -39.667 19 -59z" />
    <glyph glyph-name="V" unicode="V" horiz-adv-x="517" 
d="M581 597c0 -24.667 -17.334 -71.999 -52.001 -141.999c-29.333 -60 -65.666 -125.333 -108.999 -196c-31.333 -50.667 -72 -100.667 -122 -150c-60 -59.333 -108.333 -89 -145 -89c-31.333 0 -53.666 18 -66.999 54c-9.33301 26 -14 60 -14 102v26.5
c0 8.33301 0.333008 16.166 1 23.499v263c0 3.33301 -1.33301 7.33301 -4 12c-6 10.667 -9 17.667 -9 21c0 28.667 8.83301 54.5 26.5 77.5s36.167 34.5 55.5 34.5c27.333 0 46 -24.667 56 -74c6.66699 -32.667 10 -82.334 10 -149.001v-62
c0 -35.333 1.83301 -70.166 5.5 -104.499s8.16699 -51.5 13.5 -51.5c23.333 0 50.333 24.667 81 74c26 42 54 98.333 84 169c17.333 47.333 27 74.333 29 81c10 31.333 15 58 15 80c2.66699 24.667 15 42.667 37 54c15.333 8 31.666 12 48.999 12c29.333 0 48 -11 56 -33
c2.66699 -7.33301 3.66699 -18.333 3 -33z" />
    <glyph glyph-name="W" unicode="W" horiz-adv-x="771" 
d="M892 661c0 -20.667 -10.334 -67.668 -31.001 -141.001c-26 -92 -55.333 -165.333 -88 -220c-44.667 -74.667 -90.334 -137.667 -137.001 -189c-55.333 -60.667 -100.666 -91 -135.999 -91c-31.333 0 -58.333 23.5 -81 70.5s-34 101.167 -34 162.5v72l-53 -70
c-38.667 -48.667 -76 -92 -112 -130c-45.333 -47.333 -77 -71 -95 -71c-16.667 0 -30.667 7.83301 -42 23.5s-17 33.5 -17 53.5v366c0 36 10.167 69.167 30.5 99.5s43.166 45.5 68.499 45.5c11.333 0 21.166 -8.16699 29.499 -24.5s12.5 -41.833 12.5 -76.5
c0 -18.667 -0.666992 -34.667 -2 -48c-4.66699 -47.333 -7 -74.666 -7 -81.999c0 -50 0.666992 -85.833 2 -107.5s5.66602 -32.5 12.999 -32.5c4 0 23 24 57 72c44 61.333 77.667 106 101 134c40.667 48.667 70 73 88 73c26 0 43.667 -18.667 53 -56
c6.66699 -27.333 10 -69.666 10 -126.999c0 -62 1.16699 -105.167 3.5 -129.5s10.5 -36.5 24.5 -36.5c20.667 0 48.334 27.167 83.001 81.5s60.334 113.166 77.001 176.499c30.667 112.667 47.667 173 51 181c20.667 54.667 46.334 82 77.001 82
c18.667 0 32.334 -4 41.001 -12s13 -24.333 13 -49z" />
    <glyph glyph-name="X" unicode="X" horiz-adv-x="587" 
d="M578 641c0 -15.333 -19.335 -51.6699 -58.002 -109.003l-96 -141c39.333 -48.667 71 -94 95 -136c36 -62 54 -112.667 54 -152c0 -28 -4.66699 -48.333 -14 -61c-11.333 -15.333 -30.666 -23 -57.999 -23c-22.667 0 -39.667 12 -51 36c-10.667 32 -18.667 55 -24 69
c-8 18.667 -21.333 41 -40 67c-14.667 20 -32.667 43 -54 69l-77 -129c-31.333 -53.333 -50 -87 -56 -101l-16 -56c-7.33301 -15.333 -27.333 -23 -60 -23c-19.333 0 -34.166 7.66699 -44.499 23s-15.5 30.333 -15.5 45c0 16.667 27 70.334 81 161.001
c50.667 85.333 90 145.333 118 180l-97 110c-44.667 52 -67 84 -67 96c0 14.667 7.83301 32.667 23.5 54s33.167 32 52.5 32c9.33301 -1.33301 27.666 -16.666 54.999 -45.999s64 -73 110 -131c33.333 50.667 65.333 96.334 96 137.001c41.333 54 68 81 80 81
c10.667 0 23.834 -6.83301 39.501 -20.5s23.5 -24.167 23.5 -31.5z" />
    <glyph glyph-name="Y" unicode="Y" horiz-adv-x="457" 
d="M534 658c0 -7.33301 -12.9971 -36.667 -38.9971 -88l-86 -165c-40 -76.667 -67.667 -132.334 -83 -167.001c-76 -172.667 -115 -261 -117 -265c-26 -54 -59 -81 -99 -81c-12 0 -22.667 4.33301 -32 13c-11.333 10.667 -17 23.667 -17 39c0 6 12.667 38.667 38 98l74 169
l49 110c-3.33301 11.333 -7.83301 21 -13.5 29s-15.334 19.333 -29.001 34s-48.167 45.334 -103.5 92.001c-40 33.333 -60 56.333 -60 69c0 21.333 9.66699 45 29 71s36 39 50 39c23.333 0 50.666 -13 81.999 -39c13.333 -11.333 59.666 -60.666 138.999 -147.999
c19.333 43.333 43 90.666 71 141.999c38 70 63.333 106 76 108c14 2.66699 29.333 -3.5 46 -18.5s25 -28.833 25 -41.5z" />
    <glyph glyph-name="Z" unicode="Z" horiz-adv-x="586" 
d="M610 99c0 -24.667 -9.50098 -48.1641 -28.501 -70.4971s-39.833 -33.5 -62.5 -33.5c-18.667 0 -33 8 -43 24s-18 24 -24 24c-20 0 -93.667 -8 -221 -24c-63.333 -8 -112 -12 -146 -12c-16 0 -28.667 4.33301 -38 13s-14 20.667 -14 36c0 22.667 26 69 78 139
c22 29.333 73.667 93.666 155 192.999c61.333 75.333 98.666 124.666 111.999 147.999c-16.667 -4.66699 -35 -8.16699 -55 -10.5s-45 -3.5 -75 -3.5c-54.667 0 -98 3.66699 -130 11c-41.333 9.33301 -62 24.666 -62 45.999c0 20.667 14.667 40.334 44 59.001s60 28 92 28
c15.333 0 34.333 -0.833008 57 -2.5s40.334 -2.5 53.001 -2.5s49.334 4.33301 110.001 13c28 4 51.667 6 71 6c15.333 0 30 -4.33301 44 -13s21 -17.334 21 -26.001c0 -36.667 -22 -90 -66 -160c-34.667 -55.333 -79.667 -117 -135 -185l-111 -131
c28 0 79.667 3.33301 155 10c37.333 3.33301 67 5 89 5c24.667 0 50.667 -6.66699 78 -20c34.667 -16.667 52 -37 52 -61z" />
    <glyph glyph-name="bracketleft" unicode="[" horiz-adv-x="386" 
d="M342 26c0 -19.333 -9.00293 -34.668 -27.0029 -46.001c-14 -8.66699 -29.333 -13 -46 -13c-24.667 0 -57 0.5 -97 1.5s-61.333 1.5 -64 1.5c-11.333 0 -21.666 3.66699 -30.999 11c-12.667 10 -19 24.333 -19 43c0 7.33301 1 15.666 3 24.999
c11.333 48 27 107.333 47 178l42 147c10.667 40.667 26.667 98.334 48 173.001l52 185c3.33301 12 11.333 24.333 24 37s26.334 20.167 41.001 22.5s28.667 3.83301 42 4.5s28.666 1 45.999 1c8.66699 0 16.834 -0.166992 24.501 -0.5s14.834 -0.5 21.501 -0.5
c18.667 -2 32.334 -4.66699 41.001 -8c16.667 -6.66699 25 -18.334 25 -35.001c0 -33.333 -29.333 -51.666 -88 -54.999c-26 -1.33301 -52 -2.33301 -78 -3c-12.667 -38.667 -32.667 -104.667 -60 -198l-34 -118c-6.66699 -24 -17.334 -65 -32.001 -123
c-30 -119.333 -46 -182.666 -48 -189.999c49.333 0 89.5 -2.5 120.5 -7.5s46.5 -15.833 46.5 -32.5z" />
    <glyph glyph-name="backslash" unicode="\" horiz-adv-x="359" 
d="M393 -14c0 -14.667 -4.5 -26.501 -13.5 -35.501s-23.167 -13.5 -42.5 -13.5c-10 0 -32.667 51 -68 153l-105 305c-8.66699 24 -43 102.667 -103 236c-18.667 41.333 -28 68 -28 80c0 10 2 19.667 6 29c6.66699 15.333 16.667 23 30 23c16.667 0 37 -19.667 61 -59
c20 -32.667 42.667 -79 68 -139c20.667 -49.333 42 -104.333 64 -165c28 -77.333 55 -156 81 -236c33.333 -101.333 50 -160.666 50 -177.999z" />
    <glyph glyph-name="bracketright" unicode="]" horiz-adv-x="386" 
d="M166 732c0 19.333 8.33105 33.1689 24.998 41.502s33.334 12.5 50.001 12.5c24.667 0 56.5 0.5 95.5 1.5s60.167 1.5 63.5 1.5c12 0 22.333 -3.66699 31 -11c12.667 -10.667 19 -25.334 19 -44.001c0 -7.33301 -1 -15.666 -3 -24.999c-11.333 -48 -27 -107.333 -47 -178
l-42 -147c-10.667 -40.667 -26.667 -98.334 -48 -173.001l-53 -185c-2.66699 -12 -10.5 -24.5 -23.5 -37.5s-26.167 -20.167 -39.5 -21.5c-17.333 0 -37.833 -0.333008 -61.5 -1s-48.5 -1.66699 -74.5 -3c-17.333 0 -30.666 2 -39.999 6c-16.667 6.66699 -25 18.667 -25 36
c0 33.333 29.333 51.666 88 54.999c26 0.666992 52 1.66699 78 3c13.333 40.667 33.333 106.667 60 198l34 118l43 169l36 145c-51.333 0 -88 1.66699 -110 5c-37.333 6 -56 17.333 -56 34z" />
    <glyph glyph-name="asciicircum" unicode="^" horiz-adv-x="543" 
d="M604 730c0 -18.667 -7.33301 -35.333 -22 -50s-32.334 -22 -53.001 -22s-41.334 10.667 -62.001 32c-6.66699 6.66699 -22.667 27.667 -48 63c-9.33301 -8.66699 -29.666 -30.667 -60.999 -66c-43.333 -49.333 -74.666 -74 -93.999 -74
c-12.667 0 -23.5 6.16699 -32.5 18.5s-13.5 24.166 -13.5 35.499c0 10 19.333 37 58 81c34.667 40 73 80 115 120s67.333 60 76 60c16 0 32.667 -13 50 -39l31 -56l33 -42c15.333 -19.333 23 -39.666 23 -60.999z" />
    <glyph glyph-name="underscore" unicode="_" horiz-adv-x="674" 
d="M580 -197c-7.33301 0 -24.332 -0.666992 -50.999 -2c-78.667 -4 -134.167 -6.5 -166.5 -7.5s-67.5 -1.5 -105.5 -1.5h-39c-56 0 -93.667 1.66699 -113 5c-31.333 5.33301 -47 17 -47 35c0 16.667 4.16699 30.167 12.5 40.5s22.166 15.5 41.499 15.5
c10 0 55.5 1.5 136.5 4.5s139.5 4.5 175.5 4.5c66.667 0 115.667 -2.16699 147 -6.5s47 -14.5 47 -30.5c0 -38 -12.667 -57 -38 -57z" />
    <glyph glyph-name="grave" unicode="`" horiz-adv-x="386" 
d="M445 756c0 -16.667 -7.50195 -34.5 -22.502 -53.5s-29.5 -28.5 -43.5 -28.5c-15.333 0 -53.666 22 -114.999 66c-66 47.333 -99 82.333 -99 105c0 9.33301 10.333 26.333 31 51s36.334 37.667 47.001 39c12.667 0 49.5 -26.167 110.5 -78.5s91.5 -85.833 91.5 -100.5z
" />
    <glyph glyph-name="a" unicode="a" horiz-adv-x="706" 
d="M742 190c0 -23.333 -9.66504 -44.6631 -28.998 -63.9961c-41.333 -38.667 -99.666 -74.334 -174.999 -107.001c-62 -26.667 -101.667 -40 -119 -40c-18.667 0 -34 7.16699 -46 21.5s-18 30.166 -18 47.499c0 20 0.166992 40.667 0.5 62s2.83301 44.333 7.5 69l-88 -77
c-78.667 -65.333 -138.334 -98 -179.001 -98c-24.667 0 -46.334 8.66699 -65.001 26s-28 35.666 -28 54.999c0 28 23.667 78.333 71 151s99.666 137 156.999 193c66.667 65.333 120.667 98 162 98c8 0 17.333 -5.16699 28 -15.5s19 -21.5 25 -33.5c8 12 13.667 21 17 27
c7.33301 11.333 16 17 26 17c11.333 0 25.166 -4.83301 41.499 -14.5s24.5 -21.167 24.5 -34.5c0 -23.333 -6 -56.333 -18 -99l-36 -127c-5.33301 -20.667 -9.66602 -39.834 -12.999 -57.501s-5 -32.167 -5 -43.5c0 -12 2.33301 -18 7 -18c10 0 42.833 16.167 98.5 48.5
s93.167 48.5 112.5 48.5c27.333 0 41 -11.667 41 -35zM321.002 284.003c2.66699 5.33301 4.00098 12.667 4.00098 22c0 16.667 -5 25 -15 25c-26 0 -53.333 -16.667 -82 -50c-20.667 -24 -49.334 -67 -86.001 -129c56.667 26 99.667 50.333 129 73
c23.333 18 40 37.667 50 59z" />
    <glyph glyph-name="b" unicode="b" horiz-adv-x="531" 
d="M151 143c15.333 -8 32 -16.167 50 -24.5s34.333 -12.5 49 -12.5c42 0 77.667 17 107 51s44 75 44 123c0 19.333 -3 33 -9 41s-18.333 12 -37 12c-15.333 0 -33.5 -5.83301 -54.5 -17.5s-41.5 -27.5 -61.5 -47.5c-10.667 -10 -25 -28.667 -43 -56zM67 110
c-10.667 12 -15.999 23.333 -15.999 34l31 101l68 212c28.667 84 51.667 145.333 69 184c10 34 18.667 59.333 26 76c22.667 50.667 47.334 76 74.001 76c13.333 0 25.333 -5 36 -15s16 -21.333 16 -34c0 -4 -17.333 -51.667 -52 -143
c-36.667 -96 -63.334 -162.333 -80.001 -199c31.333 26.667 62.666 46.167 93.999 58.5s63 18.5 95 18.5c26 0 48.667 -11.667 68 -35c25.333 -30.667 38 -74 38 -130c0 -40.667 -9 -84 -27 -130c-24 -60.667 -57 -108.334 -99 -143.001c-54.667 -44.667 -122 -67 -202 -67
c-36 0 -73.833 10.333 -113.5 31s-59.5 39.334 -59.5 56.001c0 6.66699 4 15 12 25c10.667 11.333 18 19.333 22 24z" />
    <glyph glyph-name="c" unicode="c" horiz-adv-x="431" 
d="M441 194c0 -28 -29.666 -64.6689 -88.999 -110.002c-72 -55.333 -150 -83 -234 -83c-34 0 -58.667 11.167 -74 33.5s-23 51.833 -23 88.5c0 18 5 43.667 15 77c13.333 43.333 30.333 80.333 51 111c39.333 58 81.666 106 126.999 144c54.667 46 104.334 69 149.001 69
c19.333 0 36.666 -5.16699 51.999 -15.5s23 -24.5 23 -42.5c0 -25.333 -14 -40.666 -42 -45.999s-46 -9 -54 -11c-40 -10.667 -79.833 -42.5 -119.5 -95.5s-59.5 -102.5 -59.5 -148.5c0 -17.333 7.66699 -26 23 -26c20 0 49.333 10 88 30l127 67
c14.667 0 25 -4.16699 31 -12.5s9 -18.166 9 -29.499z" />
    <glyph glyph-name="d" unicode="d" horiz-adv-x="571" 
d="M625 765c0 -7.33301 -12.9971 -58.666 -38.9971 -153.999c-34.667 -126.667 -60 -222 -76 -286c-29.333 -116.667 -46.5 -197.167 -51.5 -241.5s-8.16699 -69.166 -9.5 -74.499c-8.66699 -28 -26 -42 -52 -42c-26.667 0 -45.5 5.16699 -56.5 15.5
s-16.5 24.166 -16.5 41.499c0 7.33301 0.666992 15.666 2 24.999s7 32.333 17 69c3.33301 12.667 8.66602 31.334 15.999 56.001c-38 -39.333 -77 -73.333 -117 -102c-54.667 -39.333 -98.667 -59 -132 -59c-27.333 0 -51.333 12 -72 36c-17.333 20 -26 38.333 -26 55
c0 33.333 15.333 80.333 46 141c34 67.333 73 120.666 117 159.999c32 28.667 67.333 52 106 70c27.333 13.333 78 30.333 152 51c25.333 74.667 44.666 128.667 57.999 162c32 79.333 55.667 119 71 119c19.333 0 34.666 -4.5 45.999 -13.5s17 -18.5 17 -28.5zM377.003 367
c-28.667 -5.33301 -53.666 -13.001 -74.999 -23.001s-39.333 -21.667 -54 -35c-18.667 -18 -39.334 -42.167 -62.001 -72.5s-34 -51.166 -34 -62.499s4 -17 12 -17c13.333 0 28.666 6.66699 45.999 20c7.33301 5.33301 20.666 17.333 39.999 36
c16.667 15.333 36.334 36 59.001 62c30.667 35.333 53.334 66 68.001 92z" />
    <glyph glyph-name="e" unicode="e" horiz-adv-x="415" 
d="M408 494c0 -27.333 -4.99902 -56.667 -14.999 -88c-12.667 -38.667 -31.334 -74.667 -56.001 -108c-20 -28 -46.333 -52.667 -79 -74l-119 -66c1.33301 -6 2.33301 -10.333 3 -13c3.33301 -8.66699 8 -13 14 -13c34.667 0 96.334 18.333 185.001 55l129 56
c8.66699 0 14.334 -2.66699 17.001 -8s5 -14 7 -26c0 -28.667 -30 -60.334 -90 -95.001c-48.667 -28.667 -108.334 -55 -179.001 -79c-64 -22 -106.333 -33 -127 -33c-30.667 0 -56.334 18.333 -77.001 55c-17.333 30.667 -26 62.667 -26 96
c0 90.667 37.5 182.334 112.5 275.001s147.833 139 218.5 139c54.667 0 82 -24.333 82 -73zM285.001 439.999c-10.667 0 -23.334 -5.33105 -38.001 -15.998c-12 -8.66699 -25.5 -20.5 -40.5 -35.5s-27.833 -32.5 -38.5 -52.5c-8 -14.667 -16.333 -33.334 -25 -56.001
c22.667 11.333 43.334 24 62.001 38c15.333 11.333 28 22.666 38 33.999c17.333 18 29.333 31.667 36 41c10 14 15 27.333 15 40c-4.66699 4.66699 -7.66699 7 -9 7z" />
    <glyph glyph-name="f" unicode="f" horiz-adv-x="369" 
d="M402 384c-22.667 0 -51.335 -1.99902 -86.002 -5.99902c-12.667 -1.33301 -42.667 -5.33301 -90 -12c-3.33301 -6.66699 -7.16602 -20.834 -11.499 -42.501s-13.166 -69.167 -26.499 -142.5c-5.33301 -27.333 -17.333 -119 -36 -275c-6 -52 -11.667 -84 -17 -96
c-10 -20.667 -18.333 -34.334 -25 -41.001c-14.667 -14.667 -34.667 -22 -60 -22c-20 0 -34 4.33301 -42 13s-12 25.334 -12 50.001c0 46.667 12.333 132.834 37 258.501s47.334 220.5 68.001 284.5c-9.33301 -4 -19 -6 -29 -6h-10c-4.66699 1.33301 -8.33398 2 -11.001 2
c-14.667 0 -24.5 2 -29.5 6s-7.5 13.667 -7.5 29c0 21.333 15.667 41.666 47 60.999c23.333 14.667 52 27 86 37l37 104c29.333 81.333 56.333 134 81 158s56 40 94 48c20 4 47.667 6 83 6c20 0 34.833 -3.5 44.5 -10.5s14.5 -19.167 14.5 -36.5
c0 -28.667 -6.5 -51 -19.5 -67s-30.5 -28 -52.5 -36c-6 -2 -12 -3 -18 -3c-4 0 -12 1.16699 -24 3.5s-21.333 3.5 -28 3.5c-11.333 0 -20 -2.5 -26 -7.5s-18 -28.833 -36 -71.5l-33 -79c4.66699 0 23.834 1.16699 57.501 3.5s56.5 3.5 68.5 3.5
c43.333 0 72.666 -5.66699 87.999 -17c10.667 -8 16 -21.667 16 -41c-4 -39.333 -34.667 -59 -92 -59z" />
    <glyph glyph-name="g" unicode="g" horiz-adv-x="548" 
d="M548 475c0 -50.667 -14.3311 -134.332 -42.998 -250.999c-25.333 -101.333 -45.333 -170 -60 -206l-51 -123c-33.333 -72 -68 -128.333 -104 -169c-50 -56.667 -102.333 -85 -157 -85c-39.333 0 -81.333 21 -126 63c-48.667 46 -73 93.667 -73 143c0 9.33301 12 24 36 44
c14 11.333 26.333 18 37 20c7.33301 1.33301 23.166 -23.167 47.499 -73.5s56.166 -75.5 95.499 -75.5c30 0 57 17 81 51c18 26 36.667 66.667 56 122l48 147l28 89c-43.333 -56 -89 -98 -137 -126c-43.333 -25.333 -86 -38 -128 -38c-28 0 -50.667 13.333 -68 40
c-12.667 19.333 -19 36.666 -19 51.999c0 13.333 8.16699 40.5 24.5 81.5s34.5 77.5 54.5 109.5c38.667 60 95.334 116.333 170.001 169c68 48 117.667 72 149 72c8 0 15.167 -5.16699 21.5 -15.5s10.166 -21.5 11.499 -33.5l38 18c17.333 8 28 12 32 12
c14 0 22.667 -1.66699 26 -5c6.66699 -6 10 -16.667 10 -32zM397.002 399.002c-38.667 0 -91.667 -33.999 -159 -101.999c-62 -62.667 -93 -102.334 -93 -119.001c0 -22 7 -33 21 -33c38.667 0 84.667 34.333 138 103c40.667 52 71.667 102.333 93 151z" />
    <glyph glyph-name="h" unicode="h" horiz-adv-x="574" 
d="M551 129c0 -32.667 -9.99902 -61.666 -29.999 -86.999s-46 -38 -78 -38c-14 0 -27.333 5.66699 -40 17c-14.667 13.333 -22 30 -22 50c0 8.66699 0.666992 36 2 82s2 80.333 2 103l1 74l-74 -89l-63 -74c-56 -62 -100 -104.333 -132 -127c-22.667 -16 -43 -24 -61 -24
c-14.667 0 -25.167 5 -31.5 15s-10.5 22.333 -12.5 37l33 112l72 245l71 238c22 70.667 36.333 111 43 121c16 23.333 36.333 35 61 35c20 0 33.667 -3 41 -9s11 -14.667 11 -26c0 -24.667 -12.333 -77.334 -37 -158.001c-12 -38.667 -37 -114 -75 -226
c-31.333 -91.333 -49.333 -146 -54 -164l44 47l125 167c58 71.333 102 107 132 107c19.333 0 31.666 -8.16699 36.999 -24.5s8 -40.833 8 -73.5c0 -28 -2.33301 -65.333 -7 -112s-7 -79 -7 -97c0 -11.333 6.83301 -32.333 20.5 -63s20.5 -50 20.5 -58z" />
    <glyph glyph-name="i" unicode="i" horiz-adv-x="263" 
d="M326 679c0 -12 -9.16797 -29.667 -27.501 -53s-33.166 -35 -44.499 -35c-8.66699 0 -25.667 9.66699 -51 29c-29.333 22 -44 40.667 -44 56c0 7.33301 8.33301 23 25 47c20 28.667 38 43 54 43c18 0 37.167 -9.5 57.5 -28.5s30.5 -38.5 30.5 -58.5zM235.999 441
c0 -20.667 -11.001 -61.667 -33.001 -123l-33 -86c-0.666992 -3.33301 -1 -8 -1 -14c0 -11.333 2.83301 -25.5 8.5 -42.5s8.5 -28.167 8.5 -33.5c0 -12 -5 -29.333 -15 -52c-26 -58.667 -59.667 -88 -101 -88c-20.667 0 -35 10 -43 30c-5.33301 13.333 -8 32.666 -8 57.999
c0 18 8.66699 59 26 123c20 72.667 42.333 135.667 67 189c30.667 66 59.334 99 86.001 99c12.667 0 22.167 -5.66699 28.5 -17s9.5 -25.666 9.5 -42.999z" />
    <glyph glyph-name="j" unicode="j" horiz-adv-x="385" 
d="M337 442c0 -15.333 -13.3301 -80.666 -39.9971 -195.999c-16 -68 -26.333 -115 -31 -141l-37 -181c-16.667 -67.333 -35.334 -117.333 -56.001 -150c-26 -41.333 -59 -62 -99 -62c-22 0 -43.667 5.5 -65 16.5s-47 28.167 -77 51.5s-51.333 41.666 -64 54.999
c-18.667 18.667 -28 34 -28 46c0 24.667 7.66699 46 23 64s31.666 27 48.999 27c18.667 0 38.667 -16.667 60 -50c16.667 -26 29.667 -43.667 39 -53l19 -23c5.33301 -4.66699 17.666 -7 36.999 -7c17.333 0 33.333 29.667 48 89c5.33301 22 15 74 29 156l26 161
c9.33301 56 19.333 103 30 141c8 29.333 23.667 54.333 47 75c20 18 37.667 27 53 27c13.333 0 22.833 -3.16699 28.5 -9.5s8.5 -18.5 8.5 -36.5zM363.003 655c0 -12 -9.16699 -29.6689 -27.5 -53.002s-33.5 -35 -45.5 -35c-8 0 -25 10 -51 30
c-29.333 22.667 -44 41.334 -44 56.001c0 6.66699 8.66699 22.334 26 47.001c20 28.667 37.667 43 53 43c18 0 37.333 -9.66699 58 -29s31 -39 31 -59z" />
    <glyph glyph-name="k" unicode="k" horiz-adv-x="589" 
d="M510 66c1.33301 -12.667 -8.50195 -29.502 -29.502 -50.502s-41.5 -31.5 -61.5 -31.5c-41.333 0 -84.333 21.333 -129 64c-54.667 52.667 -82 117.667 -82 195c32 19.333 60 37.333 84 54c26.667 18.667 40 38.334 40 59.001c0.666992 10 1 16.667 1 20
c0 10 -4 15.667 -12 17c-20 4 -49.667 -25.333 -89 -88l-64 -108l-62 -125c-21.333 -40 -42.333 -60 -63 -60c-13.333 0 -24.666 4.33301 -33.999 13s-14 21.334 -14 38.001c0 20.667 15.333 93 46 217c33.333 134 65 249.333 95 346c38 120.667 64.333 181 79 181
c21.333 0 39.5 -2.66699 54.5 -8s22.5 -12 22.5 -20c0 -13.333 -8.33301 -48.5 -25 -105.5l-49 -168.5l-57 -189c34 52.667 69.667 99 107 139c52 55.333 95 83 129 83c18.667 0 36 -5.33301 52 -16c20 -13.333 30 -31.666 30 -54.999c0 -62.667 -14.667 -113 -44 -151
s-69.666 -61.333 -120.999 -70c6 -24 18 -45.333 36 -64c8 -8 38.667 -30.333 92 -67l46 -26c14.667 -8.66699 22 -16.334 22 -23.001z" />
    <glyph glyph-name="l" unicode="l" horiz-adv-x="317" 
d="M215 44c-48 -28.667 -81.498 -46.6689 -100.498 -54.002s-44.833 -11 -77.5 -11c-10.667 0 -21.334 5.33301 -32.001 16s-16 22 -16 34c0 17.333 9.33301 63.833 28 139.5s38.667 148.834 60 219.501c40.667 137.333 67.667 226 81 266c36 106.667 61.333 160 76 160
c13.333 0 28.333 -3.66699 45 -11s25 -15.333 25 -24c1.33301 -11.333 -20.667 -84.666 -66 -219.999c-28 -83.333 -46.333 -141 -55 -173c-14 -50 -24.333 -85.667 -31 -107l-47 -155l73 33c56 24.667 91 37 105 37c9.33301 0 19.166 -7.16699 29.499 -21.5
s15.5 -26.5 15.5 -36.5c-1.33301 -11.333 -19.333 -29.333 -54 -54c-16 -11.333 -35.667 -24 -59 -38z" />
    <glyph glyph-name="m" unicode="m" horiz-adv-x="909" 
d="M817 -21c-29.333 0 -55.332 6.66797 -77.999 20.001s-39.667 31.666 -51 54.999c-8 16.667 -13.5 37.667 -16.5 63s-4.5 51 -4.5 77v26l-112 -131c-61.333 -65.333 -108.666 -98 -141.999 -98c-21.333 0 -37.666 8 -48.999 24c-8 11.333 -12 23.333 -12 36l11 68
c7.33301 43.333 15 84.666 23 123.999c3.33301 16.667 5.66602 29 6.99902 37c5.33301 26 9.33301 42.667 12 50c-4.66699 -4.66699 -29.667 -41 -75 -109c-48.667 -72.667 -89.667 -127.667 -123 -165c-51.333 -57.333 -93.666 -86 -126.999 -86
c-20.667 0 -36.5 8.33301 -47.5 25s-16.5 34.334 -16.5 53.001c6.66699 30.667 11.667 55.334 15 74.001c12 58.667 22.667 107.667 32 147l29 179c15.333 63.333 45.666 95 90.999 95c23.333 0 36.666 -11.333 39.999 -34c1.33301 -9.33301 2 -25.333 2 -48
c0 -6 -10.333 -66 -31 -180c-2.66699 -22.667 -5 -45.334 -7 -68.001c8.66699 0 33.334 26.667 74.001 80c58 75.333 97.333 125 118 149c47.333 54 82.333 81 105 81c10 0 23.167 -7.5 39.5 -22.5s24.5 -30.833 24.5 -47.5c0 -21.333 -5 -62 -15 -122
c-0.666992 -4.66699 -9 -51 -25 -139l84 108c53.333 68 94 117.667 122 149c44.667 50 74.334 75 89.001 75c15.333 0 27.666 -3.83301 36.999 -11.5s14 -20.167 14 -37.5c0 -7.33301 -8.33301 -36 -25 -86c-8 -24 -12 -44.333 -12 -61
c-0.666992 -14 -1.33398 -26 -2.00098 -36s-1 -23.333 -1 -40c0 -21.333 0.833008 -40.666 2.5 -57.999s4.66699 -31.833 9 -43.5s15.666 -24.834 33.999 -39.501s27.5 -26.667 27.5 -36c0 -15.333 -7 -34.333 -21 -57c-16 -26 -32.333 -39 -49 -39z" />
    <glyph glyph-name="n" unicode="n" horiz-adv-x="523" 
d="M491 429c0 -16.667 -2.66895 -43.6641 -8.00195 -80.9971c-12 -84 -18 -135.333 -18 -154c0 -10 0.666992 -20.667 2 -32s7.16602 -27.333 17.499 -48s14.833 -33.667 13.5 -39c-1.33301 -9.33301 -12.666 -23.833 -33.999 -43.5s-39.666 -29.5 -54.999 -29.5
c-16.667 0 -31.667 9.5 -45 28.5s-22.166 38.667 -26.499 59s-6.5 39.833 -6.5 58.5c0 16.667 1.66699 36 5 58s7.66602 46 12.999 72l-61 -78c-35.333 -43.333 -66.666 -77.333 -93.999 -102c-40.667 -37.333 -70 -60.833 -88 -70.5s-36.333 -14.5 -55 -14.5
c-12 0 -21.333 5.16699 -28 15.5s-10 22.166 -10 35.499c0 37.333 6.66699 87 20 149s27.333 114.333 42 157c12 36 24.667 67.333 38 94c16 32.667 29 49.667 39 51c14 1.33301 31.167 -3.33398 51.5 -14.001s29.833 -23.334 28.5 -38.001
c-1.33301 -12 -9.83301 -44.833 -25.5 -98.5s-33.167 -109.5 -52.5 -167.5c34 44 67.333 85 100 123c44 51.333 82 91.333 114 120c40 36 69.667 54 89 54s30.333 -8.66699 33 -26c0.666992 -4 1 -17 1 -39z" />
    <glyph glyph-name="o" unicode="o" horiz-adv-x="455" 
d="M631 455c-32.667 -7.33301 -66.9961 -15.998 -102.996 -25.998l-94 -28c6 -8.66699 12.333 -17 19 -25c4.66699 -8.66699 7 -26 7 -52c0 -62.667 -17 -121.667 -51 -177c-26.667 -42.667 -65.667 -86 -117 -130c-22.667 -18.667 -44.334 -31.667 -65.001 -39
s-48.667 -11 -84 -11s-65 8.33301 -89 25c-31.333 22 -47 55.667 -47 101c0 46.667 10 97 30 151c15.333 42 32.666 77 51.999 105c44.667 63.333 82 107.333 112 132c21.333 18 41 27 59 27c9.33301 0 18.5 -3.83301 27.5 -11.5s13.5 -16.834 13.5 -27.501
c0 -19.333 -14 -49.333 -42 -90l-83 -119c-29.333 -47.333 -44 -85.666 -44 -114.999c0 -14.667 4.33301 -27 13 -37s21.667 -15 39 -15c39.333 0 74.666 24.333 105.999 73c28.667 44.667 43 90 43 136c0 11.333 -2.33301 26.333 -7 45c-10.667 42.667 -16 70 -16 82
c0 33.333 47 60.666 141 81.999c71.333 16 133.666 24 186.999 24c13.333 0 25.5 -2.33301 36.5 -7s16.5 -10.334 16.5 -17.001c0 -14 -7 -26.667 -21 -38c-11.333 -9.33301 -24.333 -15.333 -39 -18z" />
    <glyph glyph-name="p" unicode="p" horiz-adv-x="484" 
d="M505 346c0 -65.333 -31.665 -139.002 -94.998 -221.002c-66.667 -86.667 -130 -130 -190 -130c-12.667 0 -27.5 3.66699 -44.5 11s-32.833 16 -47.5 26c-6.66699 -24 -14.167 -56.833 -22.5 -98.5s-13.5 -71.167 -15.5 -88.5s-4.33301 -42.5 -7 -75.5
s-4.83398 -57.333 -6.50098 -73s-6.83398 -27.167 -15.501 -34.5s-26 -11 -52 -11c-24 0 -40.333 8.66699 -49 26c-6 12.667 -9 32.334 -9 59.001c0 22.667 14.333 92 43 208l69 281c7.33301 33.333 17.333 72.333 30 117s24.667 84.334 36 119.001c8.66699 26 21 43 37 51
c10 4.66699 25.667 7 47 7c14 0 23.333 -3 28 -9s7 -15.333 7 -28s-1.66699 -26.667 -5 -42c27.333 23.333 50.333 41 69 53c32.667 20.667 59.667 31 81 31c40.667 0 69.5 -12.667 86.5 -38s25.5 -72 25.5 -140zM374.002 329.998c0 27.333 -1.00195 44.668 -3.00195 52.001
c-4 13.333 -12.333 20 -25 20c-40 0 -72.667 -17 -98 -51c-16 -21.333 -35.333 -60.333 -58 -117c-7.33301 -17.333 -15.166 -38.833 -23.499 -64.5s-13.833 -43.167 -16.5 -52.5c3.33301 6.66699 8.5 12.5 15.5 17.5s14.5 7.5 22.5 7.5
c6.66699 -0.666992 14.334 -5.33398 23.001 -14.001s18.667 -13 30 -13c27.333 0 56.333 26.833 87 80.5s46 98.5 46 134.5z" />
    <glyph glyph-name="q" unicode="q" horiz-adv-x="604" 
d="M573 426c0 -12 -11.001 -58.3311 -33.001 -138.998l-65 -238c-23.333 -87.333 -35 -138 -35 -152c-0.666992 -8.66699 -1 -14.334 -1 -17.001c0 -18 7.16699 -29.167 21.5 -33.5s21.5 -17.166 21.5 -38.499c0 -16.667 -15 -48.667 -45 -96
c-36.667 -57.333 -73 -86 -109 -86c-14 0 -24.167 5.33301 -30.5 16s-10.5 24 -12.5 40c-1.33301 11.333 5.66699 50.333 21 117c6.66699 30 23.334 98.667 50.001 206l45 179c-48 -44 -103 -84 -165 -120c-71.333 -41.333 -127.666 -62 -168.999 -62
c-17.333 0 -36 11 -56 33c-15.333 16.667 -23 35.667 -23 57c0 27.333 25 73.666 75 138.999c52.667 69.333 110.667 129.333 174 180c74.667 60 138.667 90 192 90c12.667 0 24.667 -7 36 -21c5.33301 -7.33301 11 -14.333 17 -21
c4.66699 1.33301 13.167 5.16602 25.5 11.499s21.166 9.5 26.499 9.5c16 0 26.833 -1.83301 32.5 -5.5s8.5 -9.5 8.5 -17.5c-1.33301 -12.667 -2 -23 -2 -31zM344.999 319.002c0 4.66699 -1.49805 9.16797 -4.49805 13.501s-6.5 6.5 -10.5 6.5c-26 2 -56 -13.667 -90 -47
c-28.667 -28.667 -53.334 -62 -74.001 -100c-2.66699 -6 -1.83398 -11.833 2.49902 -17.5s9.5 -8.5 15.5 -8.5c31.333 0 66 18.667 104 56s57 69.666 57 96.999z" />
    <glyph glyph-name="r" unicode="r" horiz-adv-x="395" 
d="M452 386c-24.667 0 -61.333 -16 -110 -48c-52 -34.667 -99 -75.667 -141 -123c-13.333 -16 -26 -43 -38 -81c-8.66699 -28 -15 -56.5 -19 -85.5s-29.333 -43.5 -76 -43.5c-21.333 0 -37 9.66699 -47 29c-6.66699 12.667 -10 27.334 -10 44.001l54.5 160.5
c16.333 48.333 24.5 89.833 24.5 124.5c0 6.66699 -0.666992 15.334 -2 26.001s-2 18.667 -2 24v16l4 12c6.66699 22 16.667 41.667 30 59s27 26 41 26c12.667 0 24.5 -5.16699 35.5 -15.5s16.5 -23.833 16.5 -40.5c0 -28.667 -1.33301 -50.667 -4 -66
c-6 -22.667 -11.333 -44.334 -16 -65.001c47.333 44.667 89.666 81.334 126.999 110.001c66 51.333 112.667 77 140 77h19c6.66699 0 13.334 0.333008 20.001 1c20.667 0 36.334 -2.83301 47.001 -8.5s16 -17.834 16 -36.501c0 -40.667 -9 -67.334 -27 -80.001
c-14.667 -10.667 -42.334 -16 -83.001 -16z" />
    <glyph glyph-name="s" unicode="s" horiz-adv-x="409" 
d="M332 358c-6.66699 0 -13.335 3.33496 -20.002 10.002s-10 13 -10 19c0 3.33301 1 7.66602 3 12.999s3 9.33301 3 12c0 6.66699 -3.66699 10 -11 10c-12 0 -23.5 -7 -34.5 -21s-16.5 -30 -16.5 -48c0 -10 3 -19.667 9 -29l18 -28c4 -8 18.333 -34 43 -78
c16 -28 24 -47.333 24 -58c0 -30 -22.333 -67 -67 -111c-57.333 -56 -124.666 -84 -201.999 -84c-32.667 0 -55.334 2 -68.001 6c-22 6.66699 -33 20.667 -33 42c0 29.333 20.333 51 61 65c27.333 9.33301 58.666 14 93.999 14c18.667 0 34.834 4.5 48.501 13.5
s20.5 18.167 20.5 27.5c0.666992 6 -10.166 30.667 -32.499 74s-33.5 75.666 -33.5 96.999c0 51.333 31.333 108 94 170c66.667 66 133.334 99 200.001 99c12 0 25 -5.66699 39 -17s21 -23.666 21 -36.999c0 -16.667 -8.5 -36.334 -25.5 -59.001s-37.833 -44.667 -62.5 -66
c-16.667 -14.667 -26.667 -23 -30 -25c-12 -8 -22.667 -11.667 -32 -11z" />
    <glyph glyph-name="t" unicode="t" horiz-adv-x="395" 
d="M512 572c0 -14.667 -9.83105 -30.502 -29.498 -47.502s-41.5 -30.5 -65.5 -40.5l-100.5 -40c-33.667 -13.333 -65.834 -23 -96.501 -29c-19.333 -49.333 -34.666 -90 -45.999 -122c-21.333 -60 -32 -105.333 -32 -136c0 -16.667 7.33301 -25 22 -25
c11.333 0 43.666 14.667 96.999 44c20.667 11.333 68 39 142 83c50.667 30 77 45 79 45c11.333 0 18 -4.16699 20 -12.5s3 -21.166 3 -38.499c0 -20.667 -23 -48 -69 -82c-18 -13.333 -46.333 -32 -85 -56l-103 -61c-38.667 -22 -76.667 -42 -114 -60s-63 -27 -77 -27
c-10.667 0 -22 10.333 -34 31c-15.333 26.667 -23 60.334 -23 101.001c0 25.333 12.667 78.333 38 159c6 19.333 20 61 42 125c-4.66699 16.667 -7 27.667 -7 33c0 6 2.33301 14 7 24c4 14 13 27.333 27 40l25 23l72 188c27.333 57.333 58.666 86 93.999 86
c10 0 17.667 -6.66699 23 -20s8 -25.333 8 -36c0 -22.667 -8 -52.667 -24 -90l-39 -88c25.333 4 49.333 9.5 72 16.5l70 21.5l39 13.5c20 7 33.667 10.5 41 10.5c9.33301 0 16 -3.5 20 -10.5s5.33301 -14.5 4 -22.5z" />
    <glyph glyph-name="u" unicode="u" horiz-adv-x="587" 
d="M569 66c0 -13.333 -9.33008 -29.667 -27.9971 -49s-35.334 -29 -50.001 -29c-20.667 0 -39.334 6.16699 -56.001 18.5s-30.834 28 -42.501 47s-20.5 37.333 -26.5 55s-11.667 41.5 -17 71.5c-61.333 -70 -101.333 -112.667 -120 -128c-50 -42.667 -101.333 -64 -154 -64
c-14.667 0 -28.5 5.5 -41.5 16.5s-19.5 23.5 -19.5 37.5c0 16 3 40.333 9 73l33 152c18 76 37 132.667 57 170c25.333 47.333 54.666 71 87.999 71c8.66699 0 17.167 -3.83301 25.5 -11.5s12.5 -14.834 12.5 -21.501c0 -16.667 -4.33301 -37 -13 -61l-25 -68
c-11.333 -33.333 -19.666 -59 -24.999 -77c-10 -34 -15 -57.333 -15 -70c0 -14.667 0.833008 -24.167 2.5 -28.5s8.16699 -6.5 19.5 -6.5c13.333 0 31 10 53 30c2.66699 2.66699 41.667 45 117 127c16.667 62 38.667 107 66 135c20 20.667 41.667 31 65 31
c13.333 0 23.333 -4.16699 30 -12.5s10 -19.833 10 -34.5c0 -10 -9.33301 -51 -28 -123c-9.33301 -36 -14 -66 -14 -90c0 -29.333 9 -57.666 27 -84.999z" />
    <glyph glyph-name="v" unicode="v" horiz-adv-x="565" 
d="M589 355c-4.66699 -16.667 -11.6641 -30.499 -20.9971 -41.499s-20 -16.5 -32 -16.5c-14 0 -29.333 8.33301 -46 25c-8.66699 8.66699 -16 13 -22 13c-8 -1.33301 -27.333 -22.333 -58 -63l-80 -106c-60.667 -76.667 -96 -120.334 -106 -131.001
c-36.667 -40.667 -65.334 -61 -86.001 -61c-22.667 0 -39 10.667 -49 32c-7.33301 16 -11 38.667 -11 68c0 13.333 0.666992 25.5 2 36.5s2.66602 19.833 3.99902 26.5c-0.666992 41.333 -1.33398 95.666 -2.00098 162.999s-1 102.666 -1 105.999c0 44 8 78.333 24 103
c10 15.333 28 28.333 54 39c24.667 0 41.667 -13 51 -39c7.33301 -20 11 -49.333 11 -88c0 -8 -0.166992 -17 -0.5 -27s-0.5 -21.333 -0.5 -34c0 -24.667 -0.333008 -55.667 -1 -93s-1 -66.333 -1 -87l90 124c50 67.333 91.667 119.333 125 156c46 50.667 78.667 76 98 76
c41.333 0 62 -17.333 62 -52c1.33301 -4 2.33301 -9.16699 3 -15.5s1 -16.166 1 -29.499c0 -17.333 -0.5 -30.166 -1.5 -38.499s-3.16699 -23.5 -6.5 -45.5z" />
    <glyph glyph-name="w" unicode="w" horiz-adv-x="803" 
d="M902 509c0 -33.333 -4.00195 -62 -12.002 -86c-10.667 -31.333 -25.334 -47 -44.001 -47c-11.333 0 -20.666 7.16699 -27.999 21.5s-13 21.5 -17 21.5c-12.667 0 -27.667 -12.667 -45 -38c-4.66699 -6.66699 -13.334 -21.334 -26.001 -44.001l-79 -138
c-34 -57.333 -63.333 -100 -88 -128c-33.333 -38 -62.666 -57 -87.999 -57c-24 0 -41.667 21.667 -53 65c-8.66699 33.333 -13 74 -13 122c0 22 0.5 47.5 1.5 76.5s1.5 44.833 1.5 47.5c-3.33301 -7.33301 -30.666 -39.666 -81.999 -96.999
c-62 -69.333 -115.333 -124.666 -160 -165.999c-63.333 -58.667 -106.666 -88 -129.999 -88c-15.333 0 -27.333 4.33301 -36 13s-13 23 -13 43c0 32 15 98.333 45 199l34 110c20 74.667 33.667 121 41 139c24 57.333 53.667 86 89 86c10 0 17.833 -4.16699 23.5 -12.5
s8.5 -17.5 8.5 -27.5c0 -17.333 -8 -56 -24 -116l-55 -196c0 -7.33301 4.33301 -11 13 -11s34.667 25.667 78 77c74 87.333 114.667 135 122 143c48 51.333 81.667 77 101 77c32 0 52 -11 60 -33c4.66699 -12.667 7 -41.334 7 -86.001v-31c0 -26 0.833008 -48 2.5 -66
s9.5 -27 23.5 -27c9.33301 0 22.666 15 39.999 45l53 93c42.667 67.333 70.334 109 83.001 125c33.333 40.667 65.333 61 96 61c18.667 0 35 -7.66699 49 -23s21 -31 21 -47z" />
    <glyph glyph-name="x" unicode="x" horiz-adv-x="538" 
d="M545 501c0 -25.333 -32.667 -71.334 -98 -138.001l-83 -85l48 -70c20 -28 34.667 -42 44 -42c32.667 0 49 -21 49 -63c0 -29.333 -9.66699 -52.333 -29 -69s-40.666 -25 -63.999 -25c-16.667 0 -42.667 24.667 -78 74s-55.333 77.666 -60 84.999
c-23.333 -23.333 -43.333 -44.666 -60 -63.999c-25.333 -30 -39 -50.667 -41 -62c-4 -30 -10.667 -52 -20 -66c-12.667 -19.333 -32 -29 -58 -29c-14.667 0 -28 5 -40 15c-14.667 12.667 -22 29.667 -22 51c0 25.333 26.333 70 79 134c17.333 20.667 51.333 59 102 115
c-26.667 37.333 -63.667 78 -111 122c-26.667 14.667 -45.5 26.5 -56.5 35.5s-16.5 19.833 -16.5 32.5c0 12 9.16699 27.167 27.5 45.5s35.5 27.5 51.5 27.5c23.333 0 50.5 -13.167 81.5 -39.5s67.5 -67.166 109.5 -122.499l94 104c46.667 46.667 82 70 106 70
c11.333 0 21.666 -4 30.999 -12s14 -16 14 -24z" />
    <glyph glyph-name="y" unicode="y" horiz-adv-x="557" 
d="M490 150c-20.667 -75.333 -48.6641 -148.005 -83.9971 -218.005c-44 -87.333 -92 -156 -144 -206c-63.333 -60.667 -130 -91 -200 -91c-40.667 0 -77.334 8.66699 -110.001 26c-28 14.667 -42 27.667 -42 39c0 8.66699 11.833 28.834 35.5 60.501
s40.167 48.167 49.5 49.5c5.33301 0.666992 14 -2 26 -8c28 -14.667 52.667 -22 74 -22c38.667 0 76.334 15.667 113.001 47c43.333 37.333 80 92 110 164c13.333 32.667 22.666 57 27.999 73c2 6 11.667 46.333 29 121c-42.667 -40.667 -93 -79 -151 -115
c-66 -40.667 -118 -61 -156 -61c-10 0 -19.167 10 -27.5 30s-12.5 40 -12.5 60c0 75.333 18.833 159.5 56.5 252.5s69.834 141.833 96.501 146.5c12.667 2.66699 23.5 -1.5 32.5 -12.5s13.5 -23.5 13.5 -37.5c0 -1.33301 -9.83301 -37.5 -29.5 -108.5
s-30.5 -111.5 -32.5 -121.5c-0.666992 -6 1.16602 -13.667 5.49902 -23s8.83301 -14 13.5 -14c13.333 0 39.666 16.667 78.999 50c36 30.667 69.333 62 100 94c14 14.667 28.333 37.334 43 68.001c21.333 44 49.333 66 84 66c17.333 0 29 -4.5 35 -13.5s9 -20.833 9 -35.5
c0 -7.33301 -0.333008 -14.166 -1 -20.499s-1.33398 -12.166 -2.00098 -17.499c0 -17.333 -4.33301 -50.166 -13 -98.499s-18 -89.5 -28 -123.5z" />
    <glyph glyph-name="z" unicode="z" horiz-adv-x="552" 
d="M541 57c0 -22.667 -10.002 -43.3359 -30.002 -62.0029c-16.667 -15.333 -30.667 -23 -42 -23c-29.333 12 -56.333 22.333 -81 31s-48.667 13 -72 13c-25.333 0 -64.666 -5.33301 -117.999 -16l-163 -33c-10.667 0 -18.834 5.33301 -24.501 16s-8.5 23.334 -8.5 38.001
c0 10.667 26.667 49 80 115l150 183c54.667 68 82 107.667 82 119c0 9.33301 -2.66699 15.166 -8 17.499s-13.666 3.5 -24.999 3.5c-7.33301 0 -32.166 -6.5 -74.499 -19.5s-72.166 -19.5 -89.499 -19.5c-8.66699 0 -15.834 2.83301 -21.501 8.5s-8.5 12.834 -8.5 21.501
c0 24 24.167 47.5 72.5 70.5s98.833 34.5 151.5 34.5c39.333 0 72 -4.33301 98 -13c39.333 -13.333 59 -35.666 59 -66.999c0 -26 -22 -65.667 -66 -119c-25.333 -30 -69 -76.667 -131 -140c-52.667 -53.333 -83 -86.333 -91 -99
c43.333 6.66699 75.666 11.334 96.999 14.001c38 5.33301 71 8 99 8c36.667 0 73.334 -8.83301 110.001 -26.5s55 -36.167 55 -55.5z" />
    <glyph glyph-name="braceleft" unicode="{" horiz-adv-x="355" 
d="M278 -14c12.667 0 23.667 -3.50781 33 -10.5078s14 -19.833 14 -38.5c0 -16 -10 -26.667 -30 -32s-45.667 -8 -77 -8c-54 0 -91 2 -111 6c-39.333 8 -59 24.333 -59 49c0 16 7.16699 49.667 21.5 101l44 159c15 54.667 22.5 93.334 22.5 116.001
c0 8.66699 -10.167 16.334 -30.5 23.001s-30.5 18.334 -30.5 35.001c0 14.667 4.16699 26.167 12.5 34.5s17.5 12.5 27.5 12.5c16.667 0 27 0.333008 31 1c18 2.66699 30.333 11 37 25c10.667 22 24.667 62 42 120l47.5 159c16.333 54.667 28.833 91.334 37.5 110.001
s25.5 32.667 50.5 42s51.167 14 78.5 14c10.667 0 18.334 -0.333008 23.001 -1c36 -3.33301 55.333 -5.33301 58 -6c28.667 -4.66699 42 -17.667 40 -39c0 -18.667 -8.33301 -32.667 -25 -42c-13.333 -7.33301 -31 -11 -53 -11h-17c-6 0 -12 0.333008 -18 1
c-15.333 0 -27.333 -1.66699 -36 -5s-14.334 -9.66602 -17.001 -18.999l-29 -108c-36.667 -132.667 -57 -207.667 -61 -225s-19 -30.333 -45 -39c-19.333 -6 -38.666 -11.667 -57.999 -17c19.333 -9.33301 29.666 -14.666 30.999 -15.999c12.667 -9.33301 19 -21 19 -35
c0 -5.33301 -1 -11.666 -3 -18.999c-16 -46 -33.833 -106.167 -53.5 -180.5s-29.5 -119.166 -29.5 -134.499c0 -8.66699 8 -14.5 24 -17.5s35.333 -4.5 58 -4.5h31z" />
    <glyph glyph-name="bar" unicode="|" horiz-adv-x="417" 
d="M240 915c17.333 0 28.334 -6.83203 33.001 -20.499s7 -36.167 7 -67.5c0 -92.667 0.166992 -192.5 0.5 -299.5s0.833008 -233.833 1.5 -380.5s1 -221 1 -223c0.666992 -10 1 -18 1 -24c0 -26 -3.33301 -45 -10 -57c-10.667 -20 -30.334 -30 -59.001 -30
c-6.66699 0 -13 2.66699 -19 8c-8 7.33301 -12 18 -12 32v368v368.5c0 114.333 0.333008 212.166 1 293.499c0 13.333 5.16699 22 15.5 26s23.5 6 39.5 6z" />
    <glyph glyph-name="braceright" unicode="}" horiz-adv-x="405" 
d="M206 807c-13.333 0 -23.668 3.00391 -31.001 9.00391c-10.667 8.66699 -16 22 -16 40c0 16.667 9.5 27.5 28.5 32.5s45.5 7.5 79.5 7.5c53.333 0 90 -2 110 -6c39.333 -8 59 -24.333 59 -49c0 -14.667 -7.16699 -48 -21.5 -100l-43.5 -160.5
c-14.667 -55 -22 -93.167 -22 -114.5c0 -9.33301 10 -17.333 30 -24s30 -18.334 30 -35.001c0 -14 -4 -25 -12 -33s-17 -12.667 -27 -14c-20 0 -34.833 -1.33301 -44.5 -4s-17.5 -9.66699 -23.5 -21c-11.333 -24 -25.166 -63.167 -41.499 -117.5l-47.5 -158.5
c-17.333 -57.333 -30.333 -95.333 -39 -114s-25.5 -32.667 -50.5 -42s-51.167 -14 -78.5 -14c-10.667 0 -18.334 0.333008 -23.001 1c-37.333 4 -56.666 6 -57.999 6c-28.667 4.66699 -42 18 -40 40c0 18.667 7.66699 32 23 40s33.666 12 54.999 12
c14.667 -0.666992 25.667 -1 33 -1c16 0 28.667 1.66699 38 5s15 10 17 20c8 32 17.667 68 29 108c36.667 132.667 57.167 207.5 61.5 224.5s19.5 29.833 45.5 38.5l57 17c-19.333 9.33301 -29.666 14.666 -30.999 15.999c-12.667 9.33301 -19 21 -19 35
c0 5.33301 1 11.666 3 18.999c16 46 33.833 106.167 53.5 180.5s29.5 119.166 29.5 134.499c0.666992 8.66699 -7 14.5 -23 17.5s-35.333 4.5 -58 4.5h-32z" />
    <glyph glyph-name="asciitilde" unicode="~" 
d="M515 831c0 -32.667 -16.999 -62 -50.999 -88c-31.333 -24 -64.333 -36 -99 -36c-32 0 -61.333 6 -88 18c-17.333 8 -35.333 19.333 -54 34l-23 -27c-12.667 -12.667 -32 -19 -58 -19c-14 0 -26.5 4.33301 -37.5 13s-16.5 19.667 -16.5 33c0 18 18.333 48.333 55 91
c40.667 47.333 77.334 71 110.001 71c6.66699 0 26.167 -11.5 58.5 -34.5s71.166 -34.5 116.499 -34.5c9.33301 0 18.666 2.33301 27.999 7s16.333 7 21 7c10.667 0 19.667 -2.83301 27 -8.5s11 -14.5 11 -26.5z" />
    <glyph glyph-name="c128" horiz-adv-x="552" 
d="M309 687c80 10.667 138.502 17.832 175.502 21.499s67.5 5.5 91.5 5.5c34.667 0 59.667 -5.66699 75 -17s23 -31.666 23 -60.999c0 -21.333 -14.667 -42.166 -44 -62.499s-55.333 -30.5 -78 -30.5s-38 5.5 -46 16.5s-20.667 16.5 -38 16.5s-36 -1.33301 -56 -4
c-50 -6.66699 -76.667 -10 -80 -10l-25 -74c-12 -34 -22 -59.333 -30 -76c18 10 42 18.667 72 26s58.667 11 86 11c34.667 0 65.167 -14.333 91.5 -43s39.5 -65 39.5 -109c0 -93.333 -29 -175.833 -87 -247.5s-125.667 -107.5 -203 -107.5c-49.333 0 -84 11 -104 33
c-16 18 -24 45.667 -24 83c0 8.66699 4.5 17.5 13.5 26.5s18.833 14.5 29.5 16.5c12.667 -1.33301 23.167 -2.33301 31.5 -3s16.666 -5.16699 24.999 -13.5s14.5 -14.166 18.5 -17.499c7.33301 -6 18.666 -9 33.999 -9c52.667 0 92 22.333 118 67
c19.333 32.667 29 69.667 29 111s-6 69.666 -18 84.999s-34 23 -66 23c-46 0 -87.667 -15.667 -125 -47c-5.33301 -32 -10.5 -58.333 -15.5 -79s-12.5 -41.334 -22.5 -62.001c-5.33301 -13.333 -10 -23.666 -14 -30.999c-7.33301 -13.333 -15.333 -23.666 -24 -30.999
c-14 -12 -23 -19 -27 -21c-9.33301 -4.66699 -22.333 -7 -39 -7c-14 1.33301 -24.667 8.33301 -32 21s-11 28.667 -11 48c0 23.333 11.333 61.666 34 114.999c15.333 34 25.666 57.667 30.999 71c17.333 40 34 80.333 50 121l39 99c-73.333 -14.667 -132.333 -22 -177 -22
c-15.333 0 -29.166 4 -41.499 12s-18.5 19.333 -18.5 34c0 40 18.333 64.333 55 73c23.333 5.33301 61 12.666 113 21.999c62.667 11.333 119.667 20.333 171 27z" />
    <glyph glyph-name="c129" horiz-adv-x="399" 
d="M13 63c0 31.333 6.33789 70.3301 19.0049 116.997c4.66699 17.333 19.667 64.333 45 141c11.333 34.667 22.666 65.667 33.999 93l55 127l-56 21c-13.333 6.66699 -20 15.667 -20 27c0 24 11.667 44.333 35 61c31.333 22.667 80.666 37 147.999 43
c16.667 0 49.667 2.66699 99 8s86.333 8 111 8c44.667 0 73.834 -4.66699 87.501 -14s20.5 -29.666 20.5 -60.999c0 -21.333 -14.667 -42.166 -44 -62.499s-55.333 -30.5 -78 -30.5s-38 5.33301 -46 16s-20.667 16 -38 16c-22.667 0 -42.834 -2 -60.501 -6
s-31.834 -7.33301 -42.501 -10c-16.667 -42 -30.334 -79.333 -41.001 -112c-14.667 -44 -27.834 -90 -39.501 -138s-20.167 -87 -25.5 -117c-7.33301 -40.667 -11 -76 -11 -106c0 -25.333 -6.33301 -46.333 -19 -63c-15.333 -20 -37 -30 -65 -30
c-16 0 -31.333 7.33301 -46 22s-22 31.334 -22 50.001zM608.005 911.997c0 -24 -5.33203 -47 -15.999 -69c-14.667 -30 -35 -45 -61 -45c-23.333 0 -57.333 -8.83301 -102 -26.5l-135 -53.5c-6.66699 0 -15.334 6 -26.001 18s-16 21 -16 27
c0 30.667 39.833 67.5 119.5 110.5s138.5 64.5 176.5 64.5c40 0 60 -8.66699 60 -26z" />
    <glyph glyph-name="c141" horiz-adv-x="620" 
d="M730 596c0 -26.667 -8.49902 -47.5029 -25.499 -62.5029s-40.167 -24.5 -69.5 -28.5c-20 -2 -58 -19.667 -114 -53c-44 -26 -83 -51.333 -117 -76l82 -109c44 -55.333 75.667 -87.666 95 -96.999c15.333 -6.66699 25.333 -15.5 30 -26.5s7 -26.167 7 -45.5
c0 -22.667 -9.5 -41.5 -28.5 -56.5s-41.5 -22.5 -67.5 -22.5c-4.66699 0.666992 -8.33398 1 -11.001 1c-27.333 2.66699 -68.333 46 -123 130c-4.66699 7.33301 -37.667 62.666 -99 165.999c-11.333 -7.33301 -20 -12.666 -26 -15.999s-17.333 -8.33301 -34 -15l-27 -50
c-10 -19.333 -19 -38 -27 -56c-4 -10 -6 -20.667 -6 -32c0 -6.66699 0.333008 -14.5 1 -23.5s1.66699 -18.833 3 -29.5c0 -6 -0.333008 -10.333 -1 -13c-4 -21.333 -16 -38.166 -36 -50.499s-41.667 -18.5 -65 -18.5c-18 -2 -33.5 4.16699 -46.5 18.5s-19.5 31.5 -19.5 51.5
c0 10 7.33301 34 22 72c48 124.667 76.333 200.334 85 227.001c35.333 114 67 194.667 95 242c25.333 42.667 52 64 80 64c10.667 0 20.667 -5 30 -15s14 -21 14 -33c0 -18.667 -8.66699 -52.667 -26 -102l-41 -117c0.666992 0 34.667 23.333 102 70
c73.333 50 130 87 170 111c65.333 38.667 109 58 131 58c42 0 63 -21 63 -63zM755.001 890.997c0 -24 -5.33203 -47 -15.999 -69c-14.667 -30 -35 -45 -61 -45c-23.333 0 -57.333 -8.83301 -102 -26.5l-135 -53.5c-6.66699 0 -15.334 6 -26.001 18s-16 21 -16 27
c0 30.667 39.833 67.5 119.5 110.5s138.5 64.5 176.5 64.5c40 0 60 -8.66699 60 -26z" />
    <glyph glyph-name="c142" horiz-adv-x="605" 
d="M513 165c-1.33301 -8 -1.33691 -18.335 -0.00390625 -31.002c4 -44.667 6 -68.334 6 -71.001c0 -25.333 -3.66699 -42.666 -11 -51.999c-10.667 -13.333 -33 -20 -67 -20c-17.333 1.33301 -32.666 9.16602 -45.999 23.499s-20 29.5 -20 45.5c0 14 4.66699 36.333 14 67
c23.333 76 35.666 119.833 36.999 131.5s2 20.167 2 25.5c0 19.333 -4.33301 33.666 -13 42.999c-10.667 11.333 -28 17 -52 17c-46 0 -87.667 -15.667 -125 -47l-16 -105c-7.33301 -42.667 -15.666 -73.667 -24.999 -93c-5.33301 -13.333 -10 -23.666 -14 -30.999
c-7.33301 -13.333 -15.333 -23.666 -24 -30.999c-14 -12 -23 -19 -27 -21c-9.33301 -4.66699 -22.333 -7 -39 -7c-14 1.33301 -24.667 8.33301 -32 21s-11 28.667 -11 48c0 22.667 8.33301 62.334 25 119.001c14.667 49.333 29 90.666 43 123.999
c17.333 40 34 80.333 50 121l39 99c-73.333 -14.667 -132.333 -22 -177 -22c-15.333 0 -29.166 4 -41.499 12s-18.5 19.333 -18.5 34c0 40 18.333 64.333 55 73c23.333 5.33301 61 12.666 113 21.999c62.667 11.333 119.667 20.333 171 27
c80 10.667 138.5 17.834 175.5 21.501s67.5 5.5 91.5 5.5c34.667 0 59.667 -5.66699 75 -17s23 -31.666 23 -60.999c0 -21.333 -14.667 -42.166 -44 -62.499s-55.333 -30.5 -78 -30.5s-38 5.5 -46 16.5s-20.667 16.5 -38 16.5s-36 -1.33301 -56 -4
c-50 -6.66699 -76.667 -10 -80 -10l-25 -74c-12 -34 -22 -59.333 -30 -76c16.667 9.33301 40.834 16.5 72.501 21.5s63.167 7.5 94.5 7.5c36 0 62.333 -12.333 79 -37c14 -20.667 21 -49 21 -85v-19c-0.666992 -5.33301 -1 -9.33301 -1 -12
c-2 -25.333 -7.16699 -50 -15.5 -74s-13.166 -40.333 -14.499 -49z" />
    <glyph glyph-name="c143" horiz-adv-x="630" 
d="M280 -88l-29 -59.998c-14 -22.667 -31 -34 -51 -34c-17.333 0 -29.333 6 -36 18c-2.66699 5.33301 -6 18.333 -10 39c-2 8.66699 3 27.334 15 56.001c17.333 42 26.333 64.333 27 67h-40c-12.667 0 -25 -0.333008 -37 -1c-30.667 0 -50.667 1 -60 3
c-25.333 5.33301 -38 21.666 -38 48.999c0 20 14.667 76.333 44 169l51 158l66 214c26.667 69.333 58 104 94 104c10 0 20.333 -5.33301 31 -16s16 -22.334 16 -35.001c0 -24.667 -16.667 -88.334 -50 -191.001l-51 -155l-37 -121c-8 -23.333 -14 -37 -18 -41
c6.66699 -0.666992 14.5 -1.16699 23.5 -1.5s18.5 -0.5 28.5 -0.5c20 0 43.5 0.333008 70.5 1s55.833 1.66699 86.5 3l43 124c20 56.667 32.667 93.667 38 111c12 36.667 24.333 78.5 37 125.5s22.667 80.833 30 101.5c25.333 68 57.333 102 96 102
c15.333 0 26.333 -5.5 33 -16.5s10 -28.5 10 -52.5c0 -26.667 -17.667 -94.334 -53 -203.001l-97 -297l-24 -85c-12 -29.333 -30 -44 -54 -44c-19.333 0 -38.833 -0.166992 -58.5 -0.5s-39.834 -0.5 -60.501 -0.5c-7.33301 -22 -12.666 -37.167 -15.999 -45.5
s-10 -23.166 -20 -44.499z" />
    <glyph glyph-name="c144" horiz-adv-x="574" 
d="M292 581l-82.9951 -248c-16 -46.667 -26.333 -79 -31 -97l44 47l125 167c58 71.333 102 107 132 107c14 0 24.667 -9.5 32 -28.5s11 -52.167 11 -99.5c0 -52.667 -14.333 -135.667 -43 -249c-24.667 -98 -45.334 -166.667 -62.001 -206l-50 -121
c-33.333 -72 -68 -128.333 -104 -169c-50 -56.667 -102.333 -85 -157 -85c-39.333 0 -81.333 21 -126 63c-48.667 46 -73 93.667 -73 143c0 9.33301 12 24 36 44c14 11.333 26.333 18 37 20c7.33301 1.33301 23.166 -23.167 47.499 -73.5s56.166 -75.5 95.499 -75.5
c34 0 64 20.333 90 61c2.66699 4 35.667 84 99 240c14.667 35.333 27.667 77.333 39 126l24 105c4 17.333 6.83301 30.666 8.5 39.999s2.5 22 2.5 38l-74 -89l-63 -74c-56 -62 -100 -104.333 -132 -127c-22.667 -16 -43 -24 -61 -24c-14.667 0 -25.167 5 -31.5 15
s-10.5 22.333 -12.5 37l145 492c-26 -3.33301 -42.333 -4.66602 -49 -3.99902c-14.667 0 -24.5 2 -29.5 6s-7.5 13.667 -7.5 29c0 18 11.667 35.167 35 51.5s52.666 29.833 87.999 40.5c9.33301 34 16.333 56.667 21 68c18.667 45.333 44.334 68 77.001 68
c20 0 33.667 -3 41 -9s11 -14.667 11 -26c0 -8 -1.33301 -18.5 -4 -31.5s-6.33398 -29.5 -11.001 -49.5c23.333 0 43.5 0.5 60.5 1.5l57.5 3.5c43.333 0 72.666 -5.66699 87.999 -17c10.667 -8 16 -21.667 16 -41c-4 -39.333 -34.667 -59 -92 -59
c-18 0 -41 -0.833008 -69 -2.5s-60.667 -4.16699 -98 -7.5z" />
    <glyph glyph-name="c157" horiz-adv-x="521" 
d="M350 264c8 -30 26 -56.665 54 -79.998l75 -51l44.5 -26c15 -8.66699 22.5 -16.334 22.5 -23.001c2 -12 -7.66699 -28.667 -29 -50s-42 -32 -62 -32c-30.667 0 -66 17.167 -106 51.5s-70.667 70.833 -92 109.5c-33.333 -38 -64.333 -69.333 -93 -94
c-42.667 -37.333 -76 -56 -100 -56c-12.667 0 -22.167 5.33301 -28.5 16s-9.5 22.334 -9.5 35.001c0 37.333 6.66699 87 20 149s27.333 114.333 42 157c12 36 24.667 67.333 38 94c16 32.667 29 49.667 39 51c14 1.33301 31.167 -3.33398 51.5 -14.001
s29.833 -23.334 28.5 -38.001c-1.33301 -12 -9.83301 -44.833 -25.5 -98.5s-33.167 -109.5 -52.5 -167.5c34 44 67.333 85 100 123c44 51.333 82 91.333 114 120c40 36 69.667 54 89 54c16 0 25.667 -4.66699 29 -14s5 -26.333 5 -51c0 -32 -10.667 -55.667 -32 -71
l-54.5 -34c-14.333 -8.66699 -28.5 -20 -42.5 -34zM659 755.002c0 -24 -5.33203 -47 -15.999 -69c-14.667 -30 -35 -45 -61 -45c-23.333 0 -57.333 -8.83301 -102 -26.5l-135 -53.5c-6.66699 0 -15.334 6 -26.001 18s-16 21 -16 27c0 30.667 39.833 67.5 119.5 110.5
s138.5 64.5 176.5 64.5c40 0 60 -8.66699 60 -26z" />
    <glyph glyph-name="c158" horiz-adv-x="574" 
d="M249 167c-56 -62 -99.9971 -104.334 -131.997 -127.001c-22.667 -16 -43 -24 -61 -24c-14.667 0 -25.167 5 -31.5 15s-10.5 22.333 -12.5 37l145 492c-26 -3.33301 -42.333 -4.66602 -49 -3.99902c-14.667 0 -24.5 2 -29.5 6s-7.5 13.667 -7.5 29
c0 18 11.667 35.167 35 51.5s52.666 29.833 87.999 40.5c9.33301 34 16.333 56.667 21 68c18.667 45.333 44.334 68 77.001 68c20 0 33.667 -3 41 -9s11 -14.667 11 -26c0 -8 -1.33301 -18.5 -4 -31.5s-6.33398 -29.5 -11.001 -49.5c23.333 0 43.5 0.5 60.5 1.5l57.5 3.5
c43.333 0 72.666 -5.66699 87.999 -17c10.667 -8 16 -21.667 16 -41c-4 -39.333 -34.667 -59 -92 -59c-18 0 -41 -0.833008 -69 -2.5s-60.667 -4.16699 -98 -7.5l-83 -248c-16 -46.667 -26.333 -79 -31 -97l44 47l125 167c58 71.333 102 107 132 107
c19.333 0 31.666 -8.16699 36.999 -24.5s8 -40.833 8 -73.5c0 -28 -2.33301 -65.333 -7 -112s-7 -79 -7 -97c0 -11.333 6.83301 -32.333 20.5 -63s20.5 -50 20.5 -58c0 -32.667 -10 -61.667 -30 -87s-46 -38 -78 -38c-14 0 -27.333 5.66699 -40 17
c-14.667 13.333 -22 30 -22 50c0 8.66699 0.666992 36 2 82s2 80.333 2 103l1 74l-75 -90c-28 -34 -48.667 -58.333 -62 -73z" />
    <glyph glyph-name="nonbreakingspace" unicode="&#xa0;" horiz-adv-x="441" 
d="M441 817c0 -24 -5 -42.667 -15 -56c-12 -16 -30.333 -24 -55 -24c-42.667 0 -64 18 -64 54c0 12.667 10.333 33.667 31 63c13.333 18.667 25 28 35 28c16 0 31.333 -7.33301 46 -22s22 -29 22 -43zM239 819c0 -20.667 -7.33203 -38.668 -21.999 -54.001
s-32.334 -23 -53.001 -23c-22 0 -38.333 4.5 -49 13.5s-16 19.5 -16 31.5c0 8.66699 12.333 29.334 37 62.001c14 18.667 24.333 28 31 28c18 0 35 -7.66699 51 -23c14 -13.333 21 -25 21 -35z" />
    <glyph glyph-name="exclamdown" unicode="&#xa1;" 
d="M242 243c-5.33301 8.66699 -21.667 41.333 -49 98c-24.667 51.333 -46 90.666 -64 117.999c-19.333 20 -33.666 35.667 -42.999 47c-16.667 20.667 -25 45.334 -25 74.001c0 26 7.33301 47.333 22 64s34.667 25 60 25c35.333 0 75.333 -49.667 120 -149
c26 -63.333 44 -106.333 54 -129l72 169c42.667 88.667 78 133 106 133c14.667 0 28.5 -5 41.5 -15s19.5 -20.667 19.5 -32c0 -13.333 -8.33301 -40 -25 -80c-13.333 -32 -33.666 -76.667 -60.999 -134l-80 -168c-44 -89.333 -74 -146.666 -90 -171.999
c-18.667 -29.333 -38 -53.333 -58 -72c-23.333 -22 -47 -37 -71 -45c-18 -6 -40.333 -9 -67 -9c-16.667 0 -31.334 13 -44.001 39s-19 51.333 -19 76c0 17.333 16.667 31 50 41c15.333 4 30.666 8.33301 45.999 13c28.667 9.33301 49 21.666 61 36.999zM555.999 819.999
c0 -26 -27.168 -56.167 -81.501 -90.5s-108.5 -51.5 -162.5 -51.5c-46.667 0 -82.334 16 -107.001 48c-20.667 26.667 -31 58 -31 94c0 16.667 5 30 15 40s26.667 15 50 15c21.333 0 38 -3.33301 50 -10c8.66699 -4.66699 16.334 -12.667 23.001 -24
c6.66699 -16 11.667 -27 15 -33c6 -10.667 15 -16 27 -16c26.667 0 51.334 3 74.001 9c29.333 8 58 21.333 86 40c8 4.66699 14.667 7 20 7c14.667 0 22 -9.33301 22 -28z" />
    <glyph glyph-name="cent" unicode="&#xa2;" horiz-adv-x="489" 
d="M350 211c-9.33301 -8.66699 -38.6621 -38.335 -87.9951 -89.002c-42 -43.333 -74 -73.333 -96 -90c-36 -27.333 -66.667 -41 -92 -41c-18.667 0 -33 9 -43 27s-15 38 -15 60c0 80 18.667 168.5 56 265.5s72.333 145.5 105 145.5c12.667 0 23.167 -5.16699 31.5 -15.5
s12.5 -21.833 12.5 -34.5c0 -0.666992 -13.5 -41.5 -40.5 -122.5s-40.5 -127.167 -40.5 -138.5c0 -12 1.33301 -21.833 4 -29.5s9 -11.5 19 -11.5c15.333 0 51.5 35.333 108.5 106s100.167 136 129.5 196c6 13.333 15.833 24.5 29.5 33.5s26.5 13.5 38.5 13.5
s20 -1.33301 24 -4c7.33301 -5.33301 11 -16.666 11 -33.999c0 -51.333 -14.667 -135 -44 -251c-20 -79.333 -39.667 -148 -59 -206l-43 -141c-28.667 -82.667 -60.334 -148.667 -95.001 -198c-46.667 -67.333 -97.334 -101 -152.001 -101c-39.333 0 -81.333 21 -126 63
c-48.667 46 -73 93.667 -73 143c0 6.66699 8.66699 18.5 26 35.5s33 26.5 47 28.5c7.33301 1.33301 23.166 -23.167 47.499 -73.5s56.166 -75.5 95.499 -75.5c30 0 57 22.667 81 68c16.667 31.333 34 81.333 52 150l40 153c6.66699 26.667 13.167 51.334 19.5 74.001
s16.166 54 29.499 94zM586.004 693.999c0 -26 -27.168 -56.167 -81.501 -90.5s-108.5 -51.5 -162.5 -51.5c-46.667 0 -82.334 16 -107.001 48c-20.667 26.667 -31 58 -31 94c0 16.667 5 30 15 40s26.667 15 50 15c21.333 0 38 -3.33301 50 -10
c8.66699 -4.66699 16.334 -12.667 23.001 -24c6.66699 -16 11.667 -27 15 -33c6 -10.667 15 -16 27 -16c26.667 0 51.334 3 74.001 9c29.333 8 58 21.333 86 40c8 4.66699 14.667 7 20 7c14.667 0 22 -9.33301 22 -28z" />
    <glyph glyph-name="sterling" unicode="&#xa3;" horiz-adv-x="581" 
d="M701 589c0 -26 -7.66797 -47.999 -23.001 -65.999s-34 -27 -56 -27c-14 0 -26 1.33301 -36 4c-25.333 6.66699 -41.333 10 -48 10c-12.667 -20.667 -23.334 -41.334 -32.001 -62.001c-10.667 -26 -20.334 -58.667 -29.001 -98c-14 -67.333 -27.333 -122.333 -40 -165
c-17.333 -58.667 -34.666 -103.334 -51.999 -134.001c-20.667 -36.667 -42.667 -55 -66 -55c-10 0 -41.333 7.66699 -94 23c-71.333 20.667 -128.666 44 -171.999 70c-62 36.667 -93 76.334 -93 119.001c0 11.333 9 26.333 27 45c22.667 23.333 49.334 35 80.001 35
c19.333 0 33 -2.83301 41 -8.5s12 -12.5 12 -20.5c0 -6.66699 -1.66699 -13.667 -5 -21c-0.666992 -2 -2.66699 -5 -6 -9c0 -11.333 20.333 -25.333 61 -42c34 -14 74.667 -25.667 122 -35c15.333 30 29.166 69.833 41.499 119.5s25 96.667 38 141s22.833 72.833 29.5 85.5
c-17.333 -3.33301 -33.5 -6 -48.5 -8s-29.833 -3 -44.5 -3c-29.333 0 -51.333 3 -66 9c-20 8 -30 22 -30 42c0 32 18.833 55.5 56.5 70.5s87.5 22.5 149.5 22.5c16.667 0 56.334 3.33301 119.001 10c20.667 2 50.334 5.33301 89.001 10c15.333 0 31.666 -6.5 48.999 -19.5
s26 -27.167 26 -42.5z" />
    <glyph glyph-name="yen" unicode="&#xa5;" horiz-adv-x="434" 
d="M485 579c-13.333 -5.33301 -26.6602 -7.99902 -39.9932 -7.99902c-8 0 -18 0.5 -30 1.5s-18.333 1.5 -19 1.5c-7.33301 0 -13.333 -0.333008 -18 -1c-35.333 -4 -67.333 -9.33301 -96 -16c-16.667 -42 -30.334 -79.333 -41.001 -112
c-14.667 -44 -27.834 -90 -39.501 -138s-20.167 -87 -25.5 -117c-7.33301 -40.667 -11 -76 -11 -106c0 -25.333 -6.33301 -46.333 -19 -63c-15.333 -20 -37 -30 -65 -30c-16 0 -31.333 7.33301 -46 22s-22 31.334 -22 50.001c0 31.333 6.33301 70.333 19 117
c4.66699 17.333 19.667 64.333 45 141c11.333 34.667 22.666 65.667 33.999 93l55 127l-56 21c-13.333 6.66699 -20 15.667 -20 27c0 24 11.667 44.333 35 61c31.333 22.667 80.666 37 147.999 43c18 0 40 1.33301 66 4c58 6 94.333 9 109 9
c4.66699 11.333 7 20.666 7 27.999c0 5.33301 -0.666992 9.66602 -2 12.999c-10.667 15.333 -19.334 28.5 -26.001 39.5s-10 20.167 -10 27.5c0 10 11.333 27.333 34 52s39 37 49 37c21.333 0 39.666 -11.833 54.999 -35.5s23 -52.167 23 -85.5
c0 -64 -9.33301 -112.667 -28 -146c-14.667 -26 -36.334 -45 -65.001 -57z" />
    <glyph glyph-name="brokenbar" unicode="&#xa6;" horiz-adv-x="417" 
d="M281 264c0 -53.333 0.167969 -108.332 0.500977 -164.999s0.833008 -115 1.5 -175c0.666992 -10 1 -18 1 -24c0 -26 -3.33301 -45 -10 -57c-10.667 -20 -30.334 -30 -59.001 -30c-6.66699 0 -13 2.66699 -19 8c-8 7.33301 -12 18 -12 32
c0 41.333 -0.666992 86.333 -2 135c-4.66699 169.333 -7 260.666 -7 273.999c0 10.667 6.33301 22.667 19 36s26 19.333 40 18c13.333 -2 24.5 -8.16699 33.5 -18.5s13.5 -21.5 13.5 -33.5zM234.001 370.001c-14 -1.33301 -26.832 4.49805 -38.499 17.498
s-17.5 25.167 -17.5 36.5c0 53.333 0.833008 126.5 2.5 219.5s3.16699 172.833 4.5 239.5c0 14 5.16699 25.167 15.5 33.5s22.166 12.5 35.499 12.5c18 0 30 -4.83301 36 -14.5s9 -24.167 9 -43.5c0 -7.33301 -0.166992 -14.666 -0.5 -21.999s-0.5 -14.666 -0.5 -21.999
l1 -401c0 -11.333 -4.66699 -23.5 -14 -36.5s-20.333 -19.5 -33 -19.5z" />
    <glyph glyph-name="section" unicode="&#xa7;" horiz-adv-x="403" 
d="M527 628c0 -19.333 -5.33496 -37.3311 -16.002 -53.998s-22.667 -25 -36 -25s-25.333 3.33301 -36 10s-16.667 14.667 -18 24c1.33301 8.66699 2 17.334 2 26.001c0 6 -6.33301 9 -19 9c-25.333 0 -49.666 -7.33301 -72.999 -22c-27.333 -17.333 -41 -37.666 -41 -60.999
c0 -14.667 3.66699 -30.667 11 -48s18 -35.666 32 -54.999c24 -32.667 40.667 -59.667 50 -81c12 -27.333 18 -56 18 -86s-9.5 -54.833 -28.5 -74.5s-48.5 -34.5 -88.5 -44.5c-8 -1.33301 -18.333 -2 -31 -2c-16 0 -28 0.333008 -36 1c-10 2 -17 3 -21 3
c16.667 -20.667 32.334 -43.667 47.001 -69c19.333 -33.333 29 -58.333 29 -75c0 -40.667 -20.333 -72.334 -61 -95.001c-32.667 -18 -67 -27 -103 -27c-50.667 0 -87.667 16.333 -111 49c-17.333 24 -24 49 -20 75c6 20 12 33.667 18 41
c8.66699 9.33301 18.667 13.666 30 12.999c16.667 -2 30 -7 40 -15c6.66699 -4.66699 13 -12.667 19 -24s10 -18.333 12 -21c6 -8 14 -12 24 -12c12 0 22.333 2 31 6s14 10.5 16 19.5s3 15.167 3 18.5c0 8 -1.5 15.333 -4.5 22s-8.83301 15 -17.5 25
c-33.333 36.667 -58 69 -74 97c-24.667 43.333 -37 88 -37 134c0 45.333 23.333 80.666 70 105.999c34 18.667 65.333 28 94 28c20 0 34 -4.66699 42 -14c6 -6.66699 9 -17.334 9 -32.001c0 -9.33301 -0.666992 -19.333 -2 -30s-7.66602 -18.334 -18.999 -23.001
s-27.333 -7 -48 -7c-16 0 -28.333 -2.5 -37 -7.5s-15 -16.833 -19 -35.5c-0.666992 -2 -1 -4.16699 -1 -6.5v-4.5c0 -17.333 7.16699 -32.666 21.5 -45.999s34.5 -20 60.5 -20c21.333 0 40.166 5 56.499 15s26.166 23.333 29.499 40c0.666992 3.33301 1 8.66602 1 15.999
c0 25.333 -16 67.333 -48 126s-48 97.667 -48 117c0 37.333 15.333 77 46 119c38.667 53.333 87.334 80 146.001 80c52 0 89 -11.333 111 -34c16.667 -16.667 25 -39.667 25 -69z" />
    <glyph glyph-name="dieresis" unicode="&#xa8;" horiz-adv-x="482" 
d="M647 658c0 -35.333 -17.332 -59.667 -51.999 -73c-24.667 -9.33301 -64 -14 -118 -14c-34 0 -72.667 -3 -116 -9l-76 -12l-45 -152c8 0 38.833 3.83301 92.5 11.5s89.834 11.5 108.501 11.5c18 0 32.667 -1.16699 44 -3.5s17 -12.166 17 -29.499
c0 -44.667 -50.333 -77.334 -151 -98.001c-30.667 -6.66699 -78.334 -13.334 -143.001 -20.001l-49 -142c17.333 4.66699 58.333 12.5 123 23.5s103.334 16.5 116.001 16.5c34.667 0 57.667 -3 69 -9c16 -8.66699 24 -26.667 24 -54c0 -30 -8 -51.667 -24 -65
c-12 -10 -28 -15 -48 -15c-9.33301 0 -17.166 0.5 -23.499 1.5s-11.5 2.16699 -15.5 3.5c-39.333 0 -87.833 -5.66699 -145.5 -17l-170.5 -35c-15.333 0 -28.5 5.5 -39.5 16.5s-16.5 22.5 -16.5 34.5c1.33301 9.33301 21.333 79 60 209l50.5 170
c6.33301 22 14 43.833 23 65.5s19.5 43.167 31.5 64.5c-14.667 0 -26.334 2.66699 -35.001 8c-12.667 7.33301 -17.667 18.333 -15 33c5.33301 28.667 44.666 53.334 117.999 74.001s163.666 31 270.999 31h77c38.667 -1.33301 58 -10 58 -26zM581.001 856.999
c0 -24 -5 -42.667 -15 -56c-12 -16 -30.333 -24 -55 -24c-42.667 0 -64 18 -64 54c0 12.667 10.333 33.667 31 63c13.333 18.667 25 28 35 28c16 0 31.333 -7.33301 46 -22s22 -29 22 -43zM379.001 858.999c0 -20.667 -7.33203 -38.668 -21.999 -54.001
s-32.334 -23 -53.001 -23c-22 0 -38.333 4.5 -49 13.5s-16 19.5 -16 31.5c0 8.66699 12.333 29.334 37 62.001c14 18.667 24.333 28 31 28c18 0 35 -7.66699 51 -23c14 -13.333 21 -25 21 -35z" />
    <glyph glyph-name="copyright" unicode="&#xa9;" horiz-adv-x="753" 
d="M794 453c0 -56 -6.83301 -106.999 -20.5 -152.999s-37.167 -94.667 -70.5 -146c-43.333 -68 -89.666 -119 -138.999 -153c-56.667 -39.333 -121 -59 -193 -59c-76.667 0 -140.334 37.667 -191.001 113c-45.333 67.333 -68 143.666 -68 228.999
c0 108 47.667 209.333 143 304c92 91.333 186.333 137 283 137c68.667 0 128.5 -26.667 179.5 -80s76.5 -117.333 76.5 -192zM697 440.001c0 60.667 -13.835 108.5 -41.502 143.5s-65.167 52.5 -112.5 52.5c-77.333 0 -152 -35.333 -224 -106s-108 -142.667 -108 -216
c0 -78 11.667 -141.333 35 -190c30 -62.667 76.667 -94 140 -94c56.667 0 106.334 17.667 149.001 53c34 28 69 72 105 132c22.667 37.333 37.834 72.833 45.501 106.5s11.5 73.167 11.5 118.5zM605.998 445.001c0 -12.667 -3.16602 -23.665 -9.49902 -32.998
s-15.5 -14 -27.5 -14c-10 0 -20 2.66699 -30 8c-23.333 12 -40.666 18 -51.999 18c-19.333 0 -40.166 -18.5 -62.499 -55.5s-33.5 -69.5 -33.5 -97.5c0 -8 1.16699 -13.5 3.5 -16.5s8.83301 -4.5 19.5 -4.5c11.333 0 30 7 56 21l92 50c26 0 39 -10.667 39 -32
c0 -14 -12 -31 -36 -51c-20.667 -17.333 -48.334 -35.333 -83.001 -54c-19.333 -10.667 -37.5 -17.834 -54.5 -21.501s-36.167 -5.5 -57.5 -5.5c-20.667 0 -38.334 11.167 -53.001 33.5s-22 46.166 -22 71.499c0 54 17.333 107.667 52 161c41.333 64 92.666 96 153.999 96
c30 0 55 -7.66699 75 -23s30 -32.333 30 -51z" />
    <glyph glyph-name="ordfeminine" unicode="&#xaa;" horiz-adv-x="472" 
d="M553 607c0 -21.333 -9.00195 -41.332 -27.002 -59.999s-36.333 -28 -55 -28c-3.33301 0 -13 5.16699 -29 15.5s-30.333 15.5 -43 15.5c-56 0 -104.667 -33.333 -146 -100c-53.333 -86 -80 -162.667 -80 -230c2 -13.333 3.66699 -23 5 -29c6 -20 13.667 -30 23 -30
c18 0 65 16 141 48s118 48 126 48c14 0 24.167 -4.5 30.5 -13.5s9.5 -26.833 9.5 -53.5c0 -25.333 -30.667 -55 -92 -89c-47.333 -26 -106.666 -51.667 -177.999 -77c-62.667 -22 -101 -33 -115 -33c-27.333 0 -50 16.167 -68 48.5s-27 71.833 -27 118.5
c0 48 15.333 111.333 46 190c36 92.667 80 167.667 132 225c65.333 72.667 136 109 212 109c16.667 0 43.334 -9.33301 80.001 -28s55 -34.334 55 -47.001zM210.998 342.001c0 20 6.16504 35.5 18.498 46.5s27.5 16.5 45.5 16.5c10 0 25.333 -0.666992 46 -2
s34.667 -2 42 -2c24 0 45.333 2.66699 64 8c6 1.33301 13 4 21 8c18.667 0 34.334 -3.5 47.001 -10.5s19 -17.5 19 -31.5c0 -33.333 -24.667 -59.333 -74 -78c-39.333 -14.667 -85 -22 -137 -22c-31.333 0 -52.666 3 -63.999 9c-18.667 10 -28 29.333 -28 58z" />
    <glyph glyph-name="guillemotleft" unicode="&#xab;" horiz-adv-x="736" 
d="M422 445c0 -18.667 -26.667 -48.001 -80 -88.001l-75 -54c40 -62 65.333 -102.667 76 -122c14.667 -27.333 22 -46.666 22 -57.999c0 -24 -9 -47.167 -27 -69.5s-38 -33.5 -60 -33.5c-28 0 -64 38.667 -108 116c-41.333 72 -62 120.333 -62 145c0 22 22.667 50.333 68 85
l73 52c40.667 28 66 45 76 51c27.333 16 50.333 24 69 24c9.33301 0 16.333 -4.5 21 -13.5s7 -20.5 7 -34.5zM666 451.999c0 -16 -18.666 -39.001 -55.999 -69.001c-12.667 -10.667 -46 -35 -100 -73c30 -45.333 51 -78 63 -98c23.333 -39.333 35 -66.666 35 -81.999
c0 -23.333 -9 -46.333 -27 -69s-37.667 -34 -59 -34c-27.333 0 -63.333 38.667 -108 116c-42 72.667 -63 121 -63 145c0 22.667 22.667 51 68 85c33.333 24 58 41.333 74 52c39.333 28 64.333 45 75 51c27.333 16 50.666 24 69.999 24c9.33301 0 16.333 -4.5 21 -13.5
s7 -20.5 7 -34.5z" />
    <glyph glyph-name="logicalnot" unicode="&#xac;" horiz-adv-x="639" 
d="M557 288c0 -38.667 -5.00098 -73.001 -15.001 -103.001c-16.667 -48.667 -43.667 -73 -81 -73c-18.667 0 -32.667 7.83301 -42 23.5s-14 46.167 -14 91.5v22l-289 -47c-19.333 0 -35.166 3.66699 -47.499 11s-18.5 18 -18.5 32c0 40.667 59.667 73.334 179 98.001
c89.333 18.667 170.333 28 243 28c36 0 59.167 -5.5 69.5 -16.5s15.5 -33.167 15.5 -66.5z" />
    <glyph glyph-name="minus" unicode="&#xad;" horiz-adv-x="639" 
d="M591 284c0 -20 -7.83301 -35.5 -23.5 -46.5s-35.167 -16.5 -58.5 -16.5c-15.333 4 -27.333 7 -36 9c-27.333 6 -49.333 9 -66 9c-24.667 0 -74 -7.66699 -148 -23c-24.667 -4.66699 -60 -12.667 -106 -24c-18.667 0 -34.167 3.5 -46.5 10.5s-18.5 17.5 -18.5 31.5
c0 41.333 59 75.333 177 102c90.667 20.667 170.667 31 240 31c36.667 0 60.167 -5.5 70.5 -16.5s15.5 -33.167 15.5 -66.5z" />
    <glyph glyph-name="registered" unicode="&#xae;" horiz-adv-x="787" 
d="M794 453c0 -56 -6.83301 -106.999 -20.5 -152.999s-37.167 -94.667 -70.5 -146c-43.333 -68 -89.666 -119 -138.999 -153c-56.667 -39.333 -121 -59 -193 -59c-76.667 0 -140.334 37.667 -191.001 113c-45.333 67.333 -68 143.666 -68 228.999
c0 108 47.667 209.333 143 304c92 91.333 186.333 137 283 137c68.667 0 128.5 -26.667 179.5 -80s76.5 -117.333 76.5 -192zM697 440.001c0 60.667 -13.835 108.5 -41.502 143.5s-65.167 52.5 -112.5 52.5c-77.333 0 -152 -35.333 -224 -106s-108 -142.667 -108 -216
c0 -78 11.667 -141.333 35 -190c30 -62.667 76.667 -94 140 -94c56.667 0 106.334 17.667 149.001 53c34 28 69 72 105 132c22.667 37.333 37.834 72.833 45.501 106.5s11.5 73.167 11.5 118.5zM617.998 498.001c0 -22 -14.6709 -48.666 -44.0039 -79.999
c-24 -25.333 -51.667 -47.666 -83 -66.999l46 -56l27 -40c8.66699 -14.667 11.334 -26.334 8.00098 -35.001c-3.33301 -12 -10.666 -21.667 -21.999 -29s-21.666 -11 -30.999 -11c-10.667 0 -27.667 12 -51 36c-20 20.667 -46 51.667 -78 93c-12 -46 -18 -69.333 -18 -70
c-3.33301 -10 -6.66602 -18.333 -9.99902 -25c-5.33301 -12 -11.5 -21.5 -18.5 -28.5s-16.167 -10.5 -27.5 -10.5c-12 0 -22.667 5.16699 -32 15.5s-14 26.5 -14 48.5c0 16 6.5 50.833 19.5 104.5s26.5 100 40.5 139s41 60.833 81 65.5s84.333 7 133 7
c19.333 0 37 -7.33301 53 -22c14 -12.667 21 -24.334 21 -35.001zM508.994 484.002c-6 0.666992 -12.665 1.16699 -19.998 1.5s-17 0.5 -29 0.5h-15c-6 -1.33301 -10.333 -2 -13 -2l-14 -44c-6.66699 -21.333 -11.334 -38 -14.001 -50c10 2 19.667 6 29 12
s18.666 12.333 27.999 19c10 5.33301 20.333 12.333 31 21c14 12 21.667 22 23 30s-0.666992 12 -6 12z" />
    <glyph glyph-name="macron" unicode="&#xaf;" horiz-adv-x="335" 
d="M307 592c0 -35.333 -6.66797 -78 -20.001 -128c-25.333 -96 -38.333 -145 -39 -147c-14 -66.667 -21 -133 -21 -199c0 -26 -9.33301 -46 -28 -60l-41.5 -26.5c-10.333 -6.33301 -21.833 -9.5 -34.5 -9.5c-15.333 0 -28.666 4.16699 -39.999 12.5s-17 20.5 -17 36.5
l19 102c15.333 78 30.5 146.167 45.5 204.5l44.5 173.5c24 72.667 52.333 109 85 109c16.667 0 28.667 -7 36 -21s11 -29.667 11 -47zM455.999 787c0 -24 -5 -42.667 -15 -56c-12 -16 -30.333 -24 -55 -24c-42.667 0 -64 18 -64 54c0 12.667 10.333 33.667 31 63
c13.333 18.667 25 28 35 28c16 0 31.333 -7.33301 46 -22s22 -29 22 -43zM253.999 789c0 -20.667 -7.33203 -38.668 -21.999 -54.001s-32.334 -23 -53.001 -23c-22 0 -38.333 4.5 -49 13.5s-16 19.5 -16 31.5c0 8.66699 12.333 29.334 37 62.001c14 18.667 24.333 28 31 28
c18 0 35 -7.66699 51 -23c14 -13.333 21 -25 21 -35z" />
    <glyph glyph-name="degree" unicode="&#xb0;" 
d="M542 713c0 -28.667 -26 -69.001 -78 -121.001c-62.667 -62.667 -129.667 -94 -201 -94c-37.333 0 -64.833 8.83301 -82.5 26.5s-26.5 42.834 -26.5 75.501c0 28 26.5 70.333 79.5 127s93.833 85 122.5 85c44 0 83 -6.66699 117 -20c46 -18 69 -44.333 69 -79z
M341 687.999c-7.33301 0 -13.167 -3.5 -17.5 -10.5s-6.5 -15.833 -6.5 -26.5c0 -5.33301 2 -10 6 -14c6.66699 -6.66699 15.667 -10 27 -10c8.66699 0 15.5 3.5 20.5 10.5s7.5 14.5 7.5 22.5c0 9.33301 -3.66699 16.333 -11 21s-16 7 -26 7z" />
    <glyph glyph-name="plusminus" unicode="&#xb1;" horiz-adv-x="883" 
d="M848 455c0 -24.667 -6.33008 -43.999 -18.9971 -57.999s-31.667 -21 -57 -21c-2.66699 0 -15.334 -0.666992 -38.001 -2s-41.667 -2 -57 -2c-21.333 0 -43.333 -1.33301 -66 -4l-66 -8c-7.33301 -46 -11.333 -72 -12 -78c-3.33301 -27.333 -5 -56.666 -5 -87.999
c0 -41.333 -4 -68 -12 -80c-14 -21.333 -46.333 -32 -97 -32c-14 0 -24 6.33301 -30 19s-9 27.667 -9 45c0 19.333 5.33301 57.666 16 114.999c3.33301 19.333 9 46.666 17 81.999c-36.667 -8 -65.334 -14 -86.001 -18c-65.333 -12.667 -110 -19 -134 -19
c-6.66699 0 -11.334 0.333008 -14.001 1c-14 0 -26.667 3.5 -38 10.5s-17 16.5 -17 28.5c0 43.333 60.333 78.666 181 105.999c46 10.667 92.667 18.334 140 23.001c0 44.667 8.33301 86 25 124c21.333 49.333 51 74 89 74c11.333 0 19.333 -3.5 24 -10.5s7 -16.833 7 -29.5
c0 -10.667 -3 -36 -9 -76c-3.33301 -22 -5 -38.667 -5 -50c49.333 0 86.833 0.333008 112.5 1s51.5 1.66699 77.5 3c20.667 0 39.5 -4.83301 56.5 -14.5s25.5 -23.5 25.5 -41.5zM734.003 -83.999c-6 0 -42.999 -1.83203 -110.999 -5.49902s-131.833 -6.66699 -191.5 -9
s-106.5 -3.5 -140.5 -3.5c-14.667 0 -46.667 -1.66699 -96 -5c-19.333 -1.33301 -36.333 -2 -51 -2c-17.333 0 -30.5 1.5 -39.5 4.5s-13.5 8.5 -13.5 16.5c0 17.333 6.33301 37.666 19 60.999c15.333 27.333 31.333 41 48 41c19.333 0 49.666 1 90.999 3
c110 5.33301 180.333 8 211 8c18.667 0 63.667 1.66699 135 5s121 5 149 5c22.667 0 36.5 -2.16699 41.5 -6.5s7.5 -13.833 7.5 -28.5c0 -16 -7 -34 -21 -54s-26.667 -30 -38 -30z" />
    <glyph glyph-name="twosuperior" unicode="&#xb2;" horiz-adv-x="335" 
d="M307 592c0 -35.333 -6.66797 -78 -20.001 -128c-25.333 -96 -38.333 -145 -39 -147c-14 -66.667 -21 -133 -21 -199c0 -26 -9.33301 -46 -28 -60l-41.5 -26.5c-10.333 -6.33301 -21.833 -9.5 -34.5 -9.5c-15.333 0 -28.666 4.16699 -39.999 12.5s-17 20.5 -17 36.5
l19 102c15.333 78 30.5 146.167 45.5 204.5l44.5 173.5c24 72.667 52.333 109 85 109c16.667 0 28.667 -7 36 -21s11 -29.667 11 -47z" />
    <glyph glyph-name="threesuperior" unicode="&#xb3;" horiz-adv-x="263" 
d="M326 679c0 -12 -9.16797 -29.667 -27.501 -53s-33.166 -35 -44.499 -35c-8.66699 0 -25.667 9.66699 -51 29c-29.333 22 -44 40.667 -44 56c0 7.33301 8.33301 23 25 47c20 28.667 38 43 54 43c18 0 37.167 -9.5 57.5 -28.5s30.5 -38.5 30.5 -58.5zM235.999 441
c0 -20.667 -11.001 -61.667 -33.001 -123l-33 -86c-0.666992 -3.33301 -1 -8 -1 -14c0 -11.333 2.83301 -25.5 8.5 -42.5s8.5 -28.167 8.5 -33.5c0 -12 -5 -29.333 -15 -52c-26 -58.667 -59.667 -88 -101 -88c-20.667 0 -35 10 -43 30c-5.33301 13.333 -8 32.666 -8 57.999
c0 18 8.66699 59 26 123c20 72.667 42.333 135.667 67 189c30.667 66 59.334 99 86.001 99c12.667 0 22.167 -5.66699 28.5 -17s9.5 -25.666 9.5 -42.999z" />
    <glyph glyph-name="acute" unicode="&#xb4;" horiz-adv-x="453" 
d="M555 495c-15.333 -44.667 -38.4971 -77.332 -69.4971 -97.999s-69.833 -31 -116.5 -31c-30.667 0 -58 2.5 -82 7.5s-44.667 9.5 -62 13.5c-15.333 -67.333 -28.333 -128 -39 -182s-18.167 -97.167 -22.5 -129.5s-15.5 -52.833 -33.5 -61.5c-12 -6 -32.667 -9 -62 -9
c-21.333 0 -37 9.66699 -47 29c-6.66699 12.667 -10 27.334 -10 44.001l54.5 160.5c16.333 48.333 24.5 89.833 24.5 124.5c0 6.66699 -0.666992 15.334 -2 26.001s-2 18.667 -2 24v16l4 12c6.66699 22 16.667 41.667 30 59s27 26 41 26
c27.333 -10 56.166 -19.167 86.499 -27.5s56.833 -12.5 79.5 -12.5c34.667 0 64.667 6 90 18c13.333 6 22.666 17.667 27.999 35s8 34.666 8 51.999c0 1.33301 -8 15.333 -24 42c-8 13.333 -12 23.666 -12 30.999c0 10 11.333 27.333 34 52s39 37 49 37
c21.333 0 39.666 -11.833 54.999 -35.5s23 -52.167 23 -85.5c0 -27.333 -1.5 -50.333 -4.5 -69s-9.16699 -41.334 -18.5 -68.001z" />
    <glyph glyph-name="paragraph" unicode="&#xb6;" horiz-adv-x="752" 
d="M282 125c-5.33301 -26.667 -7.99902 -50.668 -7.99902 -72.001c0 -6 0.333008 -14.833 1 -26.5s1 -20.5 1 -26.5c0 -10.667 -1.33301 -24.5 -4 -41.5s-11.167 -32 -25.5 -45s-29.833 -19.5 -46.5 -19.5c-18.667 0 -36.5 8.16699 -53.5 24.5s-25.5 35.166 -25.5 56.499
c0 15.333 7.83301 49.666 23.5 102.999l54.5 179c35.333 112 54.666 173.667 57.999 185s9.16602 29.5 17.499 54.5s16.166 46.167 23.499 63.5c-8 -0.666992 -45 -8.66699 -111 -24c-29.333 -6.66699 -46 -10 -50 -10c-15.333 0 -29.166 4 -41.499 12
s-18.5 19.667 -18.5 35c0 40 18.333 64.333 55 73c20.667 4.66699 90 18.334 208 41.001c67.333 12.667 107.333 20 120 22c97.333 16 164 26.667 200 32c76.667 12 120 18 130 18c33.333 0 59.5 -7.5 78.5 -22.5s28.5 -38.167 28.5 -69.5c0 -22.667 -10.333 -44 -31 -64
s-40.667 -30 -60 -30c-8 0 -18 6.66699 -30 20s-24.667 20 -38 20h-75l-75 -267c-20.667 -75.333 -36 -133.666 -46 -174.999c-3.33301 -14.667 -5.5 -29 -6.5 -43s-1.5 -24.667 -1.5 -32v-23.5c0 -7.66699 0.333008 -15.167 1 -22.5c0 -11.333 -1.33301 -26 -4 -44
s-11 -33.667 -25 -47s-29.333 -20 -46 -20c-19.333 0 -37.5 8.5 -54.5 25.5s-25.5 35.833 -25.5 56.5c0 16 8 51 24 105l56 176c24.667 78 43.334 138.667 56.001 182l37 117c-5.33301 -1.33301 -27 -5.16602 -65 -11.499l-82 -13.5c-6 -26 -17 -66.833 -33 -122.5
l-49 -170.5c-21.333 -75.333 -35.333 -128 -42 -158z" />
    <glyph glyph-name="periodcentered" unicode="&#xb7;" horiz-adv-x="502" 
d="M358 326c2 -16.667 -8.49902 -41.167 -31.499 -73.5s-40.5 -48.5 -52.5 -48.5c-22.667 0 -44.834 6 -66.501 18s-32.5 25.667 -32.5 41c0 12 11 33.667 33 65s39.333 48.333 52 51c14.667 2.66699 34.667 -2.5 60 -15.5s38 -25.5 38 -37.5z" />
    <glyph glyph-name="periodcentered" unicode="&#x2219;" horiz-adv-x="502" 
d="M358 326c2 -16.667 -8.49902 -41.167 -31.499 -73.5s-40.5 -48.5 -52.5 -48.5c-22.667 0 -44.834 6 -66.501 18s-32.5 25.667 -32.5 41c0 12 11 33.667 33 65s39.333 48.333 52 51c14.667 2.66699 34.667 -2.5 60 -15.5s38 -25.5 38 -37.5z" />
    <glyph glyph-name="cedilla" unicode="&#xb8;" horiz-adv-x="411" 
d="M417 438c0 -30 -1.99707 -52.001 -5.99707 -66.001c-6.66699 -24.667 -22.334 -53 -47.001 -85c-20 -28.667 -46.333 -53.667 -79 -75l-119 -66c1.33301 -8 3.16602 -14.167 5.49902 -18.5s6.16602 -6.5 11.499 -6.5c28.667 0 66.334 6.33301 113.001 19l140 40
c8.66699 0 14.834 -3 18.501 -9s5.5 -14.333 5.5 -25c0 -23.333 -41.667 -54.333 -125 -93s-153.333 -58 -210 -58c-30.667 0 -56.334 17.667 -77.001 53c-17.333 30 -26 61.333 -26 94c0 90.667 33.167 176.834 99.5 258.501s135.166 122.5 206.499 122.5
c26.667 0 48.167 -7.83301 64.5 -23.5s24.5 -36.167 24.5 -61.5zM289.003 406.999c-10.667 0 -19.334 -1.83105 -26.001 -5.49805s-17 -12.167 -31 -25.5c-13.333 -14 -28 -37.333 -44 -70c-8.66699 -18 -19 -42.333 -31 -73c22 11.333 45 26.666 69 45.999
c16.667 13.333 31.334 26.666 44.001 39.999l24 25c10 12 15 25.333 15 40c-2 5.33301 -3.66699 9 -5 11c-4.66699 8 -9.66699 12 -15 12zM461.003 687.001c0 -24 -5 -42.667 -15 -56c-12 -16 -30.333 -24 -55 -24c-42.667 0 -64 18 -64 54c0 12.667 10.333 33.667 31 63
c13.333 18.667 25 28 35 28c16 0 31.333 -7.33301 46 -22s22 -29 22 -43zM259.003 689.001c0 -20.667 -7.33203 -38.668 -21.999 -54.001s-32.334 -23 -53.001 -23c-22 0 -38.333 4.5 -49 13.5s-16 19.5 -16 31.5c0 8.66699 12.333 29.334 37 62.001
c14 18.667 24.333 28 31 28c18 0 35 -7.66699 51 -23c14 -13.333 21 -25 21 -35z" />
    <glyph glyph-name="onesuperior" unicode="&#xb9;" horiz-adv-x="1076" 
d="M1057 592c0 -60.667 -20.666 -128.333 -61.999 -203c-51.333 -93.333 -113 -140 -185 -140c-26.667 0 -50.334 12.5 -71.001 37.5s-31 57.167 -31 96.5c0 56.667 21.667 119.334 65 188.001c52 82 112.333 123 181 123c28 0 53 -13.333 75 -40
c18.667 -22.667 28 -43.334 28 -62.001zM948.001 144.001c0 -23.333 -14.332 -39.334 -42.999 -48.001c-18 -5.33301 -46 -8 -84 -8c-46.667 0 -80.667 2.66699 -102 8c-42 10.667 -63 31.334 -63 62.001c0 19.333 9 32.833 27 40.5s41 11.5 69 11.5
c14 0 27 -0.333008 39 -1l35 -2c35.333 0 62.666 -3.66699 81.999 -11c26.667 -10 40 -27.333 40 -52zM703.002 581c0 -20.667 -8.33594 -39.998 -25.0029 -57.998c-13.333 -14 -30.166 -25.667 -50.499 -35s-48.5 -53 -84.5 -131
c-62.667 -135.333 -95 -204.666 -97 -207.999c-38.667 -72.667 -71 -109 -97 -109c-31.333 0 -49 33.667 -53 101c-0.666992 10.667 -1 48.667 -1 114c0 50 -1.83301 85.667 -5.5 107s-9.16699 38 -16.5 50c-36.667 -116.667 -68.667 -210 -96 -280
c-29.333 -74.667 -60.666 -112 -93.999 -112c-11.333 0 -23.333 6.66699 -36 20s-19 25.666 -19 36.999c0 25.333 13 81.333 39 168c38.667 128 60.667 203 66 225c8.66699 57.333 15.334 96.666 20.001 117.999c8 36 23.667 54 47 54c17.333 0 35 -7 53 -21l28 41
c8 10 14.333 15 19 15c38 0 68.333 -38 91 -114l42 -173c14.667 13.333 36 53.333 64 120c44.667 105.333 69 162.333 73 171c28 58 50.667 87 68 87c18.667 0 34.667 -8.66699 48 -26c11.333 -14.667 17 -29.334 17 -44.001v-117zM920.999 473.002
c0 6 -2.66895 10.999 -8.00195 14.999s-12 7 -20 9c-12.667 3.33301 -23.5 -1 -32.5 -13s-14.333 -24 -16 -36s-2.5 -19.333 -2.5 -22c0 -16.667 8 -25 24 -25c10.667 0 21.834 8.33301 33.501 25s18.834 32.334 21.501 47.001z" />
    <glyph glyph-name="ordmasculine" unicode="&#xba;" horiz-adv-x="419" 
d="M176 220c-4.66699 -11.333 -8.00098 -22.5 -10.001 -33.5s-3 -22.167 -3 -33.5c0 -15.333 3.33301 -25.333 10 -30s18.334 -7 35.001 -7c21.333 0 51.333 10 90 30l128 68c11.333 0 20.5 -3.5 27.5 -10.5s10.5 -15.5 10.5 -25.5c0 -27.333 -33.667 -63.666 -101 -108.999
c-78.667 -53.333 -160.334 -80 -245.001 -80c-34 0 -58.667 11.167 -74 33.5s-23 51.833 -23 88.5c0 18 5 43.667 15 77c13.333 43.333 30.333 80.666 51 111.999c40 57.333 82.333 105 127 143c54.667 46 104.334 69 149.001 69c19.333 0 36.666 -5.16699 51.999 -15.5
s23 -24.5 23 -42.5c0 -22.667 -8.66699 -36.667 -26 -42c-27.333 -4 -50.333 -8.5 -69 -13.5s-38 -15.333 -58 -31s-38.333 -34.167 -55 -55.5c10.667 0 19.5 0.833008 26.5 2.5s16.5 2.5 28.5 2.5c30 0 53.667 3 71 9c2.66699 0.666992 6.33398 2.33398 11.001 5.00098
c20 0 35.833 -3.33301 47.5 -10s17.5 -17.334 17.5 -32.001c0 -32 -23.333 -54.333 -70 -67c-30 -8 -74.333 -12 -133 -12h-27c-8 0 -12.667 0.333008 -14 1c-4 3.33301 -8 6.33301 -12 9z" />
    <glyph glyph-name="guillemotright" unicode="&#xbb;" horiz-adv-x="736" 
d="M345 83c0 16 18.666 39 55.999 69c12.667 10.667 46 35 100 73l-48 72c-34 53.333 -51 89.333 -51 108c0 22.667 9.16699 45.5 27.5 68.5s38.166 34.5 59.499 34.5c27.333 0 63.333 -38.667 108 -116c42 -72.667 63 -121 63 -145c0 -22 -23 -50.333 -69 -85
c-11.333 -8.66699 -36.166 -26.5 -74.499 -53.5s-62.833 -43.5 -73.5 -49.5c-27.333 -16 -50.666 -24 -69.999 -24c-9.33301 0 -16.333 4.5 -21 13.5s-7 20.5 -7 34.5zM101.999 76c0 12 11 28.334 33 49.001c9.33301 8.66699 50 39.667 122 93
c-40 62 -65.333 102.667 -76 122c-14.667 27.333 -22 46.666 -22 57.999c0 23.333 9 46.333 27 69s38 34 60 34c27.333 0 63.333 -38.667 108 -116c42 -72.667 63 -121 63 -145c0 -22 -23 -50.333 -69 -85c-11.333 -8.66699 -36.5 -26.5 -75.5 -53.5
s-63.5 -43.5 -73.5 -49.5c-27.333 -16 -50.333 -24 -69 -24c-9.33301 0 -16.333 4.5 -21 13.5s-7 20.5 -7 34.5z" />
    <glyph glyph-name="onequarter" unicode="&#xbc;" horiz-adv-x="385" 
d="M337 442c0 -15.333 -13.3301 -80.666 -39.9971 -195.999c-16 -68 -26.333 -115 -31 -141l-37 -181c-16.667 -67.333 -35.334 -117.333 -56.001 -150c-26 -41.333 -59 -62 -99 -62c-22 0 -43.667 5.5 -65 16.5s-47 28.167 -77 51.5s-51.333 41.666 -64 54.999
c-18.667 18.667 -28 34 -28 46c0 24.667 7.66699 46 23 64s31.666 27 48.999 27c18.667 0 38.667 -16.667 60 -50c16.667 -26 29.667 -43.667 39 -53l19 -23c5.33301 -4.66699 17.666 -7 36.999 -7c17.333 0 33.333 29.667 48 89c5.33301 22 15 74 29 156l26 161
c9.33301 56 19.333 103 30 141c8 29.333 23.667 54.333 47 75c20 18 37.667 27 53 27c13.333 0 22.833 -3.16699 28.5 -9.5s8.5 -18.5 8.5 -36.5zM363.003 655c0 -12 -9.16699 -29.6689 -27.5 -53.002s-33.5 -35 -45.5 -35c-8 0 -25 10 -51 30
c-29.333 22.667 -44 41.334 -44 56.001c0 6.66699 8.66699 22.334 26 47.001c20 28.667 37.667 43 53 43c18 0 37.333 -9.66699 58 -29s31 -39 31 -59z" />
    <glyph glyph-name="onehalf" unicode="&#xbd;" horiz-adv-x="500" 
d="M535 569c0 -19.333 -4.16895 -36.3359 -12.502 -51.0029s-18.833 -22 -31.5 -22c-7.33301 0 -27.666 11.667 -60.999 35c-16 11.333 -31.333 17 -46 17c-24.667 0 -45.667 -4.83301 -63 -14.5s-26 -25.167 -26 -46.5c0 -14 16.333 -44.333 49 -91
c60 -86 91 -130.333 93 -133c33.333 -52.667 50 -92 50 -118c0 -41.333 -10.833 -74.666 -32.5 -99.999s-46.167 -38 -73.5 -38c-24 0 -49.333 2.66699 -76 8c-35.333 7.33301 -71.333 19.333 -108 36c-45.333 20.667 -84 46.334 -116 77.001s-48 57.334 -48 80.001
c0 20.667 4.83301 40.334 14.5 59.001s20.5 28 32.5 28c22.667 0 37.334 -1 44.001 -3c14.667 -4.66699 22 -15.334 22 -32.001c2 -25.333 25.333 -54 70 -86c41.333 -30 72.333 -45 93 -45c32.667 0 49 12.333 49 37c0 9.33301 -15.333 35.333 -46 78
c-45.333 63.333 -74.333 105.333 -87 126c-31.333 52.667 -47 94 -47 124c0 44 20.333 84.667 61 122s87 56 139 56c26 0 57.333 -10 94 -30c42 -22.667 63 -47 63 -73z" />
    <glyph glyph-name="threequarters" unicode="&#xbe;" horiz-adv-x="409" 
d="M332 358c-6.66699 0 -13.335 3.33496 -20.002 10.002s-10 13 -10 19c0 3.33301 1 7.66602 3 12.999s3 9.33301 3 12c0 6.66699 -3.66699 10 -11 10c-12 0 -23.5 -7 -34.5 -21s-16.5 -30 -16.5 -48c0 -10 3 -19.667 9 -29l18 -28c4 -8 18.333 -34 43 -78
c16 -28 24 -47.333 24 -58c0 -30 -22.333 -67 -67 -111c-57.333 -56 -124.666 -84 -201.999 -84c-32.667 0 -55.334 2 -68.001 6c-22 6.66699 -33 20.667 -33 42c0 29.333 20.333 51 61 65c27.333 9.33301 58.666 14 93.999 14c18.667 0 34.834 4.5 48.501 13.5
s20.5 18.167 20.5 27.5c0.666992 6 -10.166 30.667 -32.499 74s-33.5 75.666 -33.5 96.999c0 51.333 31.333 108 94 170c66.667 66 133.334 99 200.001 99c12 0 25 -5.66699 39 -17s21 -23.666 21 -36.999c0 -16.667 -8.5 -36.334 -25.5 -59.001s-37.833 -44.667 -62.5 -66
c-16.667 -14.667 -26.667 -23 -30 -25c-12 -8 -22.667 -11.667 -32 -11z" />
    <glyph glyph-name="questiondown" unicode="&#xbf;" horiz-adv-x="263" 
d="M211 674c0 -12 -9.16797 -29.667 -27.501 -53s-33.166 -35 -44.499 -35c-8.66699 0 -25.667 9.66699 -51 29c-29.333 22 -44 40.667 -44 56c0 7.33301 8.33301 23 25 47c20 28.667 38 43 54 43c18 0 37.167 -9.5 57.5 -28.5s30.5 -38.5 30.5 -58.5zM235.999 441
c0 -20.667 -11.001 -61.667 -33.001 -123l-33 -86c-0.666992 -3.33301 -1 -8 -1 -14c0 -11.333 2.83301 -25.5 8.5 -42.5s8.5 -28.167 8.5 -33.5c0 -12 -5 -29.333 -15 -52c-26 -58.667 -59.667 -88 -101 -88c-20.667 0 -35 10 -43 30c-5.33301 13.333 -8 32.666 -8 57.999
c0 18 8.66699 59 26 123c20 72.667 42.333 135.667 67 189c30.667 66 59.334 99 86.001 99c12.667 0 22.167 -5.66699 28.5 -17s9.5 -25.666 9.5 -42.999zM415.998 679c0 -12 -9.16797 -29.667 -27.501 -53s-33.166 -35 -44.499 -35c-8.66699 0 -25.667 9.66699 -51 29
c-29.333 22 -44 40.667 -44 56c0 7.33301 8.33301 23 25 47c20 28.667 38 43 54 43c18 0 37.167 -9.5 57.5 -28.5s30.5 -38.5 30.5 -58.5z" />
    <glyph glyph-name="Agrave" unicode="&#xc0;" horiz-adv-x="555" 
d="M624 353c0 -33.333 -16.001 -56.668 -48.001 -70.001c-39.333 -10 -65.666 -17.333 -78.999 -22l-1 -61c0 -8.66699 6 -20.667 18 -36s18 -30.666 18 -45.999c0 -17.333 -5 -38.333 -15 -63c-26.667 -66 -66 -99 -118 -99c-25.333 0 -42 10 -50 30
c-4.66699 11.333 -7 29.333 -7 54c0 14.667 3.33301 42 10 82s10 78.667 10 116c-33.333 -13.333 -59.833 -24.333 -79.5 -33s-35.834 -16.667 -48.501 -24c-24.667 -14.667 -43 -28 -55 -40s-25 -30 -39 -54c-27.333 -49.333 -42.333 -76 -45 -80
c-16.667 -22.667 -36.667 -34 -60 -34c-10.667 7.33301 -18.667 13 -24 17c-16 13.333 -24 25.333 -24 36l40 83c35.333 68 86 157.333 152 268c86 142 146 233.667 180 275c24.667 30 48 45 70 45s38.833 -7 50.5 -21s17.5 -43 17.5 -87v-36l-1 -166
c18.667 3.33301 36.667 5 54 5c23.333 0 41.833 -3 55.5 -9s19.834 -16 18.501 -30zM266.999 327.998c4.66699 2 17.001 5.33203 37.001 9.99902c38 8.66699 58 13.334 60 14.001c0 10.667 0.333008 25 1 43s1 28.667 1 32c0 14.667 -0.333008 27 -1 37
s-2.33398 18.667 -5.00098 26z" />
    <glyph glyph-name="Agrave" unicode="&#x410;" horiz-adv-x="555" 
d="M624 353c0 -33.333 -16.001 -56.668 -48.001 -70.001c-39.333 -10 -65.666 -17.333 -78.999 -22l-1 -61c0 -8.66699 6 -20.667 18 -36s18 -30.666 18 -45.999c0 -17.333 -5 -38.333 -15 -63c-26.667 -66 -66 -99 -118 -99c-25.333 0 -42 10 -50 30
c-4.66699 11.333 -7 29.333 -7 54c0 14.667 3.33301 42 10 82s10 78.667 10 116c-33.333 -13.333 -59.833 -24.333 -79.5 -33s-35.834 -16.667 -48.501 -24c-24.667 -14.667 -43 -28 -55 -40s-25 -30 -39 -54c-27.333 -49.333 -42.333 -76 -45 -80
c-16.667 -22.667 -36.667 -34 -60 -34c-10.667 7.33301 -18.667 13 -24 17c-16 13.333 -24 25.333 -24 36l40 83c35.333 68 86 157.333 152 268c86 142 146 233.667 180 275c24.667 30 48 45 70 45s38.833 -7 50.5 -21s17.5 -43 17.5 -87v-36l-1 -166
c18.667 3.33301 36.667 5 54 5c23.333 0 41.833 -3 55.5 -9s19.834 -16 18.501 -30zM266.999 327.998c4.66699 2 17.001 5.33203 37.001 9.99902c38 8.66699 58 13.334 60 14.001c0 10.667 0.333008 25 1 43s1 28.667 1 32c0 14.667 -0.333008 27 -1 37
s-2.33398 18.667 -5.00098 26z" />
    <glyph glyph-name="Aacute" unicode="&#xc1;" horiz-adv-x="552" 
d="M447 236c0 41.333 -6.00195 69.667 -18.002 85s-34 23 -66 23c-46 0 -87.667 -15.667 -125 -47c-5.33301 -34.667 -10.166 -60 -14.499 -76s-11.833 -35 -22.5 -57c-7.33301 -16.667 -11.666 -26 -12.999 -28c-6 -8 -16.667 -16 -32 -24
c17.333 -9.33301 33.833 -15.5 49.5 -18.5s39.5 -4.5 71.5 -4.5c54.667 0 98 17 130 51c26.667 28.667 40 60.667 40 96zM434.998 449.001c34.667 0 65.167 -14.335 91.5 -43.002s39.5 -65 39.5 -109c0 -92 -34 -170.667 -102 -236s-148.667 -98 -242 -98
c-54.667 0 -104 11.5 -148 34.5s-66 50.5 -66 82.5c0 9.33301 5.5 18.833 16.5 28.5s21.833 14.5 32.5 14.5c-3.33301 6 -5 14 -5 24c0 20 8 48 24 84l42 90c17.333 40 34 80.333 50 121l39 99l-56 21c-13.333 6.66699 -20 15.667 -20 27c0 24 11.667 44.333 35 61
c31.333 22.667 80.666 37 147.999 43c16.667 0 56.667 3 120 9s107.333 9 132 9c44.667 0 73.834 -4.66699 87.501 -14s20.5 -29.666 20.5 -60.999c0 -21.333 -14.667 -42.166 -44 -62.499s-55.333 -30.5 -78 -30.5s-38 5.5 -46 16.5s-20.667 16.5 -38 16.5
s-36 -1.33301 -56 -4c-50 -6.66699 -76.667 -10 -80 -10l-25 -74c-12 -34 -22 -59.333 -30 -76c18 10 42 18.667 72 26s58.667 11 86 11z" />
    <glyph glyph-name="Aacute" unicode="&#x411;" horiz-adv-x="552" 
d="M447 236c0 41.333 -6.00195 69.667 -18.002 85s-34 23 -66 23c-46 0 -87.667 -15.667 -125 -47c-5.33301 -34.667 -10.166 -60 -14.499 -76s-11.833 -35 -22.5 -57c-7.33301 -16.667 -11.666 -26 -12.999 -28c-6 -8 -16.667 -16 -32 -24
c17.333 -9.33301 33.833 -15.5 49.5 -18.5s39.5 -4.5 71.5 -4.5c54.667 0 98 17 130 51c26.667 28.667 40 60.667 40 96zM434.998 449.001c34.667 0 65.167 -14.335 91.5 -43.002s39.5 -65 39.5 -109c0 -92 -34 -170.667 -102 -236s-148.667 -98 -242 -98
c-54.667 0 -104 11.5 -148 34.5s-66 50.5 -66 82.5c0 9.33301 5.5 18.833 16.5 28.5s21.833 14.5 32.5 14.5c-3.33301 6 -5 14 -5 24c0 20 8 48 24 84l42 90c17.333 40 34 80.333 50 121l39 99l-56 21c-13.333 6.66699 -20 15.667 -20 27c0 24 11.667 44.333 35 61
c31.333 22.667 80.666 37 147.999 43c16.667 0 56.667 3 120 9s107.333 9 132 9c44.667 0 73.834 -4.66699 87.501 -14s20.5 -29.666 20.5 -60.999c0 -21.333 -14.667 -42.166 -44 -62.499s-55.333 -30.5 -78 -30.5s-38 5.5 -46 16.5s-20.667 16.5 -38 16.5
s-36 -1.33301 -56 -4c-50 -6.66699 -76.667 -10 -80 -10l-25 -74c-12 -34 -22 -59.333 -30 -76c18 10 42 18.667 72 26s58.667 11 86 11z" />
    <glyph glyph-name="Acircumflex" unicode="&#xc2;" horiz-adv-x="572" 
d="M594 603c0 -47.333 -11.999 -90.0029 -35.999 -128.003c-30 -37.333 -50 -62.666 -60 -75.999c25.333 -11.333 43 -22.666 53 -33.999c18 -20.667 27 -51 27 -91c0 -90 -36 -165 -108 -225c-68.667 -57.333 -151.334 -86 -248.001 -86c-54.667 0 -104 11.5 -148 34.5
s-66 50.5 -66 82.5c0 9.33301 5.5 18.833 16.5 28.5s21.833 14.5 32.5 14.5c-3.33301 6 -5 14 -5 24c0 20 8 48 24 84l42 90c17.333 40 34 80.333 50 121l39 99l-56 21c-13.333 6.66699 -20 15.667 -20 27c0 24.667 16 48.334 48 71.001c40 28.667 93 43 159 43
c67.333 0 116 -3 146 -9c73.333 -14.667 110 -45 110 -91zM449.001 542.997c1.33301 7.33301 -2.66699 13 -12 17s-21.333 6 -36 6c-11.333 0 -20.833 -0.666992 -28.5 -2s-19.834 -3.66602 -36.501 -6.99902l-54 -129c66.667 17.333 101.667 26.666 105 27.999
c34.667 16 55.334 45 62.001 87zM452.001 196.997c0.666992 4 0.998047 8.33398 0.998047 13.001v10c0 29.333 -9.33301 51.666 -28 66.999c-15.333 12.667 -40 21.667 -74 27c-23.333 2.66699 -53.666 4 -90.999 4h-15c-10 -62 -24.667 -113.333 -44 -154
c-7.33301 -16.667 -11.666 -26 -12.999 -28c-6 -8 -16.667 -16 -32 -24c17.333 -9.33301 33.833 -15.5 49.5 -18.5s39.5 -4.5 71.5 -4.5c54 0 97.333 12.667 130 38c26 20.667 41 44 45 70z" />
    <glyph glyph-name="Acircumflex" unicode="&#x412;" horiz-adv-x="572" 
d="M594 603c0 -47.333 -11.999 -90.0029 -35.999 -128.003c-30 -37.333 -50 -62.666 -60 -75.999c25.333 -11.333 43 -22.666 53 -33.999c18 -20.667 27 -51 27 -91c0 -90 -36 -165 -108 -225c-68.667 -57.333 -151.334 -86 -248.001 -86c-54.667 0 -104 11.5 -148 34.5
s-66 50.5 -66 82.5c0 9.33301 5.5 18.833 16.5 28.5s21.833 14.5 32.5 14.5c-3.33301 6 -5 14 -5 24c0 20 8 48 24 84l42 90c17.333 40 34 80.333 50 121l39 99l-56 21c-13.333 6.66699 -20 15.667 -20 27c0 24.667 16 48.334 48 71.001c40 28.667 93 43 159 43
c67.333 0 116 -3 146 -9c73.333 -14.667 110 -45 110 -91zM449.001 542.997c1.33301 7.33301 -2.66699 13 -12 17s-21.333 6 -36 6c-11.333 0 -20.833 -0.666992 -28.5 -2s-19.834 -3.66602 -36.501 -6.99902l-54 -129c66.667 17.333 101.667 26.666 105 27.999
c34.667 16 55.334 45 62.001 87zM452.001 196.997c0.666992 4 0.998047 8.33398 0.998047 13.001v10c0 29.333 -9.33301 51.666 -28 66.999c-15.333 12.667 -40 21.667 -74 27c-23.333 2.66699 -53.666 4 -90.999 4h-15c-10 -62 -24.667 -113.333 -44 -154
c-7.33301 -16.667 -11.666 -26 -12.999 -28c-6 -8 -16.667 -16 -32 -24c17.333 -9.33301 33.833 -15.5 49.5 -18.5s39.5 -4.5 71.5 -4.5c54 0 97.333 12.667 130 38c26 20.667 41 44 45 70z" />
    <glyph glyph-name="Atilde" unicode="&#xc3;" horiz-adv-x="399" 
d="M13 63c0 31.333 6.33789 70.3301 19.0049 116.997c4.66699 17.333 19.667 64.333 45 141c11.333 34.667 22.666 65.667 33.999 93l55 127l-56 21c-13.333 6.66699 -20 15.667 -20 27c0 24 11.667 44.333 35 61c31.333 22.667 80.666 37 147.999 43
c16.667 0 49.667 2.66699 99 8s86.333 8 111 8c44.667 0 73.834 -4.66699 87.501 -14s20.5 -29.666 20.5 -60.999c0 -21.333 -14.667 -42.166 -44 -62.499s-55.333 -30.5 -78 -30.5s-38 5.33301 -46 16s-20.667 16 -38 16c-22.667 0 -42.834 -2 -60.501 -6
s-31.834 -7.33301 -42.501 -10c-16.667 -42 -30.334 -79.333 -41.001 -112c-14.667 -44 -27.834 -90 -39.501 -138s-20.167 -87 -25.5 -117c-7.33301 -40.667 -11 -76 -11 -106c0 -25.333 -6.33301 -46.333 -19 -63c-15.333 -20 -37 -30 -65 -30
c-16 0 -31.333 7.33301 -46 22s-22 31.334 -22 50.001z" />
    <glyph glyph-name="Atilde" unicode="&#x413;" horiz-adv-x="399" 
d="M13 63c0 31.333 6.33789 70.3301 19.0049 116.997c4.66699 17.333 19.667 64.333 45 141c11.333 34.667 22.666 65.667 33.999 93l55 127l-56 21c-13.333 6.66699 -20 15.667 -20 27c0 24 11.667 44.333 35 61c31.333 22.667 80.666 37 147.999 43
c16.667 0 49.667 2.66699 99 8s86.333 8 111 8c44.667 0 73.834 -4.66699 87.501 -14s20.5 -29.666 20.5 -60.999c0 -21.333 -14.667 -42.166 -44 -62.499s-55.333 -30.5 -78 -30.5s-38 5.33301 -46 16s-20.667 16 -38 16c-22.667 0 -42.834 -2 -60.501 -6
s-31.834 -7.33301 -42.501 -10c-16.667 -42 -30.334 -79.333 -41.001 -112c-14.667 -44 -27.834 -90 -39.501 -138s-20.167 -87 -25.5 -117c-7.33301 -40.667 -11 -76 -11 -106c0 -25.333 -6.33301 -46.333 -19 -63c-15.333 -20 -37 -30 -65 -30
c-16 0 -31.333 7.33301 -46 22s-22 31.334 -22 50.001z" />
    <glyph glyph-name="Adieresis" unicode="&#xc4;" horiz-adv-x="642" 
d="M412 294l13 137.5c2.66699 29 6 60.167 10 93.5l-51 -81l-40 -65c-16.667 -28 -35.334 -63.333 -56.001 -106c-46 -92.667 -71.667 -144 -77 -154c11.333 0 41 1 89 3s80.667 3 98 3c1.33301 14 2.83301 35.333 4.5 64s4.83398 63.667 9.50098 105zM615 51
c0 -19.333 -12.6689 -58.001 -38.002 -116.001l-31 -68c-11.333 -27.333 -21.666 -46.666 -30.999 -57.999s-20.666 -17 -33.999 -17c-36.667 0 -55 14 -55 42c0 12 4.33301 33.667 13 65l27 94h-204h-182c-9.33301 -16.667 -20.333 -40 -33 -70
c-14.667 -35.333 -22.667 -54 -24 -56c-7.33301 -17.333 -14.333 -35 -21 -53c-8.66699 -14.667 -24 -22 -46 -22c-20.667 0 -34 5.33301 -40 16c-3.33301 6 -5 17.667 -5 35c0 12 5.66699 36.5 17 73.5s26.666 81.833 45.999 134.5c10 27.333 24.833 47.5 44.5 60.5
s39.834 19.5 60.501 19.5c6 0 10.333 -0.333008 13 -1c15.333 25.333 39.666 68.666 72.999 129.999l91 168l79 144c30 52.667 56.333 91.334 79 116.001c28.667 32 55.334 48 80.001 48c28.667 0 48 -8.33301 58 -25c6.66699 -10.667 10 -28 10 -52v-20
c0 -18 -1.33301 -38.667 -4 -62c-8 -70 -12 -115.333 -12 -136c0 -30.667 -1.66699 -62.167 -5 -94.5l-11 -103.5v-113c21.333 -2.66699 40 -10 56 -22c19.333 -14.667 29 -33.667 29 -57z" />
    <glyph glyph-name="Adieresis" unicode="&#x414;" horiz-adv-x="642" 
d="M412 294l13 137.5c2.66699 29 6 60.167 10 93.5l-51 -81l-40 -65c-16.667 -28 -35.334 -63.333 -56.001 -106c-46 -92.667 -71.667 -144 -77 -154c11.333 0 41 1 89 3s80.667 3 98 3c1.33301 14 2.83301 35.333 4.5 64s4.83398 63.667 9.50098 105zM615 51
c0 -19.333 -12.6689 -58.001 -38.002 -116.001l-31 -68c-11.333 -27.333 -21.666 -46.666 -30.999 -57.999s-20.666 -17 -33.999 -17c-36.667 0 -55 14 -55 42c0 12 4.33301 33.667 13 65l27 94h-204h-182c-9.33301 -16.667 -20.333 -40 -33 -70
c-14.667 -35.333 -22.667 -54 -24 -56c-7.33301 -17.333 -14.333 -35 -21 -53c-8.66699 -14.667 -24 -22 -46 -22c-20.667 0 -34 5.33301 -40 16c-3.33301 6 -5 17.667 -5 35c0 12 5.66699 36.5 17 73.5s26.666 81.833 45.999 134.5c10 27.333 24.833 47.5 44.5 60.5
s39.834 19.5 60.501 19.5c6 0 10.333 -0.333008 13 -1c15.333 25.333 39.666 68.666 72.999 129.999l91 168l79 144c30 52.667 56.333 91.334 79 116.001c28.667 32 55.334 48 80.001 48c28.667 0 48 -8.33301 58 -25c6.66699 -10.667 10 -28 10 -52v-20
c0 -18 -1.33301 -38.667 -4 -62c-8 -70 -12 -115.333 -12 -136c0 -30.667 -1.66699 -62.167 -5 -94.5l-11 -103.5v-113c21.333 -2.66699 40 -10 56 -22c19.333 -14.667 29 -33.667 29 -57z" />
    <glyph glyph-name="Aring" unicode="&#xc5;" horiz-adv-x="482" 
d="M647 658c0 -35.333 -17.332 -59.667 -51.999 -73c-24.667 -9.33301 -64 -14 -118 -14c-34 0 -72.667 -3 -116 -9l-76 -12l-45 -152c8 0 38.833 3.83301 92.5 11.5s89.834 11.5 108.501 11.5c18 0 32.667 -1.16699 44 -3.5s17 -12.166 17 -29.499
c0 -44.667 -50.333 -77.334 -151 -98.001c-30.667 -6.66699 -78.334 -13.334 -143.001 -20.001l-49 -142c17.333 4.66699 58.333 12.5 123 23.5s103.334 16.5 116.001 16.5c34.667 0 57.667 -3 69 -9c16 -8.66699 24 -26.667 24 -54c0 -30 -8 -51.667 -24 -65
c-12 -10 -28 -15 -48 -15c-9.33301 0 -17.166 0.5 -23.499 1.5s-11.5 2.16699 -15.5 3.5c-39.333 0 -87.833 -5.66699 -145.5 -17l-170.5 -35c-15.333 0 -28.5 5.5 -39.5 16.5s-16.5 22.5 -16.5 34.5c1.33301 9.33301 21.333 79 60 209l50.5 170
c6.33301 22 14 43.833 23 65.5s19.5 43.167 31.5 64.5c-14.667 0 -26.334 2.66699 -35.001 8c-12.667 7.33301 -17.667 18.333 -15 33c5.33301 28.667 44.666 53.334 117.999 74.001s163.666 31 270.999 31h77c38.667 -1.33301 58 -10 58 -26z" />
    <glyph glyph-name="Aring" unicode="&#x415;" horiz-adv-x="482" 
d="M647 658c0 -35.333 -17.332 -59.667 -51.999 -73c-24.667 -9.33301 -64 -14 -118 -14c-34 0 -72.667 -3 -116 -9l-76 -12l-45 -152c8 0 38.833 3.83301 92.5 11.5s89.834 11.5 108.501 11.5c18 0 32.667 -1.16699 44 -3.5s17 -12.166 17 -29.499
c0 -44.667 -50.333 -77.334 -151 -98.001c-30.667 -6.66699 -78.334 -13.334 -143.001 -20.001l-49 -142c17.333 4.66699 58.333 12.5 123 23.5s103.334 16.5 116.001 16.5c34.667 0 57.667 -3 69 -9c16 -8.66699 24 -26.667 24 -54c0 -30 -8 -51.667 -24 -65
c-12 -10 -28 -15 -48 -15c-9.33301 0 -17.166 0.5 -23.499 1.5s-11.5 2.16699 -15.5 3.5c-39.333 0 -87.833 -5.66699 -145.5 -17l-170.5 -35c-15.333 0 -28.5 5.5 -39.5 16.5s-16.5 22.5 -16.5 34.5c1.33301 9.33301 21.333 79 60 209l50.5 170
c6.33301 22 14 43.833 23 65.5s19.5 43.167 31.5 64.5c-14.667 0 -26.334 2.66699 -35.001 8c-12.667 7.33301 -17.667 18.333 -15 33c5.33301 28.667 44.666 53.334 117.999 74.001s163.666 31 270.999 31h77c38.667 -1.33301 58 -10 58 -26z" />
    <glyph glyph-name="AE" unicode="&#xc6;" horiz-adv-x="870" 
d="M357 308c-76 -95.333 -137.666 -168.333 -184.999 -219c-50 -54 -86 -81 -108 -81c-28.667 0 -49.167 5.5 -61.5 16.5s-18.5 30.167 -18.5 57.5c0 22 5.83301 43.167 17.5 63.5s27 32.666 46 36.999s45.5 21.166 79.5 50.499c28 24 58.667 53.333 92 88l69 72
c-28 46 -43.333 71 -46 75c-18 25.333 -38.333 44 -61 56s-37 23.5 -43 34.5s-9 31.5 -9 61.5c0 19.333 7.66699 36.333 23 51s33.666 22 54.999 22c23.333 0 55.666 -28.333 96.999 -85l129 -201c34 116.667 51.667 177 53 181c27.333 84.667 58.666 127 93.999 127
c11.333 0 22 -5.66699 32 -17s15 -23 15 -35c0 -18.667 -9.33301 -59.667 -28 -123l-42 -139c78.667 79.333 135 134.333 169 165c80.667 72 137 108 169 108c42 0 63 -21 63 -63c0 -28 -7.66699 -50 -23 -66s-40.666 -29.333 -75.999 -40c-20 -6 -51 -24.667 -93 -56
c-36 -26.667 -72 -56.334 -108 -89.001c24 -42 49 -80.667 75 -116c38.667 -52.667 68.667 -84 90 -94c14.667 -6.66699 24.334 -15.667 29.001 -27s7 -26.333 7 -45c0 -22.667 -9.5 -41.5 -28.5 -56.5s-41.5 -22.5 -67.5 -22.5c-4.66699 0.666992 -8.33398 1 -11.001 1
c-19.333 2 -44.333 23.333 -75 64c-22.667 30 -49 71.333 -79 124l-54 96c-4 -3.33301 -8.33301 -6.16602 -13 -8.49902s-8.66699 -4.16602 -12 -5.49902c-4.66699 -10.667 -9.83398 -26.5 -15.501 -47.5s-11.5 -39.167 -17.5 -54.5
c-3.33301 -8 -5.66602 -20.667 -6.99902 -38c-3.33301 -40 -5 -60.667 -5 -62c-4.66699 -21.333 -16.667 -38.166 -36 -50.499s-41 -18.5 -65 -18.5c-18 0 -33.5 6.83301 -46.5 20.5s-19.5 30.167 -19.5 49.5c0 8.66699 13 44.667 39 108c16.667 40 30.667 75.667 42 107
c-6.66699 4.66699 -12.167 8.66699 -16.5 12s-9.16602 7.33301 -14.499 12z" />
    <glyph glyph-name="AE" unicode="&#x416;" horiz-adv-x="870" 
d="M357 308c-76 -95.333 -137.666 -168.333 -184.999 -219c-50 -54 -86 -81 -108 -81c-28.667 0 -49.167 5.5 -61.5 16.5s-18.5 30.167 -18.5 57.5c0 22 5.83301 43.167 17.5 63.5s27 32.666 46 36.999s45.5 21.166 79.5 50.499c28 24 58.667 53.333 92 88l69 72
c-28 46 -43.333 71 -46 75c-18 25.333 -38.333 44 -61 56s-37 23.5 -43 34.5s-9 31.5 -9 61.5c0 19.333 7.66699 36.333 23 51s33.666 22 54.999 22c23.333 0 55.666 -28.333 96.999 -85l129 -201c34 116.667 51.667 177 53 181c27.333 84.667 58.666 127 93.999 127
c11.333 0 22 -5.66699 32 -17s15 -23 15 -35c0 -18.667 -9.33301 -59.667 -28 -123l-42 -139c78.667 79.333 135 134.333 169 165c80.667 72 137 108 169 108c42 0 63 -21 63 -63c0 -28 -7.66699 -50 -23 -66s-40.666 -29.333 -75.999 -40c-20 -6 -51 -24.667 -93 -56
c-36 -26.667 -72 -56.334 -108 -89.001c24 -42 49 -80.667 75 -116c38.667 -52.667 68.667 -84 90 -94c14.667 -6.66699 24.334 -15.667 29.001 -27s7 -26.333 7 -45c0 -22.667 -9.5 -41.5 -28.5 -56.5s-41.5 -22.5 -67.5 -22.5c-4.66699 0.666992 -8.33398 1 -11.001 1
c-19.333 2 -44.333 23.333 -75 64c-22.667 30 -49 71.333 -79 124l-54 96c-4 -3.33301 -8.33301 -6.16602 -13 -8.49902s-8.66699 -4.16602 -12 -5.49902c-4.66699 -10.667 -9.83398 -26.5 -15.501 -47.5s-11.5 -39.167 -17.5 -54.5
c-3.33301 -8 -5.66602 -20.667 -6.99902 -38c-3.33301 -40 -5 -60.667 -5 -62c-4.66699 -21.333 -16.667 -38.166 -36 -50.499s-41 -18.5 -65 -18.5c-18 0 -33.5 6.83301 -46.5 20.5s-19.5 30.167 -19.5 49.5c0 8.66699 13 44.667 39 108c16.667 40 30.667 75.667 42 107
c-6.66699 4.66699 -12.167 8.66699 -16.5 12s-9.16602 7.33301 -14.499 12z" />
    <glyph glyph-name="Ccedilla" unicode="&#xc7;" horiz-adv-x="480" 
d="M519 249c0 -68 -32.666 -127.666 -97.999 -178.999c-60 -47.333 -121.667 -71 -185 -71c-75.333 0 -135.333 17 -180 51c-34 26 -51 50.333 -51 73c0 25.333 5.5 45.5 16.5 60.5s26.167 22.5 45.5 22.5c18 0 40.5 -13.833 67.5 -41.5s65.5 -41.5 115.5 -41.5
c34 0 65 12.667 93 38s42 54.666 42 87.999c0 28 -7 48 -21 60c-10.667 9.33301 -26.667 14 -48 14c-6.66699 0 -21 -2.33301 -43 -7c-12.667 -2.66699 -21.334 -4 -26.001 -4c-28 0 -42 20.333 -42 61c0 10 5.5 21.667 16.5 35s24.167 22 39.5 26
c32 9.33301 60.333 21.333 85 36c34.667 21.333 52 44 52 68c0 20 -6.66699 33.333 -20 40c-8 4 -21 6 -39 6c-26 0 -58.667 -14.333 -98 -43c-18.667 -13.333 -35.667 -20 -51 -20c-13.333 0 -23 5.83301 -29 17.5s-9 26.834 -9 45.501c0 21.333 14 43 42 65
c40.667 32 98 48 172 48c49.333 0 88 -14 116 -42c24.667 -24.667 37 -54 37 -88c0 -50 -12.333 -89 -37 -117c-13.333 -15.333 -38.333 -32.333 -75 -51c26 -6.66699 49.667 -22 71 -46c27.333 -30.667 41 -65.334 41 -104.001z" />
    <glyph glyph-name="Ccedilla" unicode="&#x417;" horiz-adv-x="480" 
d="M519 249c0 -68 -32.666 -127.666 -97.999 -178.999c-60 -47.333 -121.667 -71 -185 -71c-75.333 0 -135.333 17 -180 51c-34 26 -51 50.333 -51 73c0 25.333 5.5 45.5 16.5 60.5s26.167 22.5 45.5 22.5c18 0 40.5 -13.833 67.5 -41.5s65.5 -41.5 115.5 -41.5
c34 0 65 12.667 93 38s42 54.666 42 87.999c0 28 -7 48 -21 60c-10.667 9.33301 -26.667 14 -48 14c-6.66699 0 -21 -2.33301 -43 -7c-12.667 -2.66699 -21.334 -4 -26.001 -4c-28 0 -42 20.333 -42 61c0 10 5.5 21.667 16.5 35s24.167 22 39.5 26
c32 9.33301 60.333 21.333 85 36c34.667 21.333 52 44 52 68c0 20 -6.66699 33.333 -20 40c-8 4 -21 6 -39 6c-26 0 -58.667 -14.333 -98 -43c-18.667 -13.333 -35.667 -20 -51 -20c-13.333 0 -23 5.83301 -29 17.5s-9 26.834 -9 45.501c0 21.333 14 43 42 65
c40.667 32 98 48 172 48c49.333 0 88 -14 116 -42c24.667 -24.667 37 -54 37 -88c0 -50 -12.333 -89 -37 -117c-13.333 -15.333 -38.333 -32.333 -75 -51c26 -6.66699 49.667 -22 71 -46c27.333 -30.667 41 -65.334 41 -104.001z" />
    <glyph glyph-name="Egrave" unicode="&#xc8;" horiz-adv-x="598" 
d="M501 409c-12 -12 -55.9971 -60.666 -131.997 -145.999c-69.333 -78 -126.333 -138.667 -171 -182c-61.333 -60 -103 -90 -125 -90c-18.667 0 -35.167 6.16699 -49.5 18.5s-21.5 26.833 -21.5 43.5c0 12.667 9.66699 46 29 100l51 142c6 16.667 22.333 72.667 49 168
c18.667 67.333 36 116.666 52 147.999c21.333 42.667 44.666 64 69.999 64c9.33301 0 19.5 -5.16699 30.5 -15.5s16.5 -21.833 16.5 -34.5c0 -21.333 -16.667 -84 -50 -188c-9.33301 -30 -27 -83 -53 -159l-26 -72l111 119l164 179.5c60 66.333 96.333 108.833 109 127.5
c9.33301 14.667 18.166 24 26.499 28s18.5 6 30.5 6h17c17.333 0 29.333 -8 36 -24c4.66699 -11.333 7 -26.333 7 -45c0 -17.333 -11 -58.833 -33 -124.5l-65 -191.5c-23.333 -68.667 -35 -109 -35 -121c0 -9.33301 4.33301 -22.666 13 -39.999
c4.66699 -9.33301 7 -17 7 -23c0 -22.667 -8.66699 -42.334 -26 -59.001c-22.667 -22 -55.667 -33 -99 -33c-17.333 0 -32 5.33301 -44 16s-18 23.667 -18 39c0 19.333 13.667 65 41 137c23.333 61.333 52.666 132 87.999 212z" />
    <glyph glyph-name="Egrave" unicode="&#x418;" horiz-adv-x="598" 
d="M501 409c-12 -12 -55.9971 -60.666 -131.997 -145.999c-69.333 -78 -126.333 -138.667 -171 -182c-61.333 -60 -103 -90 -125 -90c-18.667 0 -35.167 6.16699 -49.5 18.5s-21.5 26.833 -21.5 43.5c0 12.667 9.66699 46 29 100l51 142c6 16.667 22.333 72.667 49 168
c18.667 67.333 36 116.666 52 147.999c21.333 42.667 44.666 64 69.999 64c9.33301 0 19.5 -5.16699 30.5 -15.5s16.5 -21.833 16.5 -34.5c0 -21.333 -16.667 -84 -50 -188c-9.33301 -30 -27 -83 -53 -159l-26 -72l111 119l164 179.5c60 66.333 96.333 108.833 109 127.5
c9.33301 14.667 18.166 24 26.499 28s18.5 6 30.5 6h17c17.333 0 29.333 -8 36 -24c4.66699 -11.333 7 -26.333 7 -45c0 -17.333 -11 -58.833 -33 -124.5l-65 -191.5c-23.333 -68.667 -35 -109 -35 -121c0 -9.33301 4.33301 -22.666 13 -39.999
c4.66699 -9.33301 7 -17 7 -23c0 -22.667 -8.66699 -42.334 -26 -59.001c-22.667 -22 -55.667 -33 -99 -33c-17.333 0 -32 5.33301 -44 16s-18 23.667 -18 39c0 19.333 13.667 65 41 137c23.333 61.333 52.666 132 87.999 212z" />
    <glyph glyph-name="Eacute" unicode="&#xc9;" horiz-adv-x="653" 
d="M501 409c-12 -12 -55.9971 -60.666 -131.997 -145.999c-69.333 -78 -126.333 -138.667 -171 -182c-61.333 -60 -103 -90 -125 -90c-18.667 0 -35.167 6.16699 -49.5 18.5s-21.5 26.833 -21.5 43.5c0 12.667 9.66699 46 29 100l51 142c6 16.667 22.333 72.667 49 168
c18.667 67.333 36 116.666 52 147.999c21.333 42.667 44.666 64 69.999 64c9.33301 0 19.5 -5.16699 30.5 -15.5s16.5 -21.833 16.5 -34.5c0 -21.333 -16.667 -84 -50 -188c-9.33301 -30 -27 -83 -53 -159l-26 -72l111 119l164 179.5c60 66.333 96.333 108.833 109 127.5
c9.33301 14.667 18.166 24 26.499 28s18.5 6 30.5 6h17c17.333 0 29.333 -8 36 -24c4.66699 -11.333 7 -26.333 7 -45c0 -17.333 -11 -58.833 -33 -124.5l-65 -191.5c-23.333 -68.667 -35 -109 -35 -121c0 -9.33301 4.33301 -22.666 13 -39.999
c4.66699 -9.33301 7 -17 7 -23c0 -22.667 -8.66699 -42.334 -26 -59.001c-22.667 -22 -55.667 -33 -99 -33c-17.333 0 -32 5.33301 -44 16s-18 23.667 -18 39c0 19.333 13.667 65 41 137c23.333 61.333 52.666 132 87.999 212zM703.003 826.001
c0 -26 -27.168 -56.167 -81.501 -90.5s-108.5 -51.5 -162.5 -51.5c-46.667 0 -82.334 16 -107.001 48c-20.667 26.667 -31 58 -31 94c0 16.667 5 30 15 40s26.667 15 50 15c21.333 0 38 -3.33301 50 -10c8.66699 -4.66699 16.334 -12.667 23.001 -24
c6.66699 -16 11.667 -27 15 -33c6 -10.667 15 -16 27 -16c26.667 0 51.334 3 74.001 9c29.333 8 58 21.333 86 40c8 4.66699 14.667 7 20 7c14.667 0 22 -9.33301 22 -28z" />
    <glyph glyph-name="Eacute" unicode="&#x419;" horiz-adv-x="653" 
d="M501 409c-12 -12 -55.9971 -60.666 -131.997 -145.999c-69.333 -78 -126.333 -138.667 -171 -182c-61.333 -60 -103 -90 -125 -90c-18.667 0 -35.167 6.16699 -49.5 18.5s-21.5 26.833 -21.5 43.5c0 12.667 9.66699 46 29 100l51 142c6 16.667 22.333 72.667 49 168
c18.667 67.333 36 116.666 52 147.999c21.333 42.667 44.666 64 69.999 64c9.33301 0 19.5 -5.16699 30.5 -15.5s16.5 -21.833 16.5 -34.5c0 -21.333 -16.667 -84 -50 -188c-9.33301 -30 -27 -83 -53 -159l-26 -72l111 119l164 179.5c60 66.333 96.333 108.833 109 127.5
c9.33301 14.667 18.166 24 26.499 28s18.5 6 30.5 6h17c17.333 0 29.333 -8 36 -24c4.66699 -11.333 7 -26.333 7 -45c0 -17.333 -11 -58.833 -33 -124.5l-65 -191.5c-23.333 -68.667 -35 -109 -35 -121c0 -9.33301 4.33301 -22.666 13 -39.999
c4.66699 -9.33301 7 -17 7 -23c0 -22.667 -8.66699 -42.334 -26 -59.001c-22.667 -22 -55.667 -33 -99 -33c-17.333 0 -32 5.33301 -44 16s-18 23.667 -18 39c0 19.333 13.667 65 41 137c23.333 61.333 52.666 132 87.999 212zM703.003 826.001
c0 -26 -27.168 -56.167 -81.501 -90.5s-108.5 -51.5 -162.5 -51.5c-46.667 0 -82.334 16 -107.001 48c-20.667 26.667 -31 58 -31 94c0 16.667 5 30 15 40s26.667 15 50 15c21.333 0 38 -3.33301 50 -10c8.66699 -4.66699 16.334 -12.667 23.001 -24
c6.66699 -16 11.667 -27 15 -33c6 -10.667 15 -16 27 -16c26.667 0 51.334 3 74.001 9c29.333 8 58 21.333 86 40c8 4.66699 14.667 7 20 7c14.667 0 22 -9.33301 22 -28z" />
    <glyph glyph-name="Ecircumflex" unicode="&#xca;" horiz-adv-x="620" 
d="M730 596c0 -26.667 -8.49902 -47.5029 -25.499 -62.5029s-40.167 -24.5 -69.5 -28.5c-20 -2 -58 -19.667 -114 -53c-44 -26 -83 -51.333 -117 -76l82 -109c44 -55.333 75.667 -87.666 95 -96.999c15.333 -6.66699 25.333 -15.5 30 -26.5s7 -26.167 7 -45.5
c0 -22.667 -9.5 -41.5 -28.5 -56.5s-41.5 -22.5 -67.5 -22.5c-4.66699 0.666992 -8.33398 1 -11.001 1c-27.333 2.66699 -68.333 46 -123 130c-4.66699 7.33301 -37.667 62.666 -99 165.999c-11.333 -7.33301 -20 -12.666 -26 -15.999s-17.333 -8.33301 -34 -15l-27 -50
c-10 -19.333 -19 -38 -27 -56c-4 -10 -6 -20.667 -6 -32c0 -6.66699 0.333008 -14.5 1 -23.5s1.66699 -18.833 3 -29.5c0 -6 -0.333008 -10.333 -1 -13c-4 -21.333 -16 -38.166 -36 -50.499s-41.667 -18.5 -65 -18.5c-18 -2 -33.5 4.16699 -46.5 18.5s-19.5 31.5 -19.5 51.5
c0 10 7.33301 34 22 72c48 124.667 76.333 200.334 85 227.001c35.333 114 67 194.667 95 242c25.333 42.667 52 64 80 64c10.667 0 20.667 -5 30 -15s14 -21 14 -33c0 -18.667 -8.66699 -52.667 -26 -102l-41 -117c0.666992 0 34.667 23.333 102 70
c73.333 50 130 87 170 111c65.333 38.667 109 58 131 58c42 0 63 -21 63 -63z" />
    <glyph glyph-name="Ecircumflex" unicode="&#x41a;" horiz-adv-x="620" 
d="M730 596c0 -26.667 -8.49902 -47.5029 -25.499 -62.5029s-40.167 -24.5 -69.5 -28.5c-20 -2 -58 -19.667 -114 -53c-44 -26 -83 -51.333 -117 -76l82 -109c44 -55.333 75.667 -87.666 95 -96.999c15.333 -6.66699 25.333 -15.5 30 -26.5s7 -26.167 7 -45.5
c0 -22.667 -9.5 -41.5 -28.5 -56.5s-41.5 -22.5 -67.5 -22.5c-4.66699 0.666992 -8.33398 1 -11.001 1c-27.333 2.66699 -68.333 46 -123 130c-4.66699 7.33301 -37.667 62.666 -99 165.999c-11.333 -7.33301 -20 -12.666 -26 -15.999s-17.333 -8.33301 -34 -15l-27 -50
c-10 -19.333 -19 -38 -27 -56c-4 -10 -6 -20.667 -6 -32c0 -6.66699 0.333008 -14.5 1 -23.5s1.66699 -18.833 3 -29.5c0 -6 -0.333008 -10.333 -1 -13c-4 -21.333 -16 -38.166 -36 -50.499s-41.667 -18.5 -65 -18.5c-18 -2 -33.5 4.16699 -46.5 18.5s-19.5 31.5 -19.5 51.5
c0 10 7.33301 34 22 72c48 124.667 76.333 200.334 85 227.001c35.333 114 67 194.667 95 242c25.333 42.667 52 64 80 64c10.667 0 20.667 -5 30 -15s14 -21 14 -33c0 -18.667 -8.66699 -52.667 -26 -102l-41 -117c0.666992 0 34.667 23.333 102 70
c73.333 50 130 87 170 111c65.333 38.667 109 58 131 58c42 0 63 -21 63 -63z" />
    <glyph glyph-name="Edieresis" unicode="&#xcb;" horiz-adv-x="550" 
d="M137 29c-22 -22.667 -43.335 -37.6729 -64.002 -45.0059c-13.333 -4.66699 -31 -7 -53 -7c-17.333 0 -30.166 10.167 -38.499 30.5s-12.5 43.5 -12.5 69.5c0 16.667 10 28.334 30 35.001c11.333 3.33301 23 7 35 11c29.333 10 61.333 39 96 87
c25.333 35.333 53.333 82.666 84 141.999l121 242c46.667 82 88.334 123 125.001 123c29.333 0 49 -8.66699 59 -26c6.66699 -11.333 10 -29 10 -53v-17c0 -14.667 -1.66699 -36.334 -5 -65.001c-8 -69.333 -12 -118.666 -12 -147.999c0 -34 -1.16699 -70.167 -3.5 -108.5
s-4.16602 -72.166 -5.49902 -101.499c0 -9.33301 8 -25.666 24 -48.999s24 -42.666 24 -57.999c0 -33.333 -12.667 -61.666 -38 -84.999c-21.333 -19.333 -49 -29 -83 -29c-25.333 0 -42 10 -50 30c-4.66699 11.333 -7 29.333 -7 54c0 26.667 0.166992 53 0.5 79
s3.16602 65.667 8.49902 119c0.666992 8 7 74 19 198c4.66699 50.667 7.66699 80.667 9 90c-6 -9.33301 -27 -51.666 -63 -126.999l-48 -102c-74 -157.333 -128 -253.666 -162 -288.999z" />
    <glyph glyph-name="Edieresis" unicode="&#x41b;" horiz-adv-x="550" 
d="M137 29c-22 -22.667 -43.335 -37.6729 -64.002 -45.0059c-13.333 -4.66699 -31 -7 -53 -7c-17.333 0 -30.166 10.167 -38.499 30.5s-12.5 43.5 -12.5 69.5c0 16.667 10 28.334 30 35.001c11.333 3.33301 23 7 35 11c29.333 10 61.333 39 96 87
c25.333 35.333 53.333 82.666 84 141.999l121 242c46.667 82 88.334 123 125.001 123c29.333 0 49 -8.66699 59 -26c6.66699 -11.333 10 -29 10 -53v-17c0 -14.667 -1.66699 -36.334 -5 -65.001c-8 -69.333 -12 -118.666 -12 -147.999c0 -34 -1.16699 -70.167 -3.5 -108.5
s-4.16602 -72.166 -5.49902 -101.499c0 -9.33301 8 -25.666 24 -48.999s24 -42.666 24 -57.999c0 -33.333 -12.667 -61.666 -38 -84.999c-21.333 -19.333 -49 -29 -83 -29c-25.333 0 -42 10 -50 30c-4.66699 11.333 -7 29.333 -7 54c0 26.667 0.166992 53 0.5 79
s3.16602 65.667 8.49902 119c0.666992 8 7 74 19 198c4.66699 50.667 7.66699 80.667 9 90c-6 -9.33301 -27 -51.666 -63 -126.999l-48 -102c-74 -157.333 -128 -253.666 -162 -288.999z" />
    <glyph glyph-name="Igrave" unicode="&#xcc;" horiz-adv-x="861" 
d="M236 353c22.667 55.333 42.499 108.664 59.499 159.997l37 111c7.66699 22.667 20 40.667 37 54s34.5 20 52.5 20c31.333 0 52.333 -11.333 63 -34c7.33301 -16 11 -44 11 -84c0 -20 -1.5 -57.667 -4.5 -113s-5.83301 -112.333 -8.5 -171v-5c2 0.666992 3.66699 1 5 1
c4 0 29 33.667 75 101c58 86 102 148.333 132 187c52 68 87.333 102 106 102c26.667 0 45.334 -11 56.001 -33c8 -16.667 12 -39.667 12 -69c0 -32 -5.83301 -71.833 -17.5 -119.5l-35 -142.5c-11.667 -47.333 -17.5 -86.666 -17.5 -117.999c0 -22 4.66699 -35.333 14 -40
s14 -21.667 14 -51c0 -27.333 -7.33301 -50.666 -22 -69.999c-17.333 -22.667 -40.666 -34 -69.999 -34c-20 0 -37.167 8.33301 -51.5 25s-21.5 38.334 -21.5 65.001c-0.666992 5.33301 -1 11 -1 17v14c0 34.667 9 89.667 27 165c12.667 54 21.667 97.333 27 130l-80 -118
c-48 -70.667 -86.667 -124 -116 -160c-44 -54 -74.333 -81 -91 -81c-26.667 0 -45 11.667 -55 35c-6 14 -9 35.333 -9 64c0 40 0.166992 85.167 0.5 135.5s2.16602 88.833 5.49902 115.5l-91 -199c-47.333 -98.667 -83.333 -159.5 -108 -182.5s-48.667 -38.5 -72 -46.5
c-18 -6 -40.333 -9 -67 -9c-17.333 0 -30.166 10.167 -38.499 30.5s-12.5 43.5 -12.5 69.5c0 17.333 14.333 30 43 38l42 12c30.667 10 62 38.333 94 85c27.333 39.333 52.666 87 75.999 143z" />
    <glyph glyph-name="Igrave" unicode="&#x41c;" horiz-adv-x="861" 
d="M236 353c22.667 55.333 42.499 108.664 59.499 159.997l37 111c7.66699 22.667 20 40.667 37 54s34.5 20 52.5 20c31.333 0 52.333 -11.333 63 -34c7.33301 -16 11 -44 11 -84c0 -20 -1.5 -57.667 -4.5 -113s-5.83301 -112.333 -8.5 -171v-5c2 0.666992 3.66699 1 5 1
c4 0 29 33.667 75 101c58 86 102 148.333 132 187c52 68 87.333 102 106 102c26.667 0 45.334 -11 56.001 -33c8 -16.667 12 -39.667 12 -69c0 -32 -5.83301 -71.833 -17.5 -119.5l-35 -142.5c-11.667 -47.333 -17.5 -86.666 -17.5 -117.999c0 -22 4.66699 -35.333 14 -40
s14 -21.667 14 -51c0 -27.333 -7.33301 -50.666 -22 -69.999c-17.333 -22.667 -40.666 -34 -69.999 -34c-20 0 -37.167 8.33301 -51.5 25s-21.5 38.334 -21.5 65.001c-0.666992 5.33301 -1 11 -1 17v14c0 34.667 9 89.667 27 165c12.667 54 21.667 97.333 27 130l-80 -118
c-48 -70.667 -86.667 -124 -116 -160c-44 -54 -74.333 -81 -91 -81c-26.667 0 -45 11.667 -55 35c-6 14 -9 35.333 -9 64c0 40 0.166992 85.167 0.5 135.5s2.16602 88.833 5.49902 115.5l-91 -199c-47.333 -98.667 -83.333 -159.5 -108 -182.5s-48.667 -38.5 -72 -46.5
c-18 -6 -40.333 -9 -67 -9c-17.333 0 -30.166 10.167 -38.499 30.5s-12.5 43.5 -12.5 69.5c0 17.333 14.333 30 43 38l42 12c30.667 10 62 38.333 94 85c27.333 39.333 52.666 87 75.999 143z" />
    <glyph glyph-name="Iacute" unicode="&#xcd;" horiz-adv-x="577" 
d="M636 600c0 -24.667 -12.165 -69.333 -36.498 -134l-71.5 -189c-25.333 -66.667 -38 -107.667 -38 -123c0 -5.33301 3.33301 -13.666 10 -24.999s10 -21.333 10 -30c0 -25.333 -8.66699 -46 -26 -62c-22 -20 -55 -30 -99 -30c-17.333 0 -32 5.33301 -44 16
s-18 23.667 -18 39c0 18.667 13.667 60 41 124c19.333 45.333 33.333 80.333 42 105c-27.333 -2.66699 -54.333 -6.33398 -81 -11.001c-59.333 -10 -94 -15.333 -104 -16c-10.667 -26.667 -18.334 -45.334 -23.001 -56.001c-8 -18.667 -14.667 -31 -20 -37
c11.333 -17.333 17.666 -28 18.999 -32c4.66699 -10.667 7 -23 7 -37c0 -19.333 -9.66699 -41 -29 -65c-24.667 -30.667 -55 -46 -91 -46c-18 0 -34.167 6.16699 -48.5 18.5s-21.5 26.833 -21.5 43.5c0 12.667 13.667 50 41 112c20.667 46.667 35.334 81.334 44.001 104.001
c0.666992 6.66699 -2.33301 15.5 -9 26.5s-10 19.833 -10 26.5c0 14 2 23.667 6 29c0.666992 0.666992 14.667 10.334 42 29.001c34 87.333 59.667 148.666 77 183.999c35.333 72.667 63.666 109 84.999 109c10 0 20.333 -5.33301 31 -16s16 -22.334 16 -35.001
c0 -29.333 -15 -78 -45 -146c-20 -42.667 -33.333 -72 -40 -88c30 2.66699 65.333 6.66699 106 12c7.33301 0.666992 35.666 4.66699 84.999 12c6.66699 13.333 15.5 34 26.5 62s20.5 54 28.5 78c19.333 57.333 36.333 93.333 51 108s34.334 22 59.001 22
c14 0 23.333 -6.33301 28 -19c2.66699 -7.33301 4 -15 4 -23c0 -6.66699 -0.666992 -14.667 -2 -24s-2 -14.666 -2 -15.999z" />
    <glyph glyph-name="Iacute" unicode="&#x41d;" horiz-adv-x="577" 
d="M636 600c0 -24.667 -12.165 -69.333 -36.498 -134l-71.5 -189c-25.333 -66.667 -38 -107.667 -38 -123c0 -5.33301 3.33301 -13.666 10 -24.999s10 -21.333 10 -30c0 -25.333 -8.66699 -46 -26 -62c-22 -20 -55 -30 -99 -30c-17.333 0 -32 5.33301 -44 16
s-18 23.667 -18 39c0 18.667 13.667 60 41 124c19.333 45.333 33.333 80.333 42 105c-27.333 -2.66699 -54.333 -6.33398 -81 -11.001c-59.333 -10 -94 -15.333 -104 -16c-10.667 -26.667 -18.334 -45.334 -23.001 -56.001c-8 -18.667 -14.667 -31 -20 -37
c11.333 -17.333 17.666 -28 18.999 -32c4.66699 -10.667 7 -23 7 -37c0 -19.333 -9.66699 -41 -29 -65c-24.667 -30.667 -55 -46 -91 -46c-18 0 -34.167 6.16699 -48.5 18.5s-21.5 26.833 -21.5 43.5c0 12.667 13.667 50 41 112c20.667 46.667 35.334 81.334 44.001 104.001
c0.666992 6.66699 -2.33301 15.5 -9 26.5s-10 19.833 -10 26.5c0 14 2 23.667 6 29c0.666992 0.666992 14.667 10.334 42 29.001c34 87.333 59.667 148.666 77 183.999c35.333 72.667 63.666 109 84.999 109c10 0 20.333 -5.33301 31 -16s16 -22.334 16 -35.001
c0 -29.333 -15 -78 -45 -146c-20 -42.667 -33.333 -72 -40 -88c30 2.66699 65.333 6.66699 106 12c7.33301 0.666992 35.666 4.66699 84.999 12c6.66699 13.333 15.5 34 26.5 62s20.5 54 28.5 78c19.333 57.333 36.333 93.333 51 108s34.334 22 59.001 22
c14 0 23.333 -6.33301 28 -19c2.66699 -7.33301 4 -15 4 -23c0 -6.66699 -0.666992 -14.667 -2 -24s-2 -14.666 -2 -15.999z" />
    <glyph glyph-name="Icircumflex" unicode="&#xce;" horiz-adv-x="498" 
d="M587 555c0 -114 -26.334 -217.666 -79.001 -310.999c-45.333 -80.667 -104.666 -145.334 -177.999 -194.001c-66 -44 -128 -66 -186 -66c-32.667 0 -60.334 14 -83.001 42s-34 61 -34 99c0 76 3 131.667 9 167c10 60.667 32.667 122 68 184
c45.333 79.333 93.333 135.333 144 168c35.333 22.667 74 34 116 34c11.333 0 21.5 -0.5 30.5 -1.5l30.5 -3.5c4.66699 18 8.33398 28.333 11.001 31c6 6 15.333 9 28 9c20 0 45.5 -20.167 76.5 -60.5s46.5 -72.833 46.5 -97.5zM453.999 473.001c0 22 -9.5 39.5 -28.5 52.5
s-46.167 19.5 -81.5 19.5c-64.667 0 -117 -52 -157 -156c-29.333 -76 -44 -140 -44 -192c0 -22.667 6 -41.667 18 -57s27 -23 45 -23c70 0 130.333 42 181 126c44.667 74 67 150.667 67 230z" />
    <glyph glyph-name="Icircumflex" unicode="&#x41e;" horiz-adv-x="498" 
d="M587 555c0 -114 -26.334 -217.666 -79.001 -310.999c-45.333 -80.667 -104.666 -145.334 -177.999 -194.001c-66 -44 -128 -66 -186 -66c-32.667 0 -60.334 14 -83.001 42s-34 61 -34 99c0 76 3 131.667 9 167c10 60.667 32.667 122 68 184
c45.333 79.333 93.333 135.333 144 168c35.333 22.667 74 34 116 34c11.333 0 21.5 -0.5 30.5 -1.5l30.5 -3.5c4.66699 18 8.33398 28.333 11.001 31c6 6 15.333 9 28 9c20 0 45.5 -20.167 76.5 -60.5s46.5 -72.833 46.5 -97.5zM453.999 473.001c0 22 -9.5 39.5 -28.5 52.5
s-46.167 19.5 -81.5 19.5c-64.667 0 -117 -52 -157 -156c-29.333 -76 -44 -140 -44 -192c0 -22.667 6 -41.667 18 -57s27 -23 45 -23c70 0 130.333 42 181 126c44.667 74 67 150.667 67 230z" />
    <glyph glyph-name="Idieresis" unicode="&#xcf;" horiz-adv-x="530" 
d="M467 571c-6.66699 0 -29.6641 -2 -68.9971 -6s-62.333 -6 -69 -6c-14.667 -34.667 -29.167 -72.834 -43.5 -114.501l-40.5 -119.5l-45 -119l-47 -112c-13.333 -32 -23.333 -53 -30 -63c-14.667 -20.667 -32 -31 -52 -31c-37.333 0 -56 21 -56 63
c0 20.667 18.667 73.667 56 159c32.667 74.667 54 124.667 64 150l63 176c-18.667 -2 -33.834 1.83301 -45.501 11.5s-17.5 24.5 -17.5 44.5c0 14.667 6.16699 28.834 18.5 42.501s27.166 22.167 44.499 25.5c32 6.66699 79.167 12.167 141.5 16.5s121.166 6.5 176.499 6.5
c50 0 83.167 -5 99.5 -15s24.5 -24.667 24.5 -44c0 -13.333 -3.33301 -24.333 -10 -33c-8.66699 -11.333 -24 -19 -46 -23l-54 -158l-56 -174c-18 -59.333 -27 -95 -27 -107c0 -5.33301 3.33301 -14 10 -26s10 -22 10 -30c0 -25.333 -9 -46 -27 -62
c-22 -20 -54.667 -30 -98 -30c-17.333 0 -32 5.33301 -44 16s-18 23.667 -18 39c0 19.333 23.667 92 71 218z" />
    <glyph glyph-name="Idieresis" unicode="&#x41f;" horiz-adv-x="530" 
d="M467 571c-6.66699 0 -29.6641 -2 -68.9971 -6s-62.333 -6 -69 -6c-14.667 -34.667 -29.167 -72.834 -43.5 -114.501l-40.5 -119.5l-45 -119l-47 -112c-13.333 -32 -23.333 -53 -30 -63c-14.667 -20.667 -32 -31 -52 -31c-37.333 0 -56 21 -56 63
c0 20.667 18.667 73.667 56 159c32.667 74.667 54 124.667 64 150l63 176c-18.667 -2 -33.834 1.83301 -45.501 11.5s-17.5 24.5 -17.5 44.5c0 14.667 6.16699 28.834 18.5 42.501s27.166 22.167 44.499 25.5c32 6.66699 79.167 12.167 141.5 16.5s121.166 6.5 176.499 6.5
c50 0 83.167 -5 99.5 -15s24.5 -24.667 24.5 -44c0 -13.333 -3.33301 -24.333 -10 -33c-8.66699 -11.333 -24 -19 -46 -23l-54 -158l-56 -174c-18 -59.333 -27 -95 -27 -107c0 -5.33301 3.33301 -14 10 -26s10 -22 10 -30c0 -25.333 -9 -46 -27 -62
c-22 -20 -54.667 -30 -98 -30c-17.333 0 -32 5.33301 -44 16s-18 23.667 -18 39c0 19.333 23.667 92 71 218z" />
    <glyph glyph-name="Eth" unicode="&#xd0;" horiz-adv-x="461" 
d="M556 548c0 -50 -22.333 -100.001 -67 -150.001c-48.667 -54 -115 -97.667 -199 -131l-109 -49l-25 -169c-4 -18.667 -12.5 -33 -25.5 -43s-33.833 -16.333 -62.5 -19c-14.667 0 -27.667 6.33301 -39 19s-17 27.667 -17 45l27 100c14 52 23.667 89.667 29 113
c11.333 46.667 28 102.5 50 167.5l68 195.5c4 10.667 28.333 26.334 73 47.001c51.333 24 95.333 36 132 36c32 0 66 -15 102 -45c42 -34.667 63 -73.667 63 -117zM415 514.999c0 22 -5.16699 38.167 -15.5 48.5s-28.833 15.5 -55.5 15.5c-34 0 -60.667 -18.333 -80 -55
c-6.66699 -12.667 -15.667 -34.167 -27 -64.5s-19.5 -53.833 -24.5 -70.5s-9.16699 -33.334 -12.5 -50.001c18 6.66699 35.5 13.834 52.5 21.501s33.167 16.5 48.5 26.5c31.333 21.333 56.333 41.333 75 60c26 26 39 48.667 39 68z" />
    <glyph glyph-name="Eth" unicode="&#x420;" horiz-adv-x="461" 
d="M556 548c0 -50 -22.333 -100.001 -67 -150.001c-48.667 -54 -115 -97.667 -199 -131l-109 -49l-25 -169c-4 -18.667 -12.5 -33 -25.5 -43s-33.833 -16.333 -62.5 -19c-14.667 0 -27.667 6.33301 -39 19s-17 27.667 -17 45l27 100c14 52 23.667 89.667 29 113
c11.333 46.667 28 102.5 50 167.5l68 195.5c4 10.667 28.333 26.334 73 47.001c51.333 24 95.333 36 132 36c32 0 66 -15 102 -45c42 -34.667 63 -73.667 63 -117zM415 514.999c0 22 -5.16699 38.167 -15.5 48.5s-28.833 15.5 -55.5 15.5c-34 0 -60.667 -18.333 -80 -55
c-6.66699 -12.667 -15.667 -34.167 -27 -64.5s-19.5 -53.833 -24.5 -70.5s-9.16699 -33.334 -12.5 -50.001c18 6.66699 35.5 13.834 52.5 21.501s33.167 16.5 48.5 26.5c31.333 21.333 56.333 41.333 75 60c26 26 39 48.667 39 68z" />
    <glyph glyph-name="Ntilde" unicode="&#xd1;" horiz-adv-x="472" 
d="M553 607c0 -21.333 -9.00195 -41.332 -27.002 -59.999s-36.333 -28 -55 -28c-3.33301 0 -13 5.16699 -29 15.5s-30.333 15.5 -43 15.5c-56 0 -104.667 -33.333 -146 -100c-53.333 -86 -80 -162.667 -80 -230c2 -13.333 3.66699 -23 5 -29c6 -20 13.667 -30 23 -30
c18 0 65 16 141 48s118 48 126 48c14 0 24.167 -4.5 30.5 -13.5s9.5 -26.833 9.5 -53.5c0 -25.333 -30.667 -55 -92 -89c-47.333 -26 -106.666 -51.667 -177.999 -77c-62.667 -22 -101 -33 -115 -33c-27.333 0 -50 16.167 -68 48.5s-27 71.833 -27 118.5
c0 48 15.333 111.333 46 190c36 92.667 80 167.667 132 225c65.333 72.667 136 109 212 109c16.667 0 43.334 -9.33301 80.001 -28s55 -34.334 55 -47.001z" />
    <glyph glyph-name="Ntilde" unicode="&#x421;" horiz-adv-x="472" 
d="M553 607c0 -21.333 -9.00195 -41.332 -27.002 -59.999s-36.333 -28 -55 -28c-3.33301 0 -13 5.16699 -29 15.5s-30.333 15.5 -43 15.5c-56 0 -104.667 -33.333 -146 -100c-53.333 -86 -80 -162.667 -80 -230c2 -13.333 3.66699 -23 5 -29c6 -20 13.667 -30 23 -30
c18 0 65 16 141 48s118 48 126 48c14 0 24.167 -4.5 30.5 -13.5s9.5 -26.833 9.5 -53.5c0 -25.333 -30.667 -55 -92 -89c-47.333 -26 -106.666 -51.667 -177.999 -77c-62.667 -22 -101 -33 -115 -33c-27.333 0 -50 16.167 -68 48.5s-27 71.833 -27 118.5
c0 48 15.333 111.333 46 190c36 92.667 80 167.667 132 225c65.333 72.667 136 109 212 109c16.667 0 43.334 -9.33301 80.001 -28s55 -34.334 55 -47.001z" />
    <glyph glyph-name="Ograve" unicode="&#xd2;" horiz-adv-x="468" 
d="M608 620c0 -22.667 -10.335 -43.999 -31.002 -63.999s-40.667 -30 -60 -30c-8 0 -18 6.66699 -30 20s-24.667 20 -38 20h-75l-56 -199.5c-15.333 -55.667 -27.666 -103.834 -36.999 -144.501c-3.33301 -14 -5.5 -28.167 -6.5 -42.5s-1.5 -24.833 -1.5 -31.5v-23.5
c0 -7.66699 0.333008 -15.5 1 -23.5c0 -11.333 -1.33301 -25.833 -4 -43.5s-11 -33.167 -25 -46.5s-29.333 -20 -46 -20c-19.333 0 -37.5 8.16699 -54.5 24.5s-25.5 35.5 -25.5 57.5c0 18 12 64 36 138c38.667 120 62.667 195.667 72 227l37 117
c-20 -6.66699 -52.667 -13.834 -98 -21.501s-78.666 -11.5 -99.999 -11.5c-15.333 0 -29.166 4 -41.499 12s-18.5 19.667 -18.5 35c0 20.667 4.5 36.834 13.5 48.501s22 19.5 39 23.5s29.5 6.66699 37.5 8c20 4 43.167 8 69.5 12s94.833 15 205.5 33
c79.333 12.667 122.666 19 129.999 19c34 0 60.333 -7.5 79 -22.5s28 -38.5 28 -70.5z" />
    <glyph glyph-name="Ograve" unicode="&#x422;" horiz-adv-x="468" 
d="M608 620c0 -22.667 -10.335 -43.999 -31.002 -63.999s-40.667 -30 -60 -30c-8 0 -18 6.66699 -30 20s-24.667 20 -38 20h-75l-56 -199.5c-15.333 -55.667 -27.666 -103.834 -36.999 -144.501c-3.33301 -14 -5.5 -28.167 -6.5 -42.5s-1.5 -24.833 -1.5 -31.5v-23.5
c0 -7.66699 0.333008 -15.5 1 -23.5c0 -11.333 -1.33301 -25.833 -4 -43.5s-11 -33.167 -25 -46.5s-29.333 -20 -46 -20c-19.333 0 -37.5 8.16699 -54.5 24.5s-25.5 35.5 -25.5 57.5c0 18 12 64 36 138c38.667 120 62.667 195.667 72 227l37 117
c-20 -6.66699 -52.667 -13.834 -98 -21.501s-78.666 -11.5 -99.999 -11.5c-15.333 0 -29.166 4 -41.499 12s-18.5 19.667 -18.5 35c0 20.667 4.5 36.834 13.5 48.501s22 19.5 39 23.5s29.5 6.66699 37.5 8c20 4 43.167 8 69.5 12s94.833 15 205.5 33
c79.333 12.667 122.666 19 129.999 19c34 0 60.333 -7.5 79 -22.5s28 -38.5 28 -70.5z" />
    <glyph glyph-name="Oacute" unicode="&#xd3;" 
d="M242 243c-5.33301 8.66699 -21.667 41.333 -49 98c-24.667 51.333 -46 90.666 -64 117.999c-19.333 20 -33.666 35.667 -42.999 47c-16.667 20.667 -25 45.334 -25 74.001c0 26 7.33301 47.333 22 64s34.667 25 60 25c35.333 0 75.333 -49.667 120 -149
c26 -63.333 44 -106.333 54 -129l72 169c42.667 88.667 78 133 106 133c14.667 0 28.5 -5 41.5 -15s19.5 -20.667 19.5 -32c0 -13.333 -8.33301 -40 -25 -80c-13.333 -32 -33.666 -76.667 -60.999 -134l-80 -168c-44 -89.333 -74 -146.666 -90 -171.999
c-18.667 -29.333 -38 -53.333 -58 -72c-23.333 -22 -47 -37 -71 -45c-18 -6 -40.333 -9 -67 -9c-16.667 0 -31.334 13 -44.001 39s-19 51.333 -19 76c0 17.333 16.667 31 50 41c15.333 4 30.666 8.33301 45.999 13c28.667 9.33301 49 21.666 61 36.999z" />
    <glyph glyph-name="Oacute" unicode="&#x423;" 
d="M242 243c-5.33301 8.66699 -21.667 41.333 -49 98c-24.667 51.333 -46 90.666 -64 117.999c-19.333 20 -33.666 35.667 -42.999 47c-16.667 20.667 -25 45.334 -25 74.001c0 26 7.33301 47.333 22 64s34.667 25 60 25c35.333 0 75.333 -49.667 120 -149
c26 -63.333 44 -106.333 54 -129l72 169c42.667 88.667 78 133 106 133c14.667 0 28.5 -5 41.5 -15s19.5 -20.667 19.5 -32c0 -13.333 -8.33301 -40 -25 -80c-13.333 -32 -33.666 -76.667 -60.999 -134l-80 -168c-44 -89.333 -74 -146.666 -90 -171.999
c-18.667 -29.333 -38 -53.333 -58 -72c-23.333 -22 -47 -37 -71 -45c-18 -6 -40.333 -9 -67 -9c-16.667 0 -31.334 13 -44.001 39s-19 51.333 -19 76c0 17.333 16.667 31 50 41c15.333 4 30.666 8.33301 45.999 13c28.667 9.33301 49 21.666 61 36.999z" />
    <glyph glyph-name="Ocircumflex" unicode="&#xd4;" horiz-adv-x="690" 
d="M652 379c0 34.667 -3 60.167 -9 76.5s-18.333 28 -37 35s-34.167 12 -46.5 15s-28.833 4.5 -49.5 4.5c-4 -16.667 -10 -37.667 -18 -63c-22 -68 -33 -102.333 -33 -103l-22 -80c-6.66699 -23.333 -14.667 -49 -24 -77c56 0 110.667 23.333 164 70c50 44 75 84.667 75 122
zM255 473c-26.667 -16 -50.668 -41.167 -72.001 -75.5s-32 -67.833 -32 -100.5c0 -28 19 -52 57 -72c30.667 -16 58.334 -24 83.001 -24l45.5 155.5c18.333 61 34.5 111.5 48.5 151.5c-34 -5.33301 -59.833 -10 -77.5 -14s-35.167 -11 -52.5 -21zM15.999 283
c0 39.333 9.50195 80.1631 28.502 122.496s41.5 74.833 67.5 97.5c33.333 30 78.666 56.667 135.999 80c62.667 26 120.334 39 173.001 39c6 16.667 10.167 31.167 12.5 43.5s5.16602 24.5 8.49902 36.5c6.66699 25.333 14 44 22 56c11.333 17.333 25 26 41 26
c3.33301 0 7.66602 -0.666992 12.999 -2c20 -6 33 -11 39 -15c10 -7.33301 15 -18 15 -32c0 -13.333 -2.5 -29.666 -7.5 -48.999s-11.833 -40.666 -20.5 -63.999c59.333 -6 110.666 -16.667 153.999 -32c26.667 -10 47 -25 61 -45c18 -26 27 -60.333 27 -103
c0 -90 -38 -170.667 -114 -242c-79.333 -74 -173.333 -111 -282 -111c-3.33301 -9.33301 -10.333 -34.666 -21 -75.999c-15.333 -58.667 -31 -88 -47 -88c-20 0 -40 4 -60 12c-24 10 -36 21.667 -36 35c0 16.667 0.833008 32.167 2.5 46.5s6.16699 38.5 13.5 72.5
c-61.333 8.66699 -112.666 28.334 -153.999 59.001c-48 36 -72 80.333 -72 133z" />
    <glyph glyph-name="Ocircumflex" unicode="&#x424;" horiz-adv-x="690" 
d="M652 379c0 34.667 -3 60.167 -9 76.5s-18.333 28 -37 35s-34.167 12 -46.5 15s-28.833 4.5 -49.5 4.5c-4 -16.667 -10 -37.667 -18 -63c-22 -68 -33 -102.333 -33 -103l-22 -80c-6.66699 -23.333 -14.667 -49 -24 -77c56 0 110.667 23.333 164 70c50 44 75 84.667 75 122
zM255 473c-26.667 -16 -50.668 -41.167 -72.001 -75.5s-32 -67.833 -32 -100.5c0 -28 19 -52 57 -72c30.667 -16 58.334 -24 83.001 -24l45.5 155.5c18.333 61 34.5 111.5 48.5 151.5c-34 -5.33301 -59.833 -10 -77.5 -14s-35.167 -11 -52.5 -21zM15.999 283
c0 39.333 9.50195 80.1631 28.502 122.496s41.5 74.833 67.5 97.5c33.333 30 78.666 56.667 135.999 80c62.667 26 120.334 39 173.001 39c6 16.667 10.167 31.167 12.5 43.5s5.16602 24.5 8.49902 36.5c6.66699 25.333 14 44 22 56c11.333 17.333 25 26 41 26
c3.33301 0 7.66602 -0.666992 12.999 -2c20 -6 33 -11 39 -15c10 -7.33301 15 -18 15 -32c0 -13.333 -2.5 -29.666 -7.5 -48.999s-11.833 -40.666 -20.5 -63.999c59.333 -6 110.666 -16.667 153.999 -32c26.667 -10 47 -25 61 -45c18 -26 27 -60.333 27 -103
c0 -90 -38 -170.667 -114 -242c-79.333 -74 -173.333 -111 -282 -111c-3.33301 -9.33301 -10.333 -34.666 -21 -75.999c-15.333 -58.667 -31 -88 -47 -88c-20 0 -40 4 -60 12c-24 10 -36 21.667 -36 35c0 16.667 0.833008 32.167 2.5 46.5s6.16699 38.5 13.5 72.5
c-61.333 8.66699 -112.666 28.334 -153.999 59.001c-48 36 -72 80.333 -72 133z" />
    <glyph glyph-name="Otilde" unicode="&#xd5;" horiz-adv-x="538" 
d="M581 646c-2.66699 -15.333 -39.002 -65 -109.002 -149c-42 -50.667 -70 -86 -84 -106c31.333 -56 58 -109 80 -159c30.667 -70 46 -122.333 46 -157c0 -27.333 -6.16699 -48.166 -18.5 -62.499s-32.5 -21.5 -60.5 -21.5c-21.333 0 -37 12 -47 36
c-8.66699 32 -15.667 55 -21 69c-7.33301 25.333 -17.666 52.333 -30.999 81c-16 35.333 -31.667 63 -47 83c-16.667 -24.667 -38.667 -54.667 -66 -90c-56 -72.667 -86.333 -113.667 -91 -123l-26 -53c-10.667 -13.333 -33 -20 -67 -20c-20 0 -34.5 7.5 -43.5 22.5
s-12.833 30.167 -11.5 45.5c0 10.667 17 39 51 85c20 27.333 55 71 105 131l86 102c-10.667 22 -28.667 53 -54 93c-48.667 78 -73 122 -73 132c2 16 10.667 33.667 26 53c18.667 23.333 37.334 34 56.001 32c12 0 34.667 -23.333 68 -70
c28.667 -40.667 52 -78.334 70 -113.001c30.667 42.667 69 88.667 115 138c50.667 54.667 82.667 82 96 82c11.333 0 23.333 -7.16699 36 -21.5s17.667 -27.5 15 -39.5z" />
    <glyph glyph-name="Otilde" unicode="&#x425;" horiz-adv-x="538" 
d="M581 646c-2.66699 -15.333 -39.002 -65 -109.002 -149c-42 -50.667 -70 -86 -84 -106c31.333 -56 58 -109 80 -159c30.667 -70 46 -122.333 46 -157c0 -27.333 -6.16699 -48.166 -18.5 -62.499s-32.5 -21.5 -60.5 -21.5c-21.333 0 -37 12 -47 36
c-8.66699 32 -15.667 55 -21 69c-7.33301 25.333 -17.666 52.333 -30.999 81c-16 35.333 -31.667 63 -47 83c-16.667 -24.667 -38.667 -54.667 -66 -90c-56 -72.667 -86.333 -113.667 -91 -123l-26 -53c-10.667 -13.333 -33 -20 -67 -20c-20 0 -34.5 7.5 -43.5 22.5
s-12.833 30.167 -11.5 45.5c0 10.667 17 39 51 85c20 27.333 55 71 105 131l86 102c-10.667 22 -28.667 53 -54 93c-48.667 78 -73 122 -73 132c2 16 10.667 33.667 26 53c18.667 23.333 37.334 34 56.001 32c12 0 34.667 -23.333 68 -70
c28.667 -40.667 52 -78.334 70 -113.001c30.667 42.667 69 88.667 115 138c50.667 54.667 82.667 82 96 82c11.333 0 23.333 -7.16699 36 -21.5s17.667 -27.5 15 -39.5z" />
    <glyph glyph-name="Odieresis" unicode="&#xd6;" horiz-adv-x="654" 
d="M493 494c13.333 49.333 23.666 84.333 30.999 105c25.333 68 57.333 102 96 102c15.333 0 26.333 -5.5 33 -16.5s10 -28.5 10 -52.5c0 -20 -11.667 -63.5 -35 -130.5l-70 -199.5c-27.333 -78.667 -43.333 -134 -48 -166c32.667 -3.33301 53.667 -10.166 63 -20.499
s14 -26.833 14 -49.5c0 -16 -5.33301 -40.333 -16 -73c-7.33301 -22 -17.166 -47.667 -29.499 -77s-23.166 -49.5 -32.499 -60.5s-20.666 -16.5 -33.999 -16.5c-36.667 0 -57.667 14 -63 42c-1.33301 8.66699 3.66699 33 15 73c7.33301 24.667 11.666 40.667 12.999 48
c-24.667 0 -53.167 -0.166992 -85.5 -0.5s-68.5 -0.833008 -108.5 -1.5c-28.667 0 -53.834 -0.333008 -75.501 -1l-62.5 -2c-32 0 -54.5 3.33301 -67.5 10s-19.5 20.667 -19.5 42c0 20 14.667 76.333 44 169l51 158l66 214c26.667 69.333 58 104 94 104
c10 0 20.333 -5.33301 31 -16s16 -22.334 16 -35.001c0 -24.667 -16.667 -88.334 -50 -191.001l-51 -155l-37 -121c-8 -23.333 -14 -37 -18 -41c6.66699 -0.666992 14.5 -1.16699 23.5 -1.5s18.5 -0.5 28.5 -0.5c20 0 43.5 0.333008 70.5 1s55.833 1.66699 86.5 3l43 124
c20 56.667 32.667 93.667 38 111c12 36.667 24 77.334 36 122.001z" />
    <glyph glyph-name="Odieresis" unicode="&#x426;" horiz-adv-x="654" 
d="M493 494c13.333 49.333 23.666 84.333 30.999 105c25.333 68 57.333 102 96 102c15.333 0 26.333 -5.5 33 -16.5s10 -28.5 10 -52.5c0 -20 -11.667 -63.5 -35 -130.5l-70 -199.5c-27.333 -78.667 -43.333 -134 -48 -166c32.667 -3.33301 53.667 -10.166 63 -20.499
s14 -26.833 14 -49.5c0 -16 -5.33301 -40.333 -16 -73c-7.33301 -22 -17.166 -47.667 -29.499 -77s-23.166 -49.5 -32.499 -60.5s-20.666 -16.5 -33.999 -16.5c-36.667 0 -57.667 14 -63 42c-1.33301 8.66699 3.66699 33 15 73c7.33301 24.667 11.666 40.667 12.999 48
c-24.667 0 -53.167 -0.166992 -85.5 -0.5s-68.5 -0.833008 -108.5 -1.5c-28.667 0 -53.834 -0.333008 -75.501 -1l-62.5 -2c-32 0 -54.5 3.33301 -67.5 10s-19.5 20.667 -19.5 42c0 20 14.667 76.333 44 169l51 158l66 214c26.667 69.333 58 104 94 104
c10 0 20.333 -5.33301 31 -16s16 -22.334 16 -35.001c0 -24.667 -16.667 -88.334 -50 -191.001l-51 -155l-37 -121c-8 -23.333 -14 -37 -18 -41c6.66699 -0.666992 14.5 -1.16699 23.5 -1.5s18.5 -0.5 28.5 -0.5c20 0 43.5 0.333008 70.5 1s55.833 1.66699 86.5 3l43 124
c20 56.667 32.667 93.667 38 111c12 36.667 24 77.334 36 122.001z" />
    <glyph glyph-name="multiply" unicode="&#xd7;" horiz-adv-x="483" 
d="M572 625l-92.4971 -277.001c-30.333 -90.667 -45.5 -149.667 -45.5 -177c0 -8 3.16699 -17.333 9.5 -28s9.5 -19.334 9.5 -26.001c0 -27.333 -8 -51 -24 -71c-21.333 -26 -53.333 -39 -96 -39c-16.667 0 -31.167 5.5 -43.5 16.5s-18.5 23.833 -18.5 38.5c0 22 7 55 21 99
c11.333 36.667 28.666 84 51.999 142c-37.333 -24.667 -67.333 -41.5 -90 -50.5s-51.334 -13.5 -86.001 -13.5c-30.667 0 -55.334 7 -74.001 21c-21.333 16 -32 38 -32 66c0 34 5 76.333 15 127s23 96.334 39 137.001c10.667 27.333 25.167 48.333 43.5 63
s36.166 22 53.499 22c8.66699 0 16.834 -7.5 24.501 -22.5s10.5 -28.833 8.5 -41.5c-16.667 -52.667 -30.167 -97 -40.5 -133s-15.5 -62 -15.5 -78c0 -16.667 3.33301 -29.334 10 -38.001s18.667 -13 36 -13c18 0 45 10.333 81 31c12.667 7.33301 33.334 20.333 62.001 39
l55 145c16.667 38.667 32.167 64.834 46.5 78.501s35.166 20.5 62.499 20.5c12 0 20.333 -4.33301 25 -13c2.66699 -5.33301 4 -13.666 4 -24.999z" />
    <glyph glyph-name="multiply" unicode="&#x427;" horiz-adv-x="483" 
d="M572 625l-92.4971 -277.001c-30.333 -90.667 -45.5 -149.667 -45.5 -177c0 -8 3.16699 -17.333 9.5 -28s9.5 -19.334 9.5 -26.001c0 -27.333 -8 -51 -24 -71c-21.333 -26 -53.333 -39 -96 -39c-16.667 0 -31.167 5.5 -43.5 16.5s-18.5 23.833 -18.5 38.5c0 22 7 55 21 99
c11.333 36.667 28.666 84 51.999 142c-37.333 -24.667 -67.333 -41.5 -90 -50.5s-51.334 -13.5 -86.001 -13.5c-30.667 0 -55.334 7 -74.001 21c-21.333 16 -32 38 -32 66c0 34 5 76.333 15 127s23 96.334 39 137.001c10.667 27.333 25.167 48.333 43.5 63
s36.166 22 53.499 22c8.66699 0 16.834 -7.5 24.501 -22.5s10.5 -28.833 8.5 -41.5c-16.667 -52.667 -30.167 -97 -40.5 -133s-15.5 -62 -15.5 -78c0 -16.667 3.33301 -29.334 10 -38.001s18.667 -13 36 -13c18 0 45 10.333 81 31c12.667 7.33301 33.334 20.333 62.001 39
l55 145c16.667 38.667 32.167 64.834 46.5 78.501s35.166 20.5 62.499 20.5c12 0 20.333 -4.33301 25 -13c2.66699 -5.33301 4 -13.666 4 -24.999z" />
    <glyph glyph-name="Oslash" unicode="&#xd8;" horiz-adv-x="924" 
d="M500 101l188.001 -0.00292969l65.5 197.5c18.333 57.667 36.666 120.5 54.999 188.5s29.166 105.333 32.499 112c14.667 32 38 48 70 48c15.333 0 26.5 -5.66699 33.5 -17s10.5 -28.666 10.5 -51.999c-2 -22 -18.667 -90 -50 -204
c-28 -102.667 -52.333 -186.667 -73 -252l-26 -85c-15.333 -29.333 -42.333 -44 -81 -44h-259c-68 0 -129.167 -3.66699 -183.5 -11s-107.833 -15.333 -160.5 -24c-30.667 0 -54.167 3.33301 -70.5 10s-24.5 19 -24.5 37c0 19.333 14.667 75.333 44 168l51 158l66 214
c26.667 69.333 58 104 94 104c9.33301 0 19.5 -5.16699 30.5 -15.5s16.5 -21.833 16.5 -34.5c0 -25.333 -16.667 -89 -50 -191l-51 -155l-34 -102c-13.333 -37.333 -22.666 -60.666 -27.999 -69.999c32.667 4 66 8.33301 100 13s66 7 96 7c54.667 146 83 222 85 228
c14.667 44 28.667 90.333 42 139c20.667 74 40.167 122.333 58.5 145s40.5 34 66.5 34c15.333 0 26.5 -5.66699 33.5 -17s10.5 -28.666 10.5 -51.999c0 -11.333 -12 -49.333 -36 -114l-72 -194c-28 -80 -44.667 -136.333 -50 -169z" />
    <glyph glyph-name="Oslash" unicode="&#x428;" horiz-adv-x="924" 
d="M500 101l188.001 -0.00292969l65.5 197.5c18.333 57.667 36.666 120.5 54.999 188.5s29.166 105.333 32.499 112c14.667 32 38 48 70 48c15.333 0 26.5 -5.66699 33.5 -17s10.5 -28.666 10.5 -51.999c-2 -22 -18.667 -90 -50 -204
c-28 -102.667 -52.333 -186.667 -73 -252l-26 -85c-15.333 -29.333 -42.333 -44 -81 -44h-259c-68 0 -129.167 -3.66699 -183.5 -11s-107.833 -15.333 -160.5 -24c-30.667 0 -54.167 3.33301 -70.5 10s-24.5 19 -24.5 37c0 19.333 14.667 75.333 44 168l51 158l66 214
c26.667 69.333 58 104 94 104c9.33301 0 19.5 -5.16699 30.5 -15.5s16.5 -21.833 16.5 -34.5c0 -25.333 -16.667 -89 -50 -191l-51 -155l-34 -102c-13.333 -37.333 -22.666 -60.666 -27.999 -69.999c32.667 4 66 8.33301 100 13s66 7 96 7c54.667 146 83 222 85 228
c14.667 44 28.667 90.333 42 139c20.667 74 40.167 122.333 58.5 145s40.5 34 66.5 34c15.333 0 26.5 -5.66699 33.5 -17s10.5 -28.666 10.5 -51.999c0 -11.333 -12 -49.333 -36 -114l-72 -194c-28 -80 -44.667 -136.333 -50 -169z" />
    <glyph glyph-name="Ugrave" unicode="&#xd9;" horiz-adv-x="883" 
d="M462 112l197.999 0.000976562l40 131l36 123l36 128c19.333 71.333 30.666 110.333 33.999 117c14.667 32 38 48 70 48c15.333 0 26.5 -5.66699 33.5 -17s10.5 -28.666 10.5 -51.999c-1.33301 -12.667 -11.166 -51.334 -29.499 -116.001l-54.5 -194
c-21.333 -76.667 -35.333 -132.667 -42 -168c26 0 44.333 -3 55 -9c16.667 -9.33301 25 -29 25 -59c0 -19.333 -7.66699 -50.333 -23 -93c-5.33301 -14 -13.333 -33.667 -24 -59c-21.333 -50 -43 -75 -65 -75c-37.333 0 -58.666 14.333 -63.999 43
c-1.33301 8.66699 2 27 10 55c6 22 12.333 44 19 66c-30.667 3.33301 -69.5 6.16602 -116.5 8.49902s-95.833 3.5 -146.5 3.5c-56 0 -119.167 -2.83301 -189.5 -8.5s-138.833 -11.5 -205.5 -17.5c-26.667 0 -44.667 2 -54 6c-15.333 6.66699 -23 21 -23 43c0 12 6 39 18 81
c6 22 31.667 104 77 246l66 214c26.667 69.333 58 104 94 104c9.33301 0 19.5 -5.16699 30.5 -15.5s16.5 -21.833 16.5 -34.5c0 -25.333 -16.667 -89 -50 -191l-51 -156c-10.667 -34.667 -21.667 -67 -33 -97l-27 -70c4.66699 0 40.667 3.33301 108 10
c34 3.33301 62.333 5 85 5l128 368c20.667 74 40.167 122.333 58.5 145s40.5 34 66.5 34c15.333 0 26.333 -5.5 33 -16.5s10 -28.5 10 -52.5c0 -10.667 -10.833 -48 -32.5 -112l-70.5 -202c-32 -89.333 -51 -144 -57 -164z" />
    <glyph glyph-name="Ugrave" unicode="&#x429;" horiz-adv-x="883" 
d="M462 112l197.999 0.000976562l40 131l36 123l36 128c19.333 71.333 30.666 110.333 33.999 117c14.667 32 38 48 70 48c15.333 0 26.5 -5.66699 33.5 -17s10.5 -28.666 10.5 -51.999c-1.33301 -12.667 -11.166 -51.334 -29.499 -116.001l-54.5 -194
c-21.333 -76.667 -35.333 -132.667 -42 -168c26 0 44.333 -3 55 -9c16.667 -9.33301 25 -29 25 -59c0 -19.333 -7.66699 -50.333 -23 -93c-5.33301 -14 -13.333 -33.667 -24 -59c-21.333 -50 -43 -75 -65 -75c-37.333 0 -58.666 14.333 -63.999 43
c-1.33301 8.66699 2 27 10 55c6 22 12.333 44 19 66c-30.667 3.33301 -69.5 6.16602 -116.5 8.49902s-95.833 3.5 -146.5 3.5c-56 0 -119.167 -2.83301 -189.5 -8.5s-138.833 -11.5 -205.5 -17.5c-26.667 0 -44.667 2 -54 6c-15.333 6.66699 -23 21 -23 43c0 12 6 39 18 81
c6 22 31.667 104 77 246l66 214c26.667 69.333 58 104 94 104c9.33301 0 19.5 -5.16699 30.5 -15.5s16.5 -21.833 16.5 -34.5c0 -25.333 -16.667 -89 -50 -191l-51 -156c-10.667 -34.667 -21.667 -67 -33 -97l-27 -70c4.66699 0 40.667 3.33301 108 10
c34 3.33301 62.333 5 85 5l128 368c20.667 74 40.167 122.333 58.5 145s40.5 34 66.5 34c15.333 0 26.333 -5.5 33 -16.5s10 -28.5 10 -52.5c0 -10.667 -10.833 -48 -32.5 -112l-70.5 -202c-32 -89.333 -51 -144 -57 -164z" />
    <glyph glyph-name="Uacute" unicode="&#xda;" horiz-adv-x="559" 
d="M452 197c0 4.66699 0.330078 9.83203 0.99707 15.499s1 9.83398 1 12.501c0 29.333 -6.66699 52.333 -20 69s-32.333 25 -57 25c-7.33301 0 -14 -0.333008 -20 -1s-12.167 -1.16699 -18.5 -1.5s-11.833 -0.5 -16.5 -0.5c-7.33301 0 -19.666 0.333008 -36.999 1
s-30.666 1 -39.999 1c-10 -62 -24.667 -113.333 -44 -154c-7.33301 -16.667 -11.666 -26 -12.999 -28c-6 -8 -16.667 -16 -32 -24c17.333 -9.33301 33.833 -15.5 49.5 -18.5s39.5 -4.5 71.5 -4.5c54 0 97.333 12.667 130 38c26 20.667 41 44 45 70zM434.997 434.998
c36.667 0 69.667 -15.667 99 -47s44 -69.333 44 -114c0 -90 -36 -165 -108 -225c-68.667 -57.333 -151.334 -86 -248.001 -86c-54.667 0 -104 11.5 -148 34.5s-66 50.5 -66 82.5c0 9.33301 5.5 18.833 16.5 28.5s21.833 14.5 32.5 14.5c-3.33301 6 -5 14 -5 24
c0 20 8 48 24 84l42 90c17.333 40 34 80.333 50 121l39 99c-30.667 0 -53.667 3 -69 9c-20.667 8 -29.334 21.333 -26.001 40c4.66699 26 20.334 48 47.001 66c36.667 24.667 88.334 37 155.001 37c24.667 0 40.167 -1.66699 46.5 -5s9.5 -10.333 9.5 -21
c-0.666992 -7.33301 -1 -13.333 -1 -18c0 -18 -16.667 -65 -50 -141l-37 -80c25.333 0 54 1.16699 86 3.5s54.333 3.5 67 3.5z" />
    <glyph glyph-name="Uacute" unicode="&#x42a;" horiz-adv-x="559" 
d="M452 197c0 4.66699 0.330078 9.83203 0.99707 15.499s1 9.83398 1 12.501c0 29.333 -6.66699 52.333 -20 69s-32.333 25 -57 25c-7.33301 0 -14 -0.333008 -20 -1s-12.167 -1.16699 -18.5 -1.5s-11.833 -0.5 -16.5 -0.5c-7.33301 0 -19.666 0.333008 -36.999 1
s-30.666 1 -39.999 1c-10 -62 -24.667 -113.333 -44 -154c-7.33301 -16.667 -11.666 -26 -12.999 -28c-6 -8 -16.667 -16 -32 -24c17.333 -9.33301 33.833 -15.5 49.5 -18.5s39.5 -4.5 71.5 -4.5c54 0 97.333 12.667 130 38c26 20.667 41 44 45 70zM434.997 434.998
c36.667 0 69.667 -15.667 99 -47s44 -69.333 44 -114c0 -90 -36 -165 -108 -225c-68.667 -57.333 -151.334 -86 -248.001 -86c-54.667 0 -104 11.5 -148 34.5s-66 50.5 -66 82.5c0 9.33301 5.5 18.833 16.5 28.5s21.833 14.5 32.5 14.5c-3.33301 6 -5 14 -5 24
c0 20 8 48 24 84l42 90c17.333 40 34 80.333 50 121l39 99c-30.667 0 -53.667 3 -69 9c-20.667 8 -29.334 21.333 -26.001 40c4.66699 26 20.334 48 47.001 66c36.667 24.667 88.334 37 155.001 37c24.667 0 40.167 -1.66699 46.5 -5s9.5 -10.333 9.5 -21
c-0.666992 -7.33301 -1 -13.333 -1 -18c0 -18 -16.667 -65 -50 -141l-37 -80c25.333 0 54 1.16699 86 3.5s54.333 3.5 67 3.5z" />
    <glyph glyph-name="Ucircumflex" unicode="&#xdb;" horiz-adv-x="750" 
d="M425 197c0 4.66699 0.331055 9.83203 0.998047 15.499s1 9.83398 1 12.501c0 29.333 -6.66699 52.333 -20 69s-32.333 25 -57 25c-7.33301 0 -14 -0.333008 -20 -1s-12.167 -1.16699 -18.5 -1.5s-11.5 -0.5 -15.5 -0.5c-8 0 -20.667 0.333008 -38 1s-30.666 1 -39.999 1
c-10 -62 -24.667 -113.333 -44 -154c-7.33301 -16.667 -11.666 -26 -12.999 -28c-6 -8 -16.667 -16 -32 -24c17.333 -9.33301 33.833 -15.5 49.5 -18.5s39.5 -4.5 71.5 -4.5c54 0 97.333 12.667 130 38c26 20.667 41 44 45 70zM407.998 434.998
c36.667 0 69.667 -15.667 99 -47s44 -69.333 44 -114c0 -90.667 -35.667 -165.667 -107 -225c-68.667 -57.333 -151.667 -86 -249 -86c-54.667 0 -104 11.5 -148 34.5s-66 50.5 -66 82.5c0 9.33301 5.5 18.833 16.5 28.5s21.833 14.5 32.5 14.5c-3.33301 6 -5 14 -5 24
c0 20 8 48 24 84l42 90l95 237c39.333 90 73 135 101 135c14.667 0 27.5 -3.66699 38.5 -11s16.5 -18.333 16.5 -33c0 -18 -16.667 -65 -50 -141l-37 -80c25.333 0 54 1.16699 86 3.5s54.333 3.5 67 3.5zM857.998 631.998c0 -10 -8.66797 -39.335 -26.001 -88.002
c-35.333 -98.667 -53.666 -150 -54.999 -154c-22.667 -67.333 -38 -122.333 -46 -165c-1.33301 -6.66699 -2.33301 -17.667 -3 -33s-1 -27.666 -1 -36.999v-47c0 -24 -10.833 -46.5 -32.5 -67.5s-45.167 -34.5 -70.5 -40.5c-16.667 -4 -31 3.5 -43 22.5s-18 39.5 -18 61.5
c0 26.667 10.167 76.167 30.5 148.5s44.5 139.833 72.5 202.5l70 162c28 57.333 52 86 72 86c17.333 0 30 -4.66699 38 -14s12 -21.666 12 -36.999z" />
    <glyph glyph-name="Ucircumflex" unicode="&#x42b;" horiz-adv-x="750" 
d="M425 197c0 4.66699 0.331055 9.83203 0.998047 15.499s1 9.83398 1 12.501c0 29.333 -6.66699 52.333 -20 69s-32.333 25 -57 25c-7.33301 0 -14 -0.333008 -20 -1s-12.167 -1.16699 -18.5 -1.5s-11.5 -0.5 -15.5 -0.5c-8 0 -20.667 0.333008 -38 1s-30.666 1 -39.999 1
c-10 -62 -24.667 -113.333 -44 -154c-7.33301 -16.667 -11.666 -26 -12.999 -28c-6 -8 -16.667 -16 -32 -24c17.333 -9.33301 33.833 -15.5 49.5 -18.5s39.5 -4.5 71.5 -4.5c54 0 97.333 12.667 130 38c26 20.667 41 44 45 70zM407.998 434.998
c36.667 0 69.667 -15.667 99 -47s44 -69.333 44 -114c0 -90.667 -35.667 -165.667 -107 -225c-68.667 -57.333 -151.667 -86 -249 -86c-54.667 0 -104 11.5 -148 34.5s-66 50.5 -66 82.5c0 9.33301 5.5 18.833 16.5 28.5s21.833 14.5 32.5 14.5c-3.33301 6 -5 14 -5 24
c0 20 8 48 24 84l42 90l95 237c39.333 90 73 135 101 135c14.667 0 27.5 -3.66699 38.5 -11s16.5 -18.333 16.5 -33c0 -18 -16.667 -65 -50 -141l-37 -80c25.333 0 54 1.16699 86 3.5s54.333 3.5 67 3.5zM857.998 631.998c0 -10 -8.66797 -39.335 -26.001 -88.002
c-35.333 -98.667 -53.666 -150 -54.999 -154c-22.667 -67.333 -38 -122.333 -46 -165c-1.33301 -6.66699 -2.33301 -17.667 -3 -33s-1 -27.666 -1 -36.999v-47c0 -24 -10.833 -46.5 -32.5 -67.5s-45.167 -34.5 -70.5 -40.5c-16.667 -4 -31 3.5 -43 22.5s-18 39.5 -18 61.5
c0 26.667 10.167 76.167 30.5 148.5s44.5 139.833 72.5 202.5l70 162c28 57.333 52 86 72 86c17.333 0 30 -4.66699 38 -14s12 -21.666 12 -36.999z" />
    <glyph glyph-name="Udieresis" unicode="&#xdc;" horiz-adv-x="538" 
d="M432 197c0 4.66699 0.331055 9.83203 0.998047 15.499s1 9.83398 1 12.501c0 29.333 -6.66699 52.333 -20 69s-32.333 25 -57 25c-7.33301 0 -14 -0.333008 -20 -1s-12.167 -1.16699 -18.5 -1.5s-11.5 -0.5 -15.5 -0.5c-8 0 -20.667 0.333008 -38 1s-30.666 1 -39.999 1
c-10 -62 -24.667 -113.333 -44 -154c-7.33301 -16.667 -11.666 -26 -12.999 -28c-6 -8 -16.667 -16 -32 -24c17.333 -9.33301 33.833 -15.5 49.5 -18.5s39.5 -4.5 71.5 -4.5c54 0 97.333 12.667 130 38c26 20.667 41 44 45 70zM414.998 434.998
c36.667 0 69.667 -15.667 99 -47s44 -69.333 44 -114c0 -90.667 -35.667 -165.667 -107 -225c-68.667 -57.333 -151.667 -86 -249 -86c-54.667 0 -104 11.5 -148 34.5s-66 50.5 -66 82.5c0 9.33301 5.5 18.833 16.5 28.5s21.833 14.5 32.5 14.5c-3.33301 6 -5 14 -5 24
c0 20 8 48 24 84l42 90l95 237c39.333 90 73 135 101 135c14.667 0 27.5 -3.66699 38.5 -11s16.5 -18.333 16.5 -33c0 -18 -16.667 -65 -50 -141l-37 -80c25.333 0 54 1.16699 86 3.5s54.333 3.5 67 3.5z" />
    <glyph glyph-name="Udieresis" unicode="&#x42c;" horiz-adv-x="538" 
d="M432 197c0 4.66699 0.331055 9.83203 0.998047 15.499s1 9.83398 1 12.501c0 29.333 -6.66699 52.333 -20 69s-32.333 25 -57 25c-7.33301 0 -14 -0.333008 -20 -1s-12.167 -1.16699 -18.5 -1.5s-11.5 -0.5 -15.5 -0.5c-8 0 -20.667 0.333008 -38 1s-30.666 1 -39.999 1
c-10 -62 -24.667 -113.333 -44 -154c-7.33301 -16.667 -11.666 -26 -12.999 -28c-6 -8 -16.667 -16 -32 -24c17.333 -9.33301 33.833 -15.5 49.5 -18.5s39.5 -4.5 71.5 -4.5c54 0 97.333 12.667 130 38c26 20.667 41 44 45 70zM414.998 434.998
c36.667 0 69.667 -15.667 99 -47s44 -69.333 44 -114c0 -90.667 -35.667 -165.667 -107 -225c-68.667 -57.333 -151.667 -86 -249 -86c-54.667 0 -104 11.5 -148 34.5s-66 50.5 -66 82.5c0 9.33301 5.5 18.833 16.5 28.5s21.833 14.5 32.5 14.5c-3.33301 6 -5 14 -5 24
c0 20 8 48 24 84l42 90l95 237c39.333 90 73 135 101 135c14.667 0 27.5 -3.66699 38.5 -11s16.5 -18.333 16.5 -33c0 -18 -16.667 -65 -50 -141l-37 -80c25.333 0 54 1.16699 86 3.5s54.333 3.5 67 3.5z" />
    <glyph glyph-name="Yacute" unicode="&#xdd;" horiz-adv-x="507" 
d="M150 -4c-59.333 0 -104.5 7.33203 -135.5 21.999s-46.5 31.334 -46.5 50.001c0 16 10.833 37.833 32.5 65.5s39.167 41.5 52.5 41.5c7.33301 0 31 -9.33301 71 -28c20 -9.33301 36.333 -14 49 -14c51.333 0 105.333 28 162 84c65.333 64.667 98 139.667 98 225
c0 38 -3 65.333 -9 82c-10 28 -29.333 42 -58 42c-12.667 0 -28.167 -5.5 -46.5 -16.5s-42.5 -31.5 -72.5 -61.5c-11.333 -11.333 -20.666 -20 -27.999 -26c-16 -13.333 -30 -20 -42 -20c-10.667 0 -24.334 7.66699 -41.001 23c-19.333 18 -30 37.667 -32 59
c0 28.667 40 67.667 120 117s136 74 168 74c53.333 0 93.333 -13.333 120 -40c31.333 -31.333 47 -88 47 -170c0 -88.667 -20 -172.334 -60 -251.001c-30 -59.333 -71 -114.666 -123 -165.999c-36 -35.333 -70.667 -59.5 -104 -72.5s-74 -19.5 -122 -19.5zM402 343.999
c0 -20 -6.16504 -35.5 -18.498 -46.5s-27.5 -16.5 -45.5 -16.5c-10 0 -25.333 0.666992 -46 2s-34.667 2 -42 2c-24 0 -45.333 -2.66699 -64 -8c-6 -1.33301 -13 -4 -21 -8c-18.667 0 -34.334 3.5 -47.001 10.5s-19 17.5 -19 31.5c0 33.333 24.667 59.333 74 78
c39.333 14.667 85 22 137 22c31.333 0 52.666 -3 63.999 -9c18.667 -10 28 -29.333 28 -58z" />
    <glyph glyph-name="Yacute" unicode="&#x42d;" horiz-adv-x="507" 
d="M150 -4c-59.333 0 -104.5 7.33203 -135.5 21.999s-46.5 31.334 -46.5 50.001c0 16 10.833 37.833 32.5 65.5s39.167 41.5 52.5 41.5c7.33301 0 31 -9.33301 71 -28c20 -9.33301 36.333 -14 49 -14c51.333 0 105.333 28 162 84c65.333 64.667 98 139.667 98 225
c0 38 -3 65.333 -9 82c-10 28 -29.333 42 -58 42c-12.667 0 -28.167 -5.5 -46.5 -16.5s-42.5 -31.5 -72.5 -61.5c-11.333 -11.333 -20.666 -20 -27.999 -26c-16 -13.333 -30 -20 -42 -20c-10.667 0 -24.334 7.66699 -41.001 23c-19.333 18 -30 37.667 -32 59
c0 28.667 40 67.667 120 117s136 74 168 74c53.333 0 93.333 -13.333 120 -40c31.333 -31.333 47 -88 47 -170c0 -88.667 -20 -172.334 -60 -251.001c-30 -59.333 -71 -114.666 -123 -165.999c-36 -35.333 -70.667 -59.5 -104 -72.5s-74 -19.5 -122 -19.5zM402 343.999
c0 -20 -6.16504 -35.5 -18.498 -46.5s-27.5 -16.5 -45.5 -16.5c-10 0 -25.333 0.666992 -46 2s-34.667 2 -42 2c-24 0 -45.333 -2.66699 -64 -8c-6 -1.33301 -13 -4 -21 -8c-18.667 0 -34.334 3.5 -47.001 10.5s-19 17.5 -19 31.5c0 33.333 24.667 59.333 74 78
c39.333 14.667 85 22 137 22c31.333 0 52.666 -3 63.999 -9c18.667 -10 28 -29.333 28 -58z" />
    <glyph glyph-name="Thorn" unicode="&#xde;" horiz-adv-x="820" 
d="M764 459c0 22 -9.5 39.5 -28.5 52.5s-46.167 19.5 -81.5 19.5c-64.667 0 -117 -52 -157 -156c-29.333 -76 -44 -140 -44 -192c0 -22.667 6 -41.667 18 -57s27 -23 45 -23c70 0 130.333 42 181 126c44.667 74 67 150.667 67 230zM215 264
c-10.667 -26.667 -18.333 -45.3301 -23 -55.9971c-8 -18.667 -14.667 -31 -20 -37c11.333 -17.333 17.666 -28 18.999 -32c4.66699 -10.667 7 -23 7 -37c0 -19.333 -9.66699 -41 -29 -65c-24.667 -30.667 -55 -46 -91 -46c-18 0 -34.167 6.16699 -48.5 18.5
s-21.5 26.833 -21.5 43.5c0 13.333 13.667 50.666 41 111.999c23.333 52 38.333 86.667 45 104c0 5.33301 -2 11.666 -6 18.999c-9.33301 16.667 -14 28 -14 34c0 14 6.66699 28 20 42c11.333 11.333 21.333 24.666 30 39.999c15.333 68.667 35.333 129.667 60 183
c27.333 58.667 52.333 88 75 88c8.66699 0 18.5 -5.83301 29.5 -17.5s16.5 -22.5 16.5 -32.5l-13 -48c-24 -84.667 -38.333 -136.667 -43 -156l84 18.5c28 6.33301 55 13.833 81 22.5c45.333 79.333 93.333 135.333 144 168c35.333 22.667 74 34 116 34
c11.333 0 21.5 -0.5 30.5 -1.5l30.5 -3.5c4 14 6.66699 22.333 8 25c6 9.33301 16.667 14 32 14c19.333 0 44.5 -20.167 75.5 -60.5s46.5 -72.5 46.5 -96.5c0 -114 -26.333 -217.667 -79 -311c-45.333 -80.667 -104.666 -145.334 -177.999 -194.001
c-66 -44 -128 -66 -186 -66c-32.667 0 -60.334 14 -83.001 42s-34 61 -34 99c0 44.667 0.833008 82 2.5 112s5.83398 59.667 12.501 89c-17.333 -5.33301 -36.333 -11.666 -57 -18.999z" />
    <glyph glyph-name="Thorn" unicode="&#x42e;" horiz-adv-x="820" 
d="M764 459c0 22 -9.5 39.5 -28.5 52.5s-46.167 19.5 -81.5 19.5c-64.667 0 -117 -52 -157 -156c-29.333 -76 -44 -140 -44 -192c0 -22.667 6 -41.667 18 -57s27 -23 45 -23c70 0 130.333 42 181 126c44.667 74 67 150.667 67 230zM215 264
c-10.667 -26.667 -18.333 -45.3301 -23 -55.9971c-8 -18.667 -14.667 -31 -20 -37c11.333 -17.333 17.666 -28 18.999 -32c4.66699 -10.667 7 -23 7 -37c0 -19.333 -9.66699 -41 -29 -65c-24.667 -30.667 -55 -46 -91 -46c-18 0 -34.167 6.16699 -48.5 18.5
s-21.5 26.833 -21.5 43.5c0 13.333 13.667 50.666 41 111.999c23.333 52 38.333 86.667 45 104c0 5.33301 -2 11.666 -6 18.999c-9.33301 16.667 -14 28 -14 34c0 14 6.66699 28 20 42c11.333 11.333 21.333 24.666 30 39.999c15.333 68.667 35.333 129.667 60 183
c27.333 58.667 52.333 88 75 88c8.66699 0 18.5 -5.83301 29.5 -17.5s16.5 -22.5 16.5 -32.5l-13 -48c-24 -84.667 -38.333 -136.667 -43 -156l84 18.5c28 6.33301 55 13.833 81 22.5c45.333 79.333 93.333 135.333 144 168c35.333 22.667 74 34 116 34
c11.333 0 21.5 -0.5 30.5 -1.5l30.5 -3.5c4 14 6.66699 22.333 8 25c6 9.33301 16.667 14 32 14c19.333 0 44.5 -20.167 75.5 -60.5s46.5 -72.5 46.5 -96.5c0 -114 -26.333 -217.667 -79 -311c-45.333 -80.667 -104.666 -145.334 -177.999 -194.001
c-66 -44 -128 -66 -186 -66c-32.667 0 -60.334 14 -83.001 42s-34 61 -34 99c0 44.667 0.833008 82 2.5 112s5.83398 59.667 12.501 89c-17.333 -5.33301 -36.333 -11.666 -57 -18.999z" />
    <glyph glyph-name="germandbls" unicode="&#xdf;" horiz-adv-x="559" 
d="M232 488c-1.33301 -12 -2 -20 -2 -24c0 -29.333 9.33301 -50 28 -62c16 -10 40 -15 72 -15h113l67 157c-27.333 15.333 -68 23 -122 23c-54.667 0 -94.667 -8 -120 -24c-20.667 -12.667 -32.667 -31 -36 -55zM105 411c0 89.333 33.002 159.666 99.002 210.999
c61.333 48 141 72 239 72c55.333 0 105 -11.5 149 -34.5s66 -50.5 66 -82.5c0 -10 -5.33301 -19.667 -16 -29s-22 -14 -34 -14c2 -6 3 -11.667 3 -17c0 -13.333 -6 -33 -18 -59l-24 -51c-18 -41.333 -35 -83 -51 -125c-20.667 -54 -34.334 -97.667 -41.001 -131
c-1.33301 -8 -2 -13.333 -2 -16c0 -8 6 -21.333 18 -40c6 -9.33301 9 -21.333 9 -36c0 -19.333 -17 -36.333 -51 -51c-30 -12.667 -57.333 -19 -82 -19c-19.333 0 -33.166 6.66699 -41.499 20s-12.5 29 -12.5 47c0 14 13 49.667 39 107l54 114h-78
c-26 -40.667 -55.667 -80.667 -89 -120c-38.667 -45.333 -75.334 -80.666 -110.001 -105.999l-50 -34c-20.667 -12.667 -43 -19 -67 -19c-16.667 0 -30.334 11.333 -41.001 34s-16 46.334 -16 71.001c0 14.667 8.66699 26 26 34l51 19c34.667 16 65 33.667 91 53
c31.333 23.333 57 48.666 77 75.999c-26 6 -48 19.333 -66 40c-20.667 24 -31 52.667 -31 86z" />
    <glyph glyph-name="germandbls" unicode="&#x42f;" horiz-adv-x="559" 
d="M232 488c-1.33301 -12 -2 -20 -2 -24c0 -29.333 9.33301 -50 28 -62c16 -10 40 -15 72 -15h113l67 157c-27.333 15.333 -68 23 -122 23c-54.667 0 -94.667 -8 -120 -24c-20.667 -12.667 -32.667 -31 -36 -55zM105 411c0 89.333 33.002 159.666 99.002 210.999
c61.333 48 141 72 239 72c55.333 0 105 -11.5 149 -34.5s66 -50.5 66 -82.5c0 -10 -5.33301 -19.667 -16 -29s-22 -14 -34 -14c2 -6 3 -11.667 3 -17c0 -13.333 -6 -33 -18 -59l-24 -51c-18 -41.333 -35 -83 -51 -125c-20.667 -54 -34.334 -97.667 -41.001 -131
c-1.33301 -8 -2 -13.333 -2 -16c0 -8 6 -21.333 18 -40c6 -9.33301 9 -21.333 9 -36c0 -19.333 -17 -36.333 -51 -51c-30 -12.667 -57.333 -19 -82 -19c-19.333 0 -33.166 6.66699 -41.499 20s-12.5 29 -12.5 47c0 14 13 49.667 39 107l54 114h-78
c-26 -40.667 -55.667 -80.667 -89 -120c-38.667 -45.333 -75.334 -80.666 -110.001 -105.999l-50 -34c-20.667 -12.667 -43 -19 -67 -19c-16.667 0 -30.334 11.333 -41.001 34s-16 46.334 -16 71.001c0 14.667 8.66699 26 26 34l51 19c34.667 16 65 33.667 91 53
c31.333 23.333 57 48.666 77 75.999c-26 6 -48 19.333 -66 40c-20.667 24 -31 52.667 -31 86z" />
    <glyph glyph-name="agrave" unicode="&#xe0;" horiz-adv-x="607" 
d="M606 88l-128.001 -64.999c-46 -23.333 -75 -35 -87 -35c-20 0 -36.667 6 -50 18s-20 26 -20 42c0 20.667 2.33301 44.334 7 71.001s8 46.334 10 59.001l-113 -106c-53.333 -44.667 -97 -67 -131 -67c-25.333 0 -47.5 8.83301 -66.5 26.5s-28.5 36.5 -28.5 56.5
c0 27.333 19 74.666 57 141.999c40.667 72 85 133.333 133 184c57.333 60.667 107 91 149 91c14 0 28 -4 42 -12c19.333 -11.333 29 -26 29 -44l26 37c11.333 12.667 23 19 35 19c15.333 0 28.166 -1.83301 38.499 -5.5s15.5 -12.5 15.5 -26.5c0 -22.667 -6 -55.667 -18 -99
l-36 -128c-3.33301 -12.667 -7 -29.834 -11 -51.501s-6 -37.834 -6 -48.501c0 -12 2.33301 -18 7 -18c8 0 36.333 9.83301 85 29.5s76.334 29.5 83.001 29.5c14.667 0 24.834 -2.83301 30.501 -8.5s8.5 -14.5 8.5 -26.5c0 -9.33301 -6.66699 -20.5 -20 -33.5
s-27 -23.167 -41 -30.5zM320.999 392.001c-27.333 0 -65.833 -35.833 -115.5 -107.5s-74.5 -123.834 -74.5 -156.501c56 38.667 103 77.334 141 116.001c44 44.667 66 79.667 66 105c1.33301 10 2 17.667 2 23c0 13.333 -6.33301 20 -19 20z" />
    <glyph glyph-name="agrave" unicode="&#x430;" horiz-adv-x="607" 
d="M606 88l-128.001 -64.999c-46 -23.333 -75 -35 -87 -35c-20 0 -36.667 6 -50 18s-20 26 -20 42c0 20.667 2.33301 44.334 7 71.001s8 46.334 10 59.001l-113 -106c-53.333 -44.667 -97 -67 -131 -67c-25.333 0 -47.5 8.83301 -66.5 26.5s-28.5 36.5 -28.5 56.5
c0 27.333 19 74.666 57 141.999c40.667 72 85 133.333 133 184c57.333 60.667 107 91 149 91c14 0 28 -4 42 -12c19.333 -11.333 29 -26 29 -44l26 37c11.333 12.667 23 19 35 19c15.333 0 28.166 -1.83301 38.499 -5.5s15.5 -12.5 15.5 -26.5c0 -22.667 -6 -55.667 -18 -99
l-36 -128c-3.33301 -12.667 -7 -29.834 -11 -51.501s-6 -37.834 -6 -48.501c0 -12 2.33301 -18 7 -18c8 0 36.333 9.83301 85 29.5s76.334 29.5 83.001 29.5c14.667 0 24.834 -2.83301 30.501 -8.5s8.5 -14.5 8.5 -26.5c0 -9.33301 -6.66699 -20.5 -20 -33.5
s-27 -23.167 -41 -30.5zM320.999 392.001c-27.333 0 -65.833 -35.833 -115.5 -107.5s-74.5 -123.834 -74.5 -156.501c56 38.667 103 77.334 141 116.001c44 44.667 66 79.667 66 105c1.33301 10 2 17.667 2 23c0 13.333 -6.33301 20 -19 20z" />
    <glyph glyph-name="aacute" unicode="&#xe1;" horiz-adv-x="428" 
d="M332 328c0 38 -0.834961 68.1699 -2.50195 90.5029s-5 48.166 -10 77.499s-12.167 60 -21.5 92c-6.66699 22 -13.167 41.167 -19.5 57.5s-11.666 30.666 -15.999 42.999s-6.5 23.5 -6.5 33.5c0 30 49.667 57.333 149 82c80 20 144.667 30 194 30
c19.333 0 32 -1.66699 38 -5c10.667 -6 16 -18.667 16 -38c0 -23.333 -14.333 -39.666 -43 -48.999c-37.333 -8 -64.666 -14.667 -81.999 -20l-136 -40c5.33301 -14 11.666 -37.833 18.999 -71.5s13.333 -67.834 18 -102.501c9.33301 -58 14 -113 14 -165
c0 -106.667 -27.667 -191.667 -83 -255s-127.333 -95 -216 -95c-33.333 0 -61.333 7.66699 -84 23c-30 20.667 -45 52.667 -45 96c0 44 9.66699 92 29 144c14.667 40 31.334 73.333 50.001 100c42 60 77.333 102 106 126c20.667 17.333 39.334 26 56.001 26
c9.33301 0 18.166 -3.83301 26.499 -11.5s12.5 -16.5 12.5 -26.5c0 -18.667 -13.333 -47.334 -40 -86.001l-78 -113c-28 -45.333 -42 -82 -42 -110c0 -14 4 -25.667 12 -35s20.333 -14 37 -14c37.333 0 72 26 104 78c29.333 48 44 94 44 138z" />
    <glyph glyph-name="aacute" unicode="&#x431;" horiz-adv-x="428" 
d="M332 328c0 38 -0.834961 68.1699 -2.50195 90.5029s-5 48.166 -10 77.499s-12.167 60 -21.5 92c-6.66699 22 -13.167 41.167 -19.5 57.5s-11.666 30.666 -15.999 42.999s-6.5 23.5 -6.5 33.5c0 30 49.667 57.333 149 82c80 20 144.667 30 194 30
c19.333 0 32 -1.66699 38 -5c10.667 -6 16 -18.667 16 -38c0 -23.333 -14.333 -39.666 -43 -48.999c-37.333 -8 -64.666 -14.667 -81.999 -20l-136 -40c5.33301 -14 11.666 -37.833 18.999 -71.5s13.333 -67.834 18 -102.501c9.33301 -58 14 -113 14 -165
c0 -106.667 -27.667 -191.667 -83 -255s-127.333 -95 -216 -95c-33.333 0 -61.333 7.66699 -84 23c-30 20.667 -45 52.667 -45 96c0 44 9.66699 92 29 144c14.667 40 31.334 73.333 50.001 100c42 60 77.333 102 106 126c20.667 17.333 39.334 26 56.001 26
c9.33301 0 18.166 -3.83301 26.499 -11.5s12.5 -16.5 12.5 -26.5c0 -18.667 -13.333 -47.334 -40 -86.001l-78 -113c-28 -45.333 -42 -82 -42 -110c0 -14 4 -25.667 12 -35s20.333 -14 37 -14c37.333 0 72 26 104 78c29.333 48 44 94 44 138z" />
    <glyph glyph-name="acircumflex" unicode="&#xe2;" horiz-adv-x="497" 
d="M260 453c47.333 44.667 87.668 85 121.001 121c50 53.333 75.667 84.5 77 93.5s2 16.833 2 23.5c0 10 -3.66699 15 -11 15c-26.667 0 -61.334 -33.333 -104.001 -100c-16 -25.333 -44.333 -76.333 -85 -153zM402.002 411c19.333 0 36.166 -8.16699 50.499 -24.5
s21.5 -38.166 21.5 -65.499c0 -60 -15.333 -113.333 -46 -160c-20.667 -32 -57 -70 -109 -114c-22 -18 -42.167 -30.333 -60.5 -37s-44.833 -10 -79.5 -10c-32.667 0 -60.667 7 -84 21c-30 18 -45 43.667 -45 77c0 66 20.5 154.167 61.5 264.5s94.167 217.5 159.5 321.5
c34.667 54.667 76 98.167 124 130.5s96.667 48.5 146 48.5c34.667 0 58.334 -11.333 71.001 -34c8.66699 -16 13 -40.667 13 -74c0 -30 -30 -81.333 -90 -154c-45.333 -54.667 -107.333 -121.334 -186 -200.001l-155 -152c-1.33301 -5.33301 -7 -19.333 -17 -42
c-6.66699 -16 -10 -29 -10 -39c0 -13.333 4.16699 -24.833 12.5 -34.5s20.5 -14.5 36.5 -14.5c38 0 71 20.333 99 61c25.333 37.333 38 77.333 38 120c0 12 -1.33301 22 -4 30c-6.66699 20 -10 32.333 -10 37c0 14 6.5 24.833 19.5 32.5s27.5 11.5 43.5 11.5z" />
    <glyph glyph-name="acircumflex" unicode="&#x432;" horiz-adv-x="497" 
d="M260 453c47.333 44.667 87.668 85 121.001 121c50 53.333 75.667 84.5 77 93.5s2 16.833 2 23.5c0 10 -3.66699 15 -11 15c-26.667 0 -61.334 -33.333 -104.001 -100c-16 -25.333 -44.333 -76.333 -85 -153zM402.002 411c19.333 0 36.166 -8.16699 50.499 -24.5
s21.5 -38.166 21.5 -65.499c0 -60 -15.333 -113.333 -46 -160c-20.667 -32 -57 -70 -109 -114c-22 -18 -42.167 -30.333 -60.5 -37s-44.833 -10 -79.5 -10c-32.667 0 -60.667 7 -84 21c-30 18 -45 43.667 -45 77c0 66 20.5 154.167 61.5 264.5s94.167 217.5 159.5 321.5
c34.667 54.667 76 98.167 124 130.5s96.667 48.5 146 48.5c34.667 0 58.334 -11.333 71.001 -34c8.66699 -16 13 -40.667 13 -74c0 -30 -30 -81.333 -90 -154c-45.333 -54.667 -107.333 -121.334 -186 -200.001l-155 -152c-1.33301 -5.33301 -7 -19.333 -17 -42
c-6.66699 -16 -10 -29 -10 -39c0 -13.333 4.16699 -24.833 12.5 -34.5s20.5 -14.5 36.5 -14.5c38 0 71 20.333 99 61c25.333 37.333 38 77.333 38 120c0 12 -1.33301 22 -4 30c-6.66699 20 -10 32.333 -10 37c0 14 6.5 24.833 19.5 32.5s27.5 11.5 43.5 11.5z" />
    </font>
</defs>
</svg>
